<svg id="Busca" xmlns="http://www.w3.org/2000/svg" width="28.131" height="28.131" viewBox="0 0 28.131 28.131">
  <g id="Group_53" data-name="Group 53" transform="translate(0 0)">
    <path id="Path_71" data-name="Path 71" d="M24.793,19.48A11.414,11.414,0,0,0,8.651,3.338,11.193,11.193,0,0,0,6.934,17.114a.48.48,0,0,1-.066.572L1.044,23.509c-1.159,1.159-1.435,2.78-.407,3.808l.177.177c1.028,1.028,2.649.752,3.808-.407l5.811-5.811a.487.487,0,0,1,.584-.078A11.193,11.193,0,0,0,24.793,19.48ZM10.758,17.373a8.434,8.434,0,1,1,11.928,0A8.444,8.444,0,0,1,10.758,17.373Z" transform="translate(-0.001 0)" fill="#296188"/>
  </g>
</svg>
