<svg xmlns="http://www.w3.org/2000/svg" width="129.144" height="129.443" viewBox="0 0 129.144 129.443">
  <g id="customer-service" transform="translate(-0.572)">
    <g id="Group_168" data-name="Group 168" transform="translate(0.574 20.878)">
      <g id="Group_167" data-name="Group 167" transform="translate(0)">
        <path id="Path_303" data-name="Path 303" d="M105.476,171.862l-4.833-14.5A14.615,14.615,0,0,0,89.392,147.6L75.44,145.066v-1.081a21.012,21.012,0,0,0,6.224-5.526h4.215a6.271,6.271,0,0,0,6.263-6.263V107.141a27.141,27.141,0,0,0-54.282,0v14.614a8.365,8.365,0,0,0,6.658,8.178,20.917,20.917,0,0,0,10.044,14.051v1.081L40.607,147.6a14.612,14.612,0,0,0-11.249,9.756l-.835,2.507-7.111-7.111a2.092,2.092,0,0,1,0-2.954l8.247-8.245L14.18,126.079,4.86,135.4a14.615,14.615,0,0,0,0,20.667l28.216,28.216a14.607,14.607,0,0,0,20.6.063l10.17-9.318-3.171-3.165Zm-17.51-39.668a2.09,2.09,0,0,1-2.088,2.088H84.123a20.737,20.737,0,0,0,1.361-4.349,8.271,8.271,0,0,0,2.482-.988Zm-2.088-6.844v-7.19a4.139,4.139,0,0,1,0,7.19Zm-41.756,0a4.139,4.139,0,0,1,0-7.19Zm0-14.034V113.7a8.281,8.281,0,0,0-2.088.864v-7.424a22.966,22.966,0,0,1,45.931,0v7.424a8.205,8.205,0,0,0-2.088-.864v-2.384H83.791a22.971,22.971,0,0,1-16.345-6.771L65,102.1l-2.445,2.445a22.971,22.971,0,0,1-16.345,6.771ZM48.3,125.931V115.413a27.068,27.068,0,0,0,16.7-7.42,27.057,27.057,0,0,0,16.7,7.42v10.518a16.576,16.576,0,0,1-2.259,8.351H65v4.176H76.012A16.676,16.676,0,0,1,48.3,125.931Zm22.966,19.915v.1L65,152.208l-6.263-6.263v-.1a20.861,20.861,0,0,0,12.527,0ZM33.316,158.68a10.443,10.443,0,0,1,8.036-6.971l14.594-2.651L65,158.112l9.053-9.053,14.592,2.651a10.439,10.439,0,0,1,8.036,6.971l3,9H56.5l-8.132-8.132-9.036,8.174a2.132,2.132,0,0,1-2.952,0l-4.56-4.56Zm-19.139-26.7,9.575,9.575-2.267,2.267-9.575-9.575Zm36.609,49.351a10.441,10.441,0,0,1-14.763,0L7.808,153.116a10.441,10.441,0,0,1,0-14.763l1.148-1.148,9.575,9.575-.075.075a6.274,6.274,0,0,0,0,8.858l14.971,14.972a6.231,6.231,0,0,0,4.43,1.835,6.147,6.147,0,0,0,4.353-1.762l.157-.14,9.618,9.618Zm4.28-3.925-9.6-9.6,2.758-2.493,9.581,9.581Z" transform="translate(-0.58 -80)" fill="#3e85bd"/>
      </g>
    </g>
    <g id="Group_170" data-name="Group 170" transform="translate(87.96)">
      <g id="Group_169" data-name="Group 169">
        <path id="Path_304" data-name="Path 304" d="M370.92,0H341.691a6.271,6.271,0,0,0-6.263,6.263v16.7a6.271,6.271,0,0,0,6.263,6.263h5.576L345.109,41.82l20.147-12.591h5.664a6.271,6.271,0,0,0,6.263-6.263V6.263A6.271,6.271,0,0,0,370.92,0Zm2.088,22.966a2.091,2.091,0,0,1-2.088,2.088h-6.863L350.8,33.34l1.422-8.286H341.691a2.091,2.091,0,0,1-2.088-2.088V6.263a2.091,2.091,0,0,1,2.088-2.088H370.92a2.091,2.091,0,0,1,2.088,2.088Z" transform="translate(-335.428)" fill="#3e85bd"/>
      </g>
    </g>
    <g id="Group_172" data-name="Group 172" transform="translate(96.311 8.351)">
      <g id="Group_171" data-name="Group 171">
        <rect id="Rectangle_197" data-name="Rectangle 197" width="25.053" height="4.176" fill="#3e85bd"/>
      </g>
    </g>
    <g id="Group_174" data-name="Group 174" transform="translate(96.311 16.702)">
      <g id="Group_173" data-name="Group 173">
        <rect id="Rectangle_198" data-name="Rectangle 198" width="16.702" height="4.176" fill="#3e85bd"/>
      </g>
    </g>
    <g id="Group_176" data-name="Group 176" transform="translate(117.189 16.702)">
      <g id="Group_175" data-name="Group 175">
        <rect id="Rectangle_199" data-name="Rectangle 199" width="4.176" height="4.176" fill="#3e85bd"/>
      </g>
    </g>
    <g id="Group_178" data-name="Group 178" transform="translate(0.572 6.263)">
      <g id="Group_177" data-name="Group 177" transform="translate(0)">
        <path id="Path_305" data-name="Path 305" d="M64.995,24A58.421,58.421,0,0,0,8.109,69.19l-3.956-6.6L.572,64.743,7.911,76.971l12.228-7.339L17.99,66.052l-5.658,3.395A54.3,54.3,0,0,1,81.079,30.6l1.236-3.988A58.42,58.42,0,0,0,64.995,24Z" transform="translate(-0.572 -24)" fill="#3e85bd"/>
      </g>
    </g>
    <g id="Group_180" data-name="Group 180" transform="translate(107.17 38.889)">
      <g id="Group_179" data-name="Group 179">
        <path id="Path_306" data-name="Path 306" d="M430.567,156.355l-12.228-7.339L411,161.246l3.581,2.148,3.654-6.09a54.329,54.329,0,0,1-9.2,51.721l3.242,2.631a58.466,58.466,0,0,0,10-55.4l6.136,3.681Z" transform="translate(-409.036 -149.016)" fill="#3e85bd"/>
      </g>
    </g>
  </g>
</svg>
