<svg xmlns="http://www.w3.org/2000/svg" width="25.944" height="45.709" viewBox="0 0 25.944 45.709">
  <path id="facebook_1_" data-name="facebook (1)" d="M16.525,45.708H9.205a2.22,2.22,0,0,1-2.217-2.217V26.981H2.717A2.22,2.22,0,0,1,.5,24.764V17.689a2.22,2.22,0,0,1,2.217-2.217H6.988V11.929a12.063,12.063,0,0,1,3.189-8.642A11.488,11.488,0,0,1,18.648,0L24.23.009a2.22,2.22,0,0,1,2.213,2.217V8.795a2.219,2.219,0,0,1-2.217,2.217H20.468c-1.146,0-1.438.23-1.5.3-.1.117-.225.447-.225,1.359v2.8h5.2a2.254,2.254,0,0,1,1.1.279,2.225,2.225,0,0,1,1.141,1.939l0,7.075a2.219,2.219,0,0,1-2.217,2.217h-5.22V43.491a2.22,2.22,0,0,1-2.218,2.217Zm-6.857-2.68h6.4V25.781a1.482,1.482,0,0,1,1.48-1.48H23.5l0-6.149h-5.96a1.482,1.482,0,0,1-1.48-1.48v-4a4.564,4.564,0,0,1,.9-3.132,4.542,4.542,0,0,1,3.509-1.207h3.3V2.688l-5.118-.008c-5.537,0-8.978,3.544-8.978,9.25v4.742a1.482,1.482,0,0,1-1.48,1.48H3.18V24.3H8.188a1.482,1.482,0,0,1,1.48,1.48ZM24.225,2.688h0Zm0,0" transform="translate(-0.5 0)" fill="#fff"/>
</svg>
