<?xml version="1.0" encoding="UTF-8" standalone="no"?>
<!-- Creator: CorelDRAW -->

<svg
   xmlns:dc="http://purl.org/dc/elements/1.1/"
   xmlns:cc="http://creativecommons.org/ns#"
   xmlns:rdf="http://www.w3.org/1999/02/22-rdf-syntax-ns#"
   xmlns:svg="http://www.w3.org/2000/svg"
   xmlns="http://www.w3.org/2000/svg"
   xmlns:sodipodi="http://sodipodi.sourceforge.net/DTD/sodipodi-0.dtd"
   xmlns:inkscape="http://www.inkscape.org/namespaces/inkscape"
   xml:space="preserve"
   width="8.26772in"
   height="11.6929in"
   style="shape-rendering:geometricPrecision; text-rendering:geometricPrecision; image-rendering:optimizeQuality; fill-rule:evenodd"
   viewBox="0 0 8268 11692"
   version="1.1"
   id="svg31"
   sodipodi:docname="globe.svg"
   inkscape:export-filename="C:\_developer\workspace_angular\mbn\src\assets\images\icones\globe-home.svg.png"
   inkscape:export-xdpi="41.202099"
   inkscape:export-ydpi="41.202099"
   inkscape:version="0.92.1 r15371"><metadata
     id="metadata35"><rdf:RDF><cc:Work
         rdf:about=""><dc:format>image/svg+xml</dc:format><dc:type
           rdf:resource="http://purl.org/dc/dcmitype/StillImage" /><dc:title></dc:title></cc:Work></rdf:RDF></metadata><sodipodi:namedview
     pagecolor="#ffffff"
     bordercolor="#666666"
     borderopacity="1"
     objecttolerance="10"
     gridtolerance="10"
     guidetolerance="10"
     inkscape:pageopacity="0"
     inkscape:pageshadow="2"
     inkscape:window-width="1920"
     inkscape:window-height="1017"
     id="namedview33"
     showgrid="false"
     inkscape:zoom="0.21024155"
     inkscape:cx="396.85057"
     inkscape:cy="561.25919"
     inkscape:window-x="-8"
     inkscape:window-y="-8"
     inkscape:window-maximized="1"
     inkscape:current-layer="svg31" /><defs
     id="defs4"><style
       type="text/css"
       id="style2"><![CDATA[
    .str0 {stroke:#1F1A17;stroke-width:222}
    .fil0 {fill:none}
    .fil1 {fill:#1F1A17}
   ]]></style></defs><g
     id="Layer 1"><circle
       class="fil0 str0"
       cx="3961"
       cy="5845"
       r="3287"
       id="circle6" /><g
       id="g10"><path
         class="fil1"
         d="M3342 2685c-698,1036 -1041,2081 -1031,3135l-222 2c-11,-1100 345,-2186 1068,-3260l185 123zm-1031 3135c11,1055 376,2123 1096,3205l-185 121c-744,-1117 -1122,-2225 -1133,-3324l222 -2z"
         id="path8" /></g><g
       id="g14"><path
         class="fil1"
         d="M4473 2685c698,1036 1041,2081 1031,3135l222 2c11,-1100 -345,-2186 -1068,-3260l-185 123zm1031 3135c-11,1055 -377,2123 -1097,3205l186 121c744,-1117 1122,-2225 1133,-3324l-222 -2z"
         id="path12" /></g><path
       class="fil0 str0"
       d="M3961 2558l0 6574"
       id="path16" /><g
       id="g20"><path
         class="fil1"
         d="M674 5734l6574 0 0 222 -6574 0 0 -222z"
         id="path18" /></g><g
       id="g24"><path
         class="fil1"
         d="M1166 4034l5590 0 0 222 -5590 0 0 -222z"
         id="path22" /></g><g
       id="g28"><path
         class="fil1"
         d="M1081 7334l5760 0 0 223 -5760 0 0 -223z"
         id="path26" /></g></g></svg>