<?xml version="1.0" encoding="UTF-8" standalone="no"?>
<svg
   xmlns:dc="http://purl.org/dc/elements/1.1/"
   xmlns:cc="http://creativecommons.org/ns#"
   xmlns:rdf="http://www.w3.org/1999/02/22-rdf-syntax-ns#"
   xmlns:svg="http://www.w3.org/2000/svg"
   xmlns="http://www.w3.org/2000/svg"
   id="svg31"
   version="1.1"
   viewBox="0 0 8268 11692"
   style="shape-rendering:geometricPrecision; text-rendering:geometricPrecision; image-rendering:optimizeQuality; fill-rule:evenodd"
   height="11.6929in"
   width="8.26772in"
   xml:space="preserve"><metadata
     id="metadata35"><rdf:RDF><cc:Work
         rdf:about=""><dc:format>image/svg+xml</dc:format><dc:type
           rdf:resource="http://purl.org/dc/dcmitype/StillImage" /><dc:title></dc:title></cc:Work></rdf:RDF></metadata><defs
     id="defs4"><style
       id="style2"
       type="text/css"><![CDATA[
    .str0 {stroke:#1F1A17;stroke-width:222}
    .fil0 {fill:none}
    .fil1 {fill:#1F1A17}
   ]]></style></defs><g
     transform="translate(247.7393,-545.02646)"
     id="Layer 1"><circle
       style="fill:none;stroke:#1f1a17;stroke-width:222"
       id="circle6"
       r="3287"
       cy="5845"
       cx="3961"
       class="fil0 str0" /><g
       id="g10"><path
         style="fill:#1f1a17"
         id="path8"
         d="M 3342,2685 C 2644,3721 2301,4766 2311,5820 l -222,2 C 2078,4722 2434,3636 3157,2562 Z M 2311,5820 c 11,1055 376,2123 1096,3205 l -185,121 C 2478,8029 2100,6921 2089,5822 Z"
         class="fil1" /></g><g
       id="g14"><path
         style="fill:#1f1a17"
         id="path12"
         d="m 4473,2685 c 698,1036 1041,2081 1031,3135 l 222,2 C 5737,4722 5381,3636 4658,2562 Z m 1031,3135 c -11,1055 -377,2123 -1097,3205 l 186,121 C 5337,8029 5715,6921 5726,5822 Z"
         class="fil1" /></g><path
       style="fill:none;stroke:#1f1a17;stroke-width:222"
       id="path16"
       d="M 3961,2558 V 9132"
       class="fil0 str0" /><g
       id="g20"><path
         style="fill:#1f1a17"
         id="path18"
         d="m 674,5734 h 6574 v 222 H 674 Z"
         class="fil1" /></g><g
       id="g24"><path
         style="fill:#1f1a17"
         id="path22"
         d="m 1166,4034 h 5590 v 222 H 1166 Z"
         class="fil1" /></g><g
       id="g28"><path
         style="fill:#1f1a17"
         id="path26"
         d="m 1081,7334 h 5760 v 223 H 1081 Z"
         class="fil1" /></g><path
       transform="matrix(10.417019,0,0,10.417019,-247.7393,544.37931)"
       id="path37"
       d="M 324.13524,822.79584 C 258.01284,806.81117 183.49124,756.37276 144.31475,701.08806 99.252437,637.49748 81.907759,585.03123 81.735952,511.79227 81.592392,450.5948 88.08811,422.5231 115.78109,364.66383 c 17.89463,-37.38748 27.92577,-51.28015 60.18585,-83.35472 42.95541,-42.70839 82.00052,-65.95307 140.97554,-83.9268 45.21166,-13.7791 120.15752,-15.0255 165.93995,-2.75971 94.55937,25.33385 171.2504,88.6771 212.02155,175.12 23.4036,49.62028 31.09181,84.13421 31.09181,139.57727 0,91.40166 -28.70812,159.92444 -94.89352,226.49915 -32.79842,32.99134 -48.4858,44.71362 -81.09453,60.59725 -22.23633,10.83126 -53.18665,22.92506 -68.7785,26.87514 -35.72864,9.05154 -118.68376,8.78984 -157.094,-0.49557 z m 71.2884,-80.31653 v -71.3465 l -56.68157,-1.34693 c -31.17486,-0.74082 -58.34311,0.32914 -60.37388,2.37822 -4.2533,4.29111 25.64946,69.89351 50.5222,110.83846 17.28628,28.45627 24.90147,32.8319 54.64217,31.39698 l 11.89108,-0.57372 z m 47.67596,71.00856 c 13.36477,-3.59129 78.36954,-119.9389 78.36954,-140.26823 0,-2.9945 -19.96424,-4.27484 -53.50988,-3.43172 l -53.50988,1.34489 -1.313,72.53561 -1.31299,72.53562 10.82586,-0.0652 c 5.95422,-0.038 15.15688,-1.22877 20.45035,-2.65123 z m 90.20276,-27.30055 c 18.28047,-8.34316 45.4516,-24.95933 60.38029,-36.92481 29.35523,-23.52841 65.72307,-64.73925 65.72307,-74.47519 0,-8.53238 -111.00884,-8.61471 -117.55079,-0.087 -2.50864,3.27005 -9.37415,18.08934 -15.25668,32.93174 -5.88254,14.84246 -20.05641,43.41245 -31.49749,63.48898 l -20.80197,36.50273 12.88319,-3.13345 c 7.08576,-1.72335 27.83993,-9.95964 46.12038,-18.3028 z m -224.34869,-4.46743 c -7.07552,-11.11816 -22.05825,-40.5486 -33.29496,-65.40096 l -20.43039,-45.18612 -54.75872,-1.34008 c -32.03304,-0.78391 -54.75873,0.51935 -54.75873,3.14024 0,9.09407 39.16738,53.64197 65.5475,74.55192 28.60002,22.66959 87.92099,54.23566 102.17646,54.37051 7.29307,0.069 6.71025,-2.54983 -4.48116,-20.13551 z M 248.42846,646.16153 c -6.66664,-21.63412 -16.87731,-73.08908 -19.8211,-99.88511 L 225.3415,516.54871 H 161.74402 98.146529 l 0.07031,15.45841 c 0.0975,21.43846 12.292491,71.09673 24.333621,99.08711 l 10.06256,23.39106 h 59.19022 c 54.17783,0 58.97301,-0.70488 56.62523,-8.32376 z M 395.42364,585.517 v -66.59007 l -74.91383,-1.30989 -74.91383,-1.30989 v 18.62108 c 0,20.70713 12.30644,89.9929 19.20919,108.1485 l 4.44284,11.68557 63.08782,-1.32761 63.08781,-1.32762 z m 139.36246,51.13166 c 6.05629,-20.34398 19.97807,-97.84109 19.97807,-111.21013 0,-8.28703 -4.83772,-8.88982 -71.3465,-8.88982 h -71.34651 v 68.96829 68.96829 h 58.70253 58.70255 z m 147.86816,-0.14317 c 11.45268,-22.44905 22.70988,-62.31465 26.82196,-94.9855 l 3.14295,-24.97128 h -71.79285 -71.79285 l -0.0828,22.59306 c -0.0476,12.42618 -3.33654,37.57583 -7.31354,55.8881 -3.977,18.31227 -8.48819,39.18112 -10.02485,46.37522 l -2.79369,13.0802 h 62.33154 62.3315 l 9.17259,-17.97978 z M 228.30805,465.41705 c 1.70805,-20.2743 7.07241,-53.45043 11.92083,-73.72473 l 8.81529,-36.86236 h -55.77353 -55.77353 l -12.31576,27.44317 c -15.33999,34.18205 -27.034821,78.2969 -27.034821,101.97986 v 18.02642 h 63.527991 63.528 z m 168.42859,-38.05148 1.31299,-72.53561 h -65.93516 -65.93516 l -8.42111,34.48414 c -4.63161,18.96628 -9.56805,52.19831 -10.96987,73.84895 l -2.54876,39.3648 75.59203,-1.31333 75.59204,-1.31333 z m 157.86158,57.07721 C 554.41319,464.5295 544.5191,405.98789 536.10935,375.0448 l -5.49401,-20.21484 h -59.27209 -59.27209 v 73.72472 73.72473 h 71.34651 71.3465 l -0.166,-17.83663 z m 154.59375,-9.51287 c -3.55443,-30.19955 -22.71929,-92.68089 -33.55554,-109.39797 -6.58842,-10.16398 -9.94647,-10.70198 -66.79855,-10.70198 h -59.86143 l 3.33749,13.08019 c 10.52875,41.26387 16.56419,78.07482 16.63696,101.47059 0.0476,14.60622 1.5095,27.98369 3.25355,29.72771 1.74399,1.74403 34.00393,3.17096 71.68873,3.17096 h 68.51781 z M 282.5544,277.53791 c 15.77612,-32.04647 27.83146,-59.15358 26.78967,-60.23802 -1.0418,-1.08444 -19.55699,6.78354 -41.14489,17.48441 -38.75178,19.20879 -88.64771,59.26527 -108.43122,87.04864 l -9.94843,13.97128 h 52.02552 52.02551 z m 115.24746,-8.32376 v -66.59007 h -13.67475 c -32.36671,0 -43.86654,5.54207 -58.15534,28.02659 -14.36062,22.59754 -37.88942,69.05299 -46.6334,92.07336 l -4.96834,13.08019 h 61.71591 61.71592 z m 121.04943,55.8881 c -5.82974,-19.1445 -49.35281,-101.28287 -59.35741,-112.02155 -6.86778,-7.37169 -15.30017,-10.45662 -28.58227,-10.45662 h -18.84045 v 66.59007 66.59007 h 55.01951 c 54.85192,0 55.00959,-0.0328 51.76062,-10.70197 z m 135.79799,7.79475 c 0,-8.31509 -43.10218,-52.53701 -69.71952,-71.53076 -27.20994,-19.4166 -95.08431,-52.48612 -99.22592,-48.34451 -0.88525,0.88525 11.61569,28.79402 27.77985,62.0195 l 29.3894,60.40995 55.88809,0.17651 c 30.73846,0.0971 55.8881,-1.13172 55.8881,-2.73069 z"
       style="fill:#ffffff;fill-opacity:0.38844676;stroke-width:4.75643396" /><path
       transform="matrix(10.417019,0,0,10.417019,-247.7393,544.37931)"
       id="path39"
       d="m 283.64745,325.88475 c 0,-6.20688 44.84637,-93.33748 54.61323,-106.10632 4.57799,-5.98511 14.92165,-9.77789 30.83672,-11.30713 l 23.94802,-2.3011 v 62.4388 62.43879 h -54.69898 c -36.16684,0 -54.69899,-1.74925 -54.69899,-5.16304 z"
       style="fill:#ffffff;fill-opacity:0.38844676;stroke-width:4.75643396" /><path
       transform="matrix(10.417019,0,0,10.417019,-247.7393,544.37931)"
       id="path41"
       d=""
       style="fill:#ffffff;fill-opacity:0.38844676;stroke-width:4.75643396" /><path
       transform="matrix(10.417019,0,0,10.417019,-247.7393,544.37931)"
       id="path43"
       d="m 464.03623,828.53214 c -1.14628,-1.14625 -34.7113,-2.6363 -74.58894,-3.31119 -39.87764,-0.67489 -72.50481,-2.97976 -72.50481,-5.12201 0,-2.14221 -2.73587,-3.8949 -6.07973,-3.8949 -11.2456,0 -74.27923,-32.62338 -99.61332,-51.55537 -13.80988,-10.32003 -32.92494,-27.02135 -42.47791,-37.11402 -20.81751,-21.99371 -53.9104,-72.74628 -61.97407,-95.04597 -3.19303,-8.83017 -6.980828,-16.05911 -8.417324,-16.06431 -1.436498,-0.005 -3.090064,-6.80003 -3.674592,-15.09963 -0.584528,-8.29959 -2.890667,-16.32182 -5.124754,-17.82717 -5.864006,-3.95123 -5.683565,-147.80824 0.185397,-147.80824 2.60338,0 3.640803,-4.17816 2.305385,-9.28481 -1.335418,-5.10664 -0.933665,-9.92253 0.892782,-10.70197 1.826449,-0.77944 9.613536,-16.33972 17.304646,-34.5784 27.52133,-65.264 86.26463,-127.54688 149.56049,-158.57224 19.63998,-9.62682 36.38243,-18.99878 37.20546,-20.82658 0.82303,-1.8278 4.56872,-2.14433 8.32376,-0.70338 3.75504,1.44094 6.82735,0.45089 6.82735,-2.20012 0,-2.65102 4.28079,-3.70058 9.51287,-2.33236 5.23207,1.36822 9.51286,0.46834 9.51286,-1.99973 0,-2.46807 6.42119,-3.54497 14.26931,-2.39311 7.84811,1.15186 14.26874,0.24606 14.26806,-2.01289 -0.002,-7.02195 105.19183,1.08202 135.5596,10.4433 15.69623,4.83857 30.679,8.89512 33.29504,9.01455 2.61603,0.11943 5.82663,1.41807 7.13465,2.88588 1.30802,1.46781 16.29078,10.95641 33.29503,21.08578 63.83058,38.02363 116.84651,106.02955 140.926,180.77213 10.29026,31.94085 12.37125,47.7904 12.95848,98.69676 0.38479,33.35491 -0.71756,60.64495 -2.44961,60.64453 -1.73211,-4.1e-4 -4.62839,8.7541 -6.43622,19.45448 -11.18537,66.20585 -93.74232,167.16944 -164.02438,200.5947 -19.62029,9.33118 -45.30503,19.71842 -57.07721,23.08274 -11.77217,3.36432 -22.62035,7.85863 -24.10705,9.98732 -1.48671,2.12874 -3.64097,2.93253 -4.78725,1.78623 z M 397.80186,741.8761 v -73.12151 h -59.74102 -59.74101 l 2.14552,13.61358 c 1.18005,7.48748 4.97388,18.72456 8.43076,24.97128 3.45688,6.24672 5.8305,12.96299 5.27472,14.92502 -0.55579,1.96203 1.2562,3.56732 4.02663,3.56732 2.77043,0 3.71431,2.1404 2.0975,4.75644 -1.6168,2.61604 -0.67292,4.75643 2.09751,4.75643 2.77043,0 4.50205,1.72112 3.84804,3.8247 -1.70122,5.47189 16.84728,38.98321 21.57718,38.98321 2.17553,0 2.80143,1.86732 1.39088,4.14965 -1.41054,2.28233 3.75914,10.7669 11.48819,18.8546 11.8513,12.40126 17.42511,14.63721 35.57896,14.27282 l 21.52614,-0.43207 z m 67.60572,45.78933 c 22.6525,-32.35159 56.06156,-97.87394 56.06156,-109.94877 0,-8.25893 -4.29148,-8.96207 -54.69899,-8.96207 h -54.69899 v 73.02676 73.02682 l 17.5095,-0.4912 c 15.62112,-0.43807 19.48501,-3.31252 35.82692,-26.65154 z m 63.2874,1.52972 c 38.68792,-18.50196 45.09493,-22.25845 45.09493,-26.43978 0,-1.9957 2.7349,-3.62854 6.07758,-3.62854 3.34268,0 9.45802,-3.74569 13.58975,-8.32376 4.13167,-4.57807 11.56365,-11.76147 16.51548,-15.96311 19.59455,-16.62612 43.95373,-45.84627 45.46218,-54.53428 1.48667,-8.56272 -2.07818,-9.26163 -53.59288,-10.50686 -56.31343,-1.36125 -63.00421,0.43854 -66.90176,17.99782 -0.86902,3.91507 -3.29256,8.38112 -5.38564,9.92454 -2.09308,1.54336 -4.15386,7.42945 -4.57951,13.08019 -0.42566,5.65069 -2.58515,10.27399 -4.79887,10.27399 -2.21373,0 -2.70212,2.1404 -1.08532,4.75643 1.6168,2.61604 0.93259,4.75644 -1.52046,4.75644 -4.74341,0 -18.16517,28.4683 -16.258,34.48414 0.62202,1.96203 -0.96595,3.56733 -3.52882,3.56733 -2.56287,0 -8.94556,8.40086 -14.18375,18.66853 l -9.52398,18.66857 13.27796,-1.68045 c 7.30287,-0.92422 25.90637,-7.71979 41.34111,-15.1012 z m -213.62958,5.8243 c -1.24975,-8.2838 -47.34047,-99.88991 -51.83071,-103.01446 -2.30005,-1.60054 -4.27161,-4.81113 -4.38124,-7.13465 -0.69246,-14.67579 -5.88904,-16.11575 -58.15974,-16.11575 -46.74034,0 -53.39737,0.99172 -53.39737,7.95485 0,9.88815 59.56674,73.22387 77.71276,82.62991 7.34478,3.80719 26.99595,14.79736 43.66926,24.42262 29.39238,16.96777 47.92716,21.46588 46.38704,11.25748 z m -64.71299,-150.4494 c 0,-5.01077 -2.26672,-9.1105 -5.03714,-9.1105 -2.77043,0 -3.83372,-1.94718 -2.36287,-4.32707 2.4766,-4.00722 -4.61803,-45.91131 -10.54152,-62.263 -1.42151,-3.92406 -2.0737,-10.15618 -1.44929,-13.84915 0.62439,-3.69298 -0.10484,-13.32476 -1.62049,-21.40395 l -2.75576,-14.68945 H 162.39227 98.199193 l 1.904097,23.78216 c 1.04725,13.0802 3.30093,29.13316 5.00816,35.67326 1.70724,6.54009 3.88537,15.10167 4.8403,19.02573 0.95493,3.92406 2.16755,7.66975 2.69471,8.32376 0.52717,0.65401 1.40054,2.79441 1.94084,4.75644 6.69017,24.29457 8.99545,29.72771 12.61347,29.72771 2.33244,0 3.98733,1.60529 3.67753,3.56732 -0.30978,1.96203 -0.29042,4.63752 0.0428,5.94554 0.33348,1.30802 27.34187,2.73226 60.01869,3.16496 55.64083,0.7368 59.41261,0.20837 59.41261,-8.32376 z m 147.44945,-59.03881 v -69.56595 l -76.51631,1.48081 -76.5163,1.48083 2.75593,39.89936 c 1.51576,21.94465 4.89379,42.47535 7.50674,45.62376 2.61295,3.14842 3.48487,6.99034 1.93759,8.53763 -1.54728,1.54728 -1.05019,5.63113 1.10466,9.07523 3.84559,6.14643 4.3648,8.2182 5.82307,23.2355 0.61419,6.32496 10.86107,7.63861 67.31454,8.62971 l 66.59008,1.16908 z m 135.99743,62.9658 c 1.00879,-1.00878 2.78353,-9.1708 3.94386,-18.1378 1.16034,-8.967 2.52732,-16.30364 3.03774,-16.30364 0.51043,0 1.58191,-4.28079 2.38108,-9.51287 2.17387,-14.23205 6.40088,-36.419 9.72474,-51.04378 1.62409,-7.14577 1.73572,-17.84775 0.24829,-23.78217 -2.65652,-10.59693 -3.94173,-10.78985 -71.87952,-10.78985 h -69.17465 l -0.006,66.59007 -0.006,66.59007 59.94775,-0.88793 c 32.97127,-0.48836 60.77313,-1.71331 61.78192,-2.7221 z M 685.3542,633.82351 c 0.65634,-3.02423 4.67715,-13.35801 8.93511,-22.96394 4.25791,-9.60593 8.86727,-24.5887 10.24293,-33.29504 1.37565,-8.70634 4.20821,-25.46148 6.29447,-37.23365 l 3.79326,-21.40395 h -72.97335 c -70.20991,0 -72.92707,0.36025 -71.7509,9.51286 0.67237,5.23208 -0.21119,11.81293 -1.96322,14.62413 -1.75208,2.81119 -3.82645,18.31603 -4.60965,34.45519 -0.78324,16.13916 -3.27894,29.35696 -5.5461,29.37288 -2.26715,0.0157 -3.00316,4.30762 -1.63564,9.53709 1.36752,5.22947 0.54699,10.70678 -1.82347,12.1718 -2.37047,1.46501 -4.3099,6.75601 -4.3099,11.75776 0,8.43017 4.60109,9.19099 63.02275,10.42127 63.82934,1.34415 68.59433,0.22697 72.32371,-16.9564 z M 229.11029,474.92991 c 1.7735,-15.04222 6.15943,-43.15085 9.74648,-62.46362 3.58706,-19.31277 5.3743,-36.97103 3.97164,-39.24058 -1.40266,-2.26955 -0.28357,-4.12645 2.48686,-4.12645 2.77042,0 5.03714,-3.21059 5.03714,-7.13465 0,-5.94607 -9.52142,-7.13465 -57.15416,-7.13465 H 136.0441 l -6.71048,15.45841 c -6.65037,15.31998 -12.78593,31.17691 -14.72333,38.05147 -0.55294,1.96203 -1.54045,4.63752 -2.19446,5.94554 -0.65401,1.30802 -1.72421,4.51861 -2.37822,7.13465 -0.65401,2.61604 -1.72982,5.29154 -2.39069,5.94554 -2.128,2.10591 -4.87068,19.5351 -7.48479,47.56434 l -2.550703,27.3495 h 64.137153 64.13715 z m 168.69157,-46.37523 v -73.72472 h -66.87079 c -43.36932,0 -65.83766,1.67163 -63.93114,4.75643 1.6168,2.61604 0.44392,4.75644 -2.60639,4.75644 -3.05032,0 -4.34032,3.14205 -2.86666,6.98232 1.47365,3.84028 0.48653,8.33758 -2.1936,9.99399 -2.68013,1.65641 -3.75032,5.9372 -2.37822,9.51287 1.37212,3.57566 0.58404,7.68209 -1.75129,9.1254 -2.33532,1.44331 -4.13516,6.32775 -3.99964,10.8543 0.25998,8.68348 -4.28557,49.95518 -8.37143,76.00929 l -2.42421,15.45841 h 78.69668 78.69669 z m 153.843,43.99702 c -0.86225,-28.46977 -1.76888,-35.66313 -8.54275,-67.77919 -1.65531,-7.84811 -3.93512,-20.53067 -5.06624,-28.18346 -1.13112,-7.65279 -4.78627,-15.6465 -8.12255,-17.7638 -3.33628,-2.11729 -31.21561,-3.8824 -61.95406,-3.92245 l -55.8881,-0.0728 v 73.72472 73.72473 h 70.23701 70.23703 z m 158.35747,7.13465 c -3.36898,-28.37983 -3.61461,-29.42712 -17.0122,-72.53562 -16.52347,-53.16624 -15.16184,-52.32077 -84.26417,-52.32077 -54.95212,0 -58.71822,0.59213 -58.71822,9.23216 0,5.07769 1.93943,10.4308 4.3099,11.89582 2.37046,1.46501 3.19099,6.94232 1.82347,12.17179 -1.36752,5.22947 -0.63151,9.51948 1.63564,9.53334 2.26716,0.0138 4.78859,14.46153 5.60323,32.10593 0.81463,17.6444 3.00987,32.63409 4.87824,33.31043 1.86842,0.67635 2.58237,9.77303 1.58661,20.21485 l -1.81054,18.98513 h 72.32505 72.32504 z M 278.31887,288.90159 c 13.25073,-25.79645 22.72428,-48.2706 21.05232,-49.94256 -1.67195,-1.67195 -0.79243,-3.03991 1.9545,-3.03991 2.74693,0 6.11388,-4.2808 7.4821,-9.51287 1.45026,-5.54583 0.14593,-9.51287 -3.12776,-9.51287 -8.82126,0 -75.51959,39.29559 -101.12491,59.57814 -24.13018,19.11407 -53.60054,49.59911 -53.90923,55.76538 -0.0982,1.96203 23.16726,3.56732 51.70108,3.56732 h 51.87967 z m 119.48299,-19.51384 v -66.41647 l -22.59306,0.29086 c -12.42619,0.15997 -27.36441,3.3126 -33.19606,7.00584 -9.80863,6.21191 -25.91945,31.03474 -24.76038,38.14971 0.27644,1.69695 -1.53989,4.39488 -4.03628,5.99538 -6.47473,4.15111 -30.46735,52.83781 -26.08143,52.92539 2.00609,0.0399 1.26044,1.64535 -1.65702,3.56732 -2.91745,1.92197 -6.80738,8.31038 -8.64428,14.19647 l -3.33982,10.70197 h 62.15416 62.15417 z m 121.42759,53.38393 c -1.79904,-7.16791 -4.70656,-14.12419 -6.46118,-15.45841 -1.75462,-1.33423 -3.65309,-4.88466 -4.21881,-7.88986 -0.56573,-3.00519 -7.52201,-16.47685 -15.45841,-29.93702 -7.9364,-13.46017 -14.42982,-26.51924 -14.42982,-29.02015 0,-2.50092 -2.26671,-4.54712 -5.03714,-4.54712 -2.77043,0 -3.87405,-1.88194 -2.45248,-4.18209 1.42157,-2.30015 -2.77301,-9.53977 -9.32128,-16.08804 -8.57177,-8.57177 -17.20903,-11.97915 -30.84256,-12.1673 l -18.93661,-0.26135 v 63.12099 c 0,34.71654 1.42693,64.54791 3.17096,66.29194 1.74402,1.74402 26.5906,3.17095 55.21462,3.17095 h 52.04367 z m 135.41983,7.92301 c 0,-7.59979 -52.74048,-61.48054 -60.17945,-61.48054 -3.52584,0 -6.41062,-1.98363 -6.41062,-4.40806 0,-2.42444 -5.88609,-7.42509 -13.08019,-11.11257 -7.19411,-3.68748 -27.70563,-14.54622 -45.58116,-24.13054 -32.57671,-17.46665 -45.98019,-21.25894 -45.98019,-13.00935 0,2.42918 2.67549,7.29603 5.94554,10.81523 3.27005,3.51919 6.30232,8.48797 6.7384,11.04172 0.43607,2.55375 10.47881,25.51204 22.31721,51.01842 l 21.52434,46.37522 h 57.35304 c 37.70677,0 57.35308,-1.75027 57.35308,-5.10953 z"
       style="fill:#ffffff;fill-opacity:0.38844676;stroke-width:4.75643396" /><path
       transform="matrix(10.417019,0,0,10.417019,-247.7393,544.37931)"
       id="path45"
       d="m 102.90296,481.87478 c 0,-21.25911 12.27933,-67.00661 26.12141,-97.31711 l 11.40378,-24.97128 h 50.20569 c 28.08517,0 50.2057,1.96564 50.2057,4.46129 0,2.4537 -3.07963,17.97157 -6.84363,34.48414 -3.76399,16.51257 -8.32134,45.54073 -10.12744,64.50701 l -3.28382,34.48414 h -58.84084 -58.84085 z"
       style="fill:#ffffff;fill-opacity:0.38844676;stroke-width:4.75643396" /><path
       transform="matrix(10.417019,0,0,10.417019,-247.7393,544.37931)"
       id="path47"
       d="m 347.36785,821.38051 c -27.387,-2.26825 -42.2521,-7.02168 -78.48116,-25.09609 C 196.69606,760.26909 155.20307,719.76035 117.64759,648.63289 90.703662,597.60299 87.524084,580.54029 89.386407,496.97372 l 1.630752,-73.17547 23.549381,-47.56434 c 19.95043,-40.29526 30.12673,-54.18382 66.58744,-90.87813 35.71551,-35.94435 50.42753,-46.98239 86.46954,-64.87583 58.13148,-28.86 95.97822,-35.30308 164.05993,-27.92978 62.41259,6.75933 90.67776,14.94615 128.96334,37.35338 36.38434,21.29454 95.54229,80.18449 116.93226,116.4026 29.15071,49.35888 40.26944,89.73579 42.66944,154.95168 2.49166,67.70671 -3.63453,97.06471 -31.47798,150.84924 -24.77013,47.84782 -96.25547,119.28765 -140.05112,139.96192 -72.25741,34.11 -98.06034,37.86625 -201.35154,29.31152 z m 50.43401,-78.9012 v -73.72472 h -59.45542 -59.45543 v 11.89289 c 0,18.16325 52.92278,118.03756 65.49714,123.60426 5.83319,2.58236 10.6058,6.32805 10.6058,8.32376 0,1.9957 9.63178,3.62854 21.40396,3.62854 h 21.40395 z m 60.17632,56.51276 c 18.56412,-21.39211 63.49096,-106.39562 63.49096,-120.12763 0,-9.72277 -2.0943,-10.10985 -54.69899,-10.10985 h -54.69899 v 73.72472 73.72473 l 15.45841,0.0285 c 11.87161,0.0238 18.93657,-3.97713 30.44861,-17.24288 z m 79.06499,-12.25894 c 17.95773,-8.27725 35.17735,-18.65726 38.26589,-23.06676 3.0885,-4.4095 7.75589,-8.22777 10.37193,-8.48505 7.02026,-0.69044 50.93461,-39.45585 48.00973,-42.38068 -1.37556,-1.37556 2.89011,-6.74167 9.47924,-11.92471 6.58918,-5.18304 10.81594,-10.58801 9.39286,-12.01114 -1.42307,-1.42308 -0.2245,-5.43451 2.66342,-8.91432 8.18377,-9.86084 -2.62827,-11.68441 -60.33808,-10.17667 l -52.01507,1.35901 -23.78217,47.8754 c -13.08019,26.33148 -28.59806,55.47948 -34.48415,64.77326 -5.88608,9.29384 -10.70197,18.51808 -10.70197,20.49833 0,6.21342 29.18923,-1.89848 63.13837,-17.54667 z m -220.10069,10.36593 c 0,-7.14412 -52.73023,-111.20752 -58.0728,-114.60694 -2.51533,-1.60054 -3.85542,-4.81113 -2.97797,-7.13465 0.87744,-2.32356 -23.55429,-4.82768 -54.29275,-5.56474 -47.31109,-1.13436 -55.88809,-0.23545 -55.88809,5.85641 0,17.16244 89.48976,99.33245 108.18102,99.33245 3.28536,0 5.97339,1.91 5.97339,4.24441 0,2.33446 2.14039,2.92159 4.75643,1.30478 2.61604,-1.6168 4.75644,-0.54661 4.75644,2.37822 0,2.92483 2.14039,3.99502 4.75643,2.37822 2.61604,-1.61681 4.75643,-1 4.75643,1.37066 0,5.27764 18.36303,14.5154 29.72771,14.95494 4.57807,0.17694 8.32376,-1.85415 8.32376,-4.51376 z M 244.59629,650.56601 c 4.93615,-3.22717 4.27464,-12.76293 -3.38525,-48.79927 -5.23612,-24.63359 -10.13725,-53.34993 -10.8914,-63.81408 l -1.37118,-19.02573 -64.77662,-1.31927 -64.776614,-1.31927 -0.538735,23.91233 c -0.296303,13.15178 1.495959,23.91233 3.982809,23.91233 2.48684,0 3.32006,3.13099 1.85159,6.95776 -2.75029,7.16715 8.8981,47.60706 20.10414,69.79588 6.25112,12.37771 7.03606,12.54943 60.00014,13.12602 29.51639,0.32134 56.42689,-1.22069 59.80112,-3.4267 z M 397.80186,585.517 v -68.96829 h -76.18198 -76.18197 l 2.02666,41.47527 c 1.11468,22.81139 4.24059,42.21324 6.94649,43.1152 2.7059,0.90197 3.82695,4.4879 2.49122,7.96875 -1.33572,3.48084 -0.0628,15.11472 2.82875,25.85308 l 5.25735,19.52428 h 66.40674 66.40674 z m 141.58675,41.7657 c 3.31561,-12.50698 5.14813,-26.38303 4.07226,-30.83567 -1.07587,-4.45263 0.13113,-8.79145 2.68224,-9.64182 2.55111,-0.85037 4.99938,-16.47086 5.44061,-34.7122 l 0.80224,-33.16608 -70.1574,-1.54827 -70.1574,-1.54826 v 69.61274 69.61276 l 60.64453,-2.51663 60.64453,-2.51662 z m 157.13665,-20.36175 c 7.79379,-24.19313 19.95766,-78.47263 19.95766,-89.05816 0,-0.93237 -33.04656,-1.41391 -73.43677,-1.07009 l -73.43677,0.62514 -3.11018,26.91492 c -1.71061,14.80322 -6.11925,41.8977 -9.79692,60.20997 -3.67772,18.31227 -6.68851,35.90841 -6.69065,39.10253 -0.003,4.21363 17.29264,6.17172 63.01886,7.13465 72.26811,1.52186 68.18438,3.667 83.49477,-43.85896 z M 228.72484,486.821 c 1.42211,-8.50213 5.88308,-36.82119 9.91326,-62.93125 4.03018,-26.11006 8.54664,-52.3299 10.03659,-58.26631 2.7071,-10.78597 2.6679,-10.79348 -56.30656,-10.79348 h -59.01554 l -6.81548,17.83663 c -3.74852,9.81014 -6.854,19.97702 -6.90106,22.59306 -0.047,2.61604 -1.59638,5.89455 -3.44293,7.28559 -6.14362,4.62811 -17.69312,57.23855 -17.263561,78.63923 l 0.423422,21.09494 h 63.393099 63.3931 z m 169.07702,-58.26632 v -73.72472 h -66.2212 -66.22121 l -5.55891,16.84368 c -3.0574,9.26402 -4.36077,19.966 -2.89637,23.78217 1.4644,3.81617 0.33981,6.93849 -2.4991,6.93849 -2.95398,0 -4.18013,5.13443 -2.86682,12.0046 1.26216,6.60254 0.4522,13.14343 -1.79995,14.53532 -2.25213,1.3919 -3.89531,9.3673 -3.65151,17.72311 0.24381,8.35582 -1.11892,24.28907 -3.02827,35.40723 l -3.47153,20.21485 h 79.10744 79.10743 z m 156.96231,47.84505 c 0,-14.23382 -1.78352,-26.98195 -3.96339,-28.32918 -2.17986,-1.34723 -3.00712,-8.96494 -1.83836,-16.92823 1.16876,-7.9633 0.27677,-14.49361 -1.98216,-14.51181 -2.25894,-0.0181 -4.53905,-9.59782 -5.06691,-21.28805 -1.79522,-39.75832 -3.10865,-40.5125 -70.55412,-40.5125 h -59.28807 v 73.72472 73.72473 h 71.34651 71.3465 z m 157.77752,6.85394 c -0.9979,-10.46415 -3.5296,-19.02573 -5.62596,-19.02573 -2.09635,0 -2.81538,-3.80922 -1.59787,-8.46492 1.21745,-4.65571 -0.39621,-14.82258 -3.58631,-22.59306 -3.18995,-7.77048 -5.36287,-16.80364 -4.82863,-20.07369 0.53419,-3.27004 -1.38926,-5.94554 -4.27437,-5.94554 -2.88511,0 -4.03384,-1.96078 -2.55268,-4.35729 3.85937,-6.24464 -5.93599,-29.72195 -16.51158,-39.57465 -7.57829,-7.06021 -18.16126,-8.38883 -66.82034,-8.38883 h -57.81592 l 2.81698,15.45841 c 1.54933,8.50212 6.57203,41.67825 11.16151,73.72472 l 8.34455,58.26632 h 71.5525 71.55251 z M 256.29795,327.48047 c -0.65401,-3.27005 0.99268,-5.94555 3.65932,-5.94555 3.76903,0 52.22878,-95.49844 52.22878,-102.92598 0,-0.94356 -3.8552,-1.71556 -8.56712,-1.71556 -7.86717,0 -26.10816,10.74392 -94.94379,55.92174 -23.85817,15.65847 -58.20784,50.61996 -58.20784,59.2446 0,2.23084 24.07945,3.45086 53.50988,2.71117 39.71288,-0.99811 53.20328,-2.87788 52.32077,-7.29042 z m 141.50391,-57.49513 v -65.8189 l -22.06115,-0.83445 c -32.64031,-1.23461 -46.83689,12.02337 -76.66793,71.59907 -13.71601,27.3923 -24.9382,52.2947 -24.9382,55.33867 0,3.92455 17.98697,5.53449 61.83364,5.53449 h 61.83364 z m 123.66728,58.10792 c 0,-13.49606 -53.20547,-110.68548 -64.72623,-118.23417 -6.08856,-3.98938 -18.62619,-6.71417 -27.86139,-6.0551 l -16.79129,1.19831 -0.01,65.40096 -0.01,65.40096 h 54.69899 c 47.26732,0 54.69899,-1.04764 54.69899,-7.71096 z m 133.18014,1.04616 c 0,-10.96013 -68.10086,-71.13927 -99.35458,-87.79732 -15.98801,-8.52153 -29.06913,-14.1451 -29.06913,-12.49681 0,1.64828 -3.36026,-0.36338 -7.46725,-4.47037 -8.09209,-8.09209 -29.44199,-14.96568 -33.59256,-10.81511 -1.41093,1.41093 6.39498,21.42518 17.34646,44.47611 10.95148,23.05093 23.13994,49.97873 27.08545,59.83955 l 7.17367,17.92875 h 58.93897 c 47.37256,0 58.93897,-1.30792 58.93897,-6.6648 z"
       style="fill:#ffffff;fill-opacity:0.38844676;stroke-width:4.75643396" /><path
       transform="matrix(10.417019,0,0,10.417019,-247.7393,544.37931)"
       id="path49"
       d=""
       style="fill:#ffffff;fill-opacity:0.38844676;stroke-width:4.75643396" /><path
       transform="matrix(10.417019,0,0,10.417019,-247.7393,544.37931)"
       id="path51"
       d=""
       style="fill:#ffffff;fill-opacity:0.38844676;stroke-width:4.75643396" /><path
       transform="matrix(10.417019,0,0,10.417019,-247.7393,544.37931)"
       id="path53"
       d=""
       style="fill:#ffffff;fill-opacity:0.38844676;stroke-width:4.75643396" /><path
       transform="matrix(10.417019,0,0,10.417019,-247.7393,544.37931)"
       id="path55"
       d=""
       style="fill:#ffffff;fill-opacity:0.38844676;stroke-width:4.75643396" /><path
       transform="matrix(10.417019,0,0,10.417019,-247.7393,544.37931)"
       id="path57"
       d="m 248.79863,474.92991 c 2.8982,-32.19045 10.21811,-76.69107 16.03893,-97.50689 l 4.98773,-17.83663 h 61.61007 61.61006 v 68.96829 68.96829 h -73.14045 -73.14046 z"
       style="fill:#ffffff;fill-opacity:0.38844676;stroke-width:4.75643396" /><path
       transform="matrix(10.417019,0,0,10.417019,-247.7393,544.37931)"
       id="path59"
       d="m 248.79863,474.92991 c 2.8982,-32.19045 10.21811,-76.69107 16.03893,-97.50689 l 4.98773,-17.83663 h 61.61007 61.61006 v 68.96829 68.96829 h -73.14045 -73.14046 z"
       style="fill:#ffffff;fill-opacity:0.38844676;stroke-width:4.75643396" /><path
       transform="matrix(10.417019,0,0,10.417019,-247.7393,544.37931)"
       id="path61"
       d="m 395.14004,824.45257 c -2.89473,-0.27607 -15.32894,-1.14096 -27.63157,-1.922 -42.18202,-2.67795 -56.39198,-6.26615 -91.17675,-23.02329 C 195.48473,760.56021 151.41329,716.7068 111.59532,635.58586 93.999936,599.73887 90.636059,584.9097 89.690666,539.02234 c -0.524278,-25.44729 0.912668,-88.10585 2.564869,-111.8421 0.368727,-5.29729 3.722945,-13.08282 17.217685,-39.96428 24.87168,-49.54426 30.43093,-57.80302 60.7831,-90.29888 19.25952,-20.61975 43.46539,-42.72071 59.29387,-54.13774 13.33763,-9.62039 58.23655,-32.42016 76.11617,-38.65196 40.38478,-14.07578 72.94107,-16.89217 127.63158,-11.04119 87.8111,9.39434 130.55634,29.39328 190.54091,89.14716 33.70834,33.57871 50.75172,56.38327 66.535,89.02584 19.6314,40.60114 26.21276,69.11214 29.2864,126.87117 2.44118,45.87385 -0.8081,78.28431 -10.80725,107.799 -5.37975,15.87951 -21.60467,49.40026 -30.50331,63.01997 -22.83474,34.94941 -70.47455,83.80655 -106.01601,108.72501 -25.47165,17.85841 -77.79271,38.93974 -110.04914,44.34125 -11.28739,1.89014 -55.9,3.50933 -67.1445,2.43698 z m 41.38618,-9.28978 c 6.85414,-1.05926 13.73206,-5.06054 15.89131,-9.24488 1.0608,-2.05572 2.67505,-4.21409 3.58721,-4.79638 5.9949,-3.82692 30.098,-43.63686 47.56857,-78.56669 13.66448,-27.32014 18.99051,-40.98865 18.30334,-46.97304 -0.7009,-6.10381 -6.29951,-6.72952 -61.27608,-6.8483 l -49.01316,-0.10589 v 73.59681 73.59682 l 3.61842,0.54725 c 3.74073,0.56575 13.38817,0.0201 21.32039,-1.2057 z m -38.0967,-72.85097 v -73.68421 h -59.79979 -59.79979 l 0.0365,8.22368 c 0.0475,10.72099 5.66735,26.00734 20.43798,55.59211 22.38454,44.83504 41.05223,72.65808 53.07257,79.10143 7.35429,3.94217 8.90593,4.18191 27.96053,4.32004 l 18.09205,0.13116 z m 100.61326,59.605 c 25.49912,-8.03342 62.8074,-26.2387 73.59671,-35.91288 3.69109,-3.30961 8.3792,-6.74314 10.41801,-7.63007 10.0126,-4.35572 47.41912,-37.47537 50.44252,-44.66167 0.98517,-2.34163 5.19141,-7.65566 9.3472,-11.80894 6.58942,-6.58544 17.59117,-24.06513 15.14665,-24.06513 -0.48408,0 -0.16962,-0.71052 0.69881,-1.57894 2.17167,-2.17168 1.98531,-4.1217 -0.30973,-3.24102 -1.03877,0.39862 -2.07496,0.1725 -2.30263,-0.50248 -0.99929,-2.96258 -23.23635,-4.16939 -62.73074,-3.40441 -22.17314,0.42947 -42.76842,1.14464 -45.76729,1.58927 l -5.45248,0.80841 -21.73412,43.62512 c -11.95378,23.9938 -26.67121,52.21063 -32.70542,62.70405 -12.79179,22.24477 -14.43152,25.65554 -13.50038,28.08206 0.86075,2.24305 9.38371,0.87015 24.85289,-4.00337 z m -182.29889,-1.61649 c 2.77684,-1.75759 0.19867,-7.66424 -25.31117,-57.98851 -12.28923,-24.24342 -25.36406,-50.0967 -29.0552,-57.45174 l -6.71116,-13.37279 -8.55263,-1.10089 c -14.52186,-1.86925 -94.89382,-1.38702 -98.35526,0.59013 -8.17961,4.67213 0.31472,17.16054 35.64208,52.40113 29.6732,29.60033 45.15461,41.57837 66.3316,51.32108 5.24671,2.41381 9.53947,4.9958 9.53947,5.73775 0,0.74196 0.86778,1.34901 1.9284,1.34901 2.02529,0 17.19721,7.88729 23.42405,12.17726 8.66234,5.96789 26.09495,9.51806 31.11982,6.33757 z m 81.68563,-214.678 v -69.6263 h -75.92105 c -44.10568,0 -76.42511,0.50405 -77.12387,1.20281 -2.70656,2.70656 3.79269,72.25689 7.76877,83.13604 1.16441,3.186 2.65288,10.78612 3.30771,16.88916 1.62529,15.14766 7.50016,36.6877 10.14467,37.19515 1.12541,0.21594 31.24616,0.49092 66.93499,0.61104 l 64.88878,0.21842 z m 133.30989,65.48486 c 3.29125,-3.29125 9.20936,-26.61743 12.15227,-47.8981 1.13242,-8.1888 2.85465,-16.80314 3.82718,-19.143 0.97253,-2.33985 2.44205,-9.82602 3.26563,-16.63593 0.82357,-6.80991 1.73975,-12.77378 2.03595,-13.25304 0.2962,-0.47926 0.90613,-7.63778 1.35541,-15.90782 0.62458,-11.49697 0.40456,-15.58885 -0.93463,-17.38322 -2.71089,-3.63224 -24.34882,-4.84425 -86.9196,-4.86864 l -54.93421,-0.0214 v 69.49246 69.49245 l 58.72619,-0.58707 c 57.06214,-0.57042 58.80268,-0.66355 61.42581,-3.28668 z m -287.33351,0.95004 c 6.43862,-2.57623 7.46876,-5.44125 4.82814,-13.42806 -1.96701,-5.94942 -10.17105,-47.10393 -15.39727,-77.23841 -1.38059,-7.96052 -2.89992,-20.31046 -3.3763,-27.44428 -0.71082,-10.64461 -1.34543,-13.41712 -3.53877,-15.46053 -2.54452,-2.37059 -5.68233,-2.48992 -65.47275,-2.48992 -39.9464,0 -62.959744,0.47046 -63.23873,1.29276 -1.224004,3.60776 1.267515,40.82797 3.12834,46.73355 1.14015,3.61842 2.78341,11.31579 3.65169,17.10527 2.04723,13.6505 13.01737,46.9656 19.18684,58.26833 2.65295,4.86031 5.49439,10.16455 6.3143,11.78719 l 1.49076,2.95027 53.59179,0.0105 c 45.98155,0.009 54.33592,-0.28747 58.83196,-2.08643 z m 432.01264,-1.53004 c 1.28214,-1.98557 4.36715,-6.45428 6.8556,-9.9305 8.16577,-11.4071 22.52311,-60.52056 30.95236,-105.88152 1.65053,-8.88209 2.57098,-16.57946 2.04545,-17.10526 -0.52552,-0.52579 -33.91625,-0.95599 -74.2016,-0.95599 h -73.2461 l -0.33675,5.26316 c -1.21398,18.97418 -6.2219,51.96771 -14.26617,93.98934 -2.55348,13.33888 -4.48129,26.488 -4.28401,29.22028 0.19728,2.73226 -0.0613,5.38771 -0.57457,5.901 -0.51327,0.51328 -0.93323,1.42666 -0.93323,2.02974 0,0.60306 28.27302,1.09273 62.82895,1.08817 l 62.82894,-0.008 2.33113,-3.61009 z M 226.5602,500.5355 c 0.37204,-1.26645 3.69338,-21.54605 7.38077,-45.06579 10.11752,-64.5341 13.0679,-81.70052 15.08685,-87.78101 1.44012,-4.33721 1.51258,-6.41394 0.33282,-9.53947 l -1.50807,-3.99531 H 190.938 134.02341 l -1.85664,3.61842 c -1.02116,1.99014 -4.81697,12.20395 -8.43513,22.69737 -3.61817,10.49342 -7.80103,21.44737 -9.29524,24.34211 -7.10823,13.77073 -15.320213,54.95017 -16.465237,82.56579 l -0.641039,15.46052 h 64.276816 c 60.08113,0 64.32097,-0.1503 64.95326,-2.30263 z M 398.42952,428.48398 V 354.1298 l -66.64409,0.34102 -66.6441,0.341 -1.90947,5.26316 c -3.82275,10.53684 -6.86303,23.83172 -6.88505,30.10785 -0.0137,3.90587 -0.98856,8.03168 -2.48713,10.52632 -1.67132,2.78217 -2.7086,7.79602 -3.22273,15.57761 -0.41698,6.31122 -1.4806,12.82437 -2.3636,14.47369 -0.883,1.6493 -2.05612,11.30414 -2.60692,21.4552 -0.85432,15.74451 -2.90541,32.00998 -5.92728,47.00406 l -0.72925,3.61842 h 79.7098 79.70982 z m 156.21248,50.341 c -0.48173,-16.81444 -1.31882,-25.94949 -2.79232,-30.47228 -1.25796,-3.86115 -2.10437,-10.96413 -2.10437,-17.65955 0,-8.38775 -0.52499,-11.78054 -2.09056,-13.51048 -2.87881,-3.18104 -4.24367,-9.75488 -5.78127,-27.8456 -1.32729,-15.61628 -3.41367,-23.07428 -7.81298,-27.92834 -1.32071,-1.45725 -2.67393,-3.5377 -3.00714,-4.62323 -0.52479,-1.70963 -8.55688,-2.01949 -60.03589,-2.31604 l -59.43006,-0.34235 v 74.35551 74.35551 h 71.87128 71.87128 z m 158.95693,12.83275 c -0.51223,-6.14923 -1.78929,-14.58673 -2.83793,-18.75 -1.04863,-4.16328 -3.04234,-13.84775 -4.43048,-21.52106 -1.38813,-7.6733 -3.70737,-16.95401 -5.15387,-20.6238 -1.4465,-3.66979 -3.04666,-9.82584 -3.5559,-13.68012 -0.50925,-3.85427 -1.98226,-8.48804 -3.27334,-10.29725 -1.29109,-1.80921 -2.96327,-6.74937 -3.71597,-10.97814 -1.80469,-10.13903 -8.62967,-23.78258 -15.47304,-30.93153 -3.02938,-3.16464 -5.83492,-6.60596 -6.23455,-7.64735 -0.49216,-1.28257 -2.74802,-1.89052 -6.99204,-1.88433 -3.446,0.005 -30.38883,-0.30752 -59.87295,-0.69454 l -53.60751,-0.70367 0.76681,6.354 c 0.42175,3.49468 1.27888,8.1303 1.90474,10.30135 1.08458,3.7623 4.19976,23.63413 13.24525,84.49182 2.23584,15.04265 4.01539,31.9391 3.95458,37.54765 l -0.11053,10.19737 h 73.15905 73.15906 l -0.93132,-11.1804 z M 254.48975,334.64228 c -0.4474,-0.72392 -0.29132,-1.51482 0.34685,-1.75755 1.70834,-0.64978 27.83056,-49.42259 41.11033,-76.75712 14.2204,-29.27071 17.3721,-37.0877 15.43576,-38.28442 -3.31072,-2.04614 -11.82762,-0.68289 -19.74267,3.1601 -11.52395,5.59521 -42.455,23.83014 -42.99394,25.34642 -0.24273,0.68291 -0.98704,0.90439 -1.65402,0.49217 -0.66699,-0.41222 -1.56662,0.1728 -1.99919,1.30003 -0.43255,1.12724 -1.32071,1.71935 -1.97368,1.31579 -0.65296,-0.40355 -1.54112,0.18856 -1.97369,1.31579 -0.43255,1.12724 -1.22686,1.77735 -1.76511,1.44469 -0.53827,-0.33266 -2.22778,0.5589 -3.75448,1.98124 -1.52671,1.42235 -3.15846,2.58608 -3.62612,2.58608 -1.71285,0 -31.8027,21.72934 -42.11031,30.40991 -20.447,17.21947 -38.65523,37.99547 -39.4221,44.98151 l -0.32942,3.00095 52.63263,0.39032 c 34.86332,0.25855 52.35799,-0.0541 51.81916,-0.92591 z m 143.93977,-65.49737 v -66.58797 l -20.06579,0.61058 c -21.31769,0.64866 -31.78083,2.83302 -36.58566,7.63786 -1.4075,1.40749 -2.77005,2.41104 -3.02789,2.23012 -1.09946,-0.77143 -13.46408,15.06966 -20.28378,25.98684 -7.90199,12.64972 -31.24258,58.5648 -39.06004,76.83798 -2.59966,6.07667 -4.98086,13.03391 -5.29154,15.46052 l -0.56488,4.41203 h 62.43979 62.43979 z m 123.68421,62.67184 c 0,-9.17824 -11.4088,-34.37428 -32.88873,-72.63392 -23.06451,-41.08208 -27.45784,-47.19555 -37.66056,-52.40595 -5.66324,-2.89214 -8.41204,-3.33221 -23.20071,-3.71436 L 411.58741,202.629 v 66.64468 66.64468 l 55.26316,-0.30032 55.26316,-0.30031 z m 132.64633,-0.16993 c 0.44602,-5.85367 -4.8632,-12.5538 -27.56583,-34.78741 -30.53428,-29.90346 -53.4488,-46.49519 -86.65945,-62.7475 -11.94079,-5.84348 -23.78289,-11.92143 -26.31579,-13.50657 -6.68202,-4.18175 -19.12943,-8.55668 -24.34517,-8.55668 -5.96558,0 -7.89192,3.33546 -5.00047,8.65829 3.35529,6.17673 8.29301,16.27459 8.29301,16.9596 0,0.34693 7.16797,16.18865 15.92883,35.20381 14.00738,30.40257 22.02121,48.64398 26.207,59.65343 l 1.24213,3.26704 58.95854,-0.11224 58.95854,-0.11223 0.29866,-3.91942 z"
       style="fill:#ffffff;fill-opacity:0.38844676;stroke-width:1.31578946" /><path
       transform="matrix(10.417019,0,0,10.417019,-247.7393,544.37931)"
       id="path63"
       d="m 398.42952,824.29398 c -21.35158,-0.88454 -60.64445,-4.42786 -71.15528,-6.41657 -15.77891,-2.98547 -32.43063,-9.5342 -61.00149,-23.9904 C 192.15863,756.38696 149.37988,712.44948 111.64899,635.07498 95.815277,602.6049 92.544516,590.13419 90.435763,554.19354 c -1.410731,-24.04387 0.39434,-110.66701 2.654846,-127.40278 0.896377,-6.63636 4.006644,-14.09563 15.636291,-37.5 25.83255,-51.98739 33.2186,-62.61457 68.64999,-98.77497 38.33483,-39.12358 51.01851,-48.88535 88.15789,-67.84916 33.90738,-17.31351 57.81408,-25.64325 85.18871,-29.68206 17.49303,-2.58089 53.99337,-2.57204 78.99345,0.0192 92.80254,9.61874 135.27066,29.86589 199.05789,94.90308 31.23394,31.84598 46.29766,52.3586 61.73677,84.0684 18.77952,38.57057 26.34034,72.14116 28.86573,128.16611 2.25045,49.92546 -1.66089,82.18255 -13.76826,113.54759 -6.68285,17.31245 -22.06699,47.25762 -30.84547,60.04064 -28.03887,40.82954 -80.02519,90.99235 -116.42482,112.34099 -20.5751,12.06746 -63.10916,28.658 -86.38824,33.696 -15.71572,3.40117 -49.89759,5.50609 -73.52102,4.52744 z m 44.73684,-11.16153 c 3.46589,-1.52769 7.68038,-4.885 10.16399,-8.09682 2.33362,-3.01783 6.58492,-8.4475 9.44734,-12.06592 8.21095,-10.37955 25.37318,-39.81605 39.50768,-67.76316 14.06503,-27.80973 20.28645,-43.51409 19.6046,-49.48673 -0.71498,-6.26277 -6.01497,-6.86691 -61.2894,-6.98632 l -49.01316,-0.10589 v 73.57456 c 0,57.59283 0.35727,73.73325 1.64474,74.30511 3.43858,1.52734 24.09632,-0.80165 29.93421,-3.37483 z M 398.42952,742.31182 V 668.62761 H 338.5611 278.69268 v 7.78989 c 0,10.6678 5.4074,25.59851 19.85684,54.8279 17.78806,35.983 42.57575,75.64109 45.96793,73.5446 0.55261,-0.34152 1.34425,0.26379 1.75921,1.34516 0.41496,1.08137 2.10529,1.9752 3.75631,1.98628 2.13519,0.0143 2.49746,0.33989 1.25482,1.12769 -1.25498,0.79562 -0.14327,1.90137 3.94737,3.92619 5.01533,2.48252 7.9302,2.81876 24.44436,2.81967 l 18.75,10e-4 z m 93.50218,61.89135 c 26.36191,-6.95547 66.58805,-26.15326 82.81361,-39.5225 3.25658,-2.6833 7.40131,-5.64255 9.21052,-6.57612 10.7801,-5.56257 45.8567,-36.65482 49.60594,-43.97118 1.14383,-2.23212 5.43927,-7.66329 9.54542,-12.06928 6.78916,-7.28493 17.24754,-24.22596 14.95564,-24.22596 -0.52201,0 -0.23858,-0.71052 0.62985,-1.57894 1.98719,-1.9872 2.07248,-4.14454 0.11605,-2.9354 -0.80461,0.49726 -1.89794,0.20022 -2.42963,-0.66009 -2.04108,-3.30251 -20.41925,-4.33111 -64.52853,-3.61154 -24.24342,0.39549 -45.4082,1.12213 -47.03283,1.61476 -2.29359,0.69549 -7.76079,10.49429 -24.45817,43.83609 -11.82735,23.61722 -26.16674,51.22986 -31.8653,61.36144 -13.69027,24.34018 -15.44344,27.92804 -14.44009,29.55147 1.26796,2.05161 6.97181,1.66467 17.87752,-1.21275 z M 315.53478,800.1289 c 0,-0.7664 0.67846,-0.97414 1.50769,-0.46164 3.77297,2.33182 -2.03169,-10.45785 -30.63654,-67.50284 l -30.49044,-60.80529 -6.04562,-1.03681 c -3.32509,-0.57025 -26.7693,-1.03682 -52.09825,-1.03682 -48.68735,0 -51.97368,0.38145 -51.97368,6.03269 0,7.11698 7.32063,16.50157 34.11791,43.73704 30.76519,31.26826 47.18981,44.40356 68.3241,54.64098 4.59969,2.22808 9.18442,4.73273 10.1883,5.56587 1.00389,0.83315 5.52998,3.26149 10.05799,5.39632 4.52801,2.13483 11.14178,5.74201 14.69725,8.01596 3.55548,2.27393 9.47653,5.17565 13.1579,6.44826 7.43768,2.57111 19.19339,3.18743 19.19339,1.00628 z m 82.89474,-214.39603 v -69.73684 h -76.35708 c -70.43809,0 -76.42316,0.17217 -77.20937,2.221 -1.01772,2.65216 1.68497,41.46943 4.24282,60.93689 0.99839,7.59869 3.03096,18.49932 4.51681,24.22363 1.48586,5.72432 2.70155,12.32233 2.70155,14.66227 0,6.24002 7.54903,35.08256 9.50757,36.32554 0.92216,0.58522 31.13388,1.07313 67.13717,1.08421 l 65.46053,0.0201 z m 133.23571,65.4485 c 2.9668,-2.9668 9.1978,-25.6267 11.48433,-41.76429 0.76902,-5.42763 2.81333,-16.38158 4.54287,-24.3421 4.50746,-20.74629 6.146,-32.23127 6.94946,-48.71081 0.57971,-11.89037 0.35222,-14.79467 -1.26386,-16.13589 -3.60006,-2.9878 -27.38099,-4.164 -84.88272,-4.1983 l -56.9079,-0.034 v 69.90635 69.90636 L 470.29,654.83137 c 56.56661,-0.9418 58.79985,-1.07462 61.37523,-3.65 z m -287.19771,0.8512 c 6.52198,-2.60958 7.46662,-5.61721 4.74802,-15.11738 -2.32492,-8.12443 -12.95067,-62.02249 -15.84309,-80.36244 -1.06406,-6.74699 -2.34233,-17.50527 -2.84058,-23.90731 -1.41814,-18.22207 5.1092,-16.64941 -69.1039,-16.64941 -58.67697,0 -62.869333,0.15192 -63.552032,2.30291 -1.200502,3.78244 1.465419,38.4816 3.664552,47.69709 1.12252,4.70395 2.95415,13.34864 4.07029,19.21042 2.99395,15.72379 10.45967,37.37306 18.67176,54.14484 l 7.24792,14.80263 h 53.81764 c 46.43338,0 54.54509,-0.29106 59.11942,-2.12135 z m 436.61758,-7.76962 c 5.24514,-7.76395 8.09248,-14.20122 13.24048,-29.93421 9.06357,-27.69941 19.12912,-69.1374 21.84336,-89.92492 l 0.87793,-6.72379 -4.21,-0.842 c -2.31548,-0.46311 -35.8136,-0.842 -74.44025,-0.842 h -70.23026 v 5.17204 c 0,9.47827 -5.28547,46.02669 -11.97479,82.80417 -3.63795,20.00124 -6.42432,38.88234 -6.19193,41.958 0.23239,3.07566 -0.0258,5.5921 -0.57379,5.5921 -0.54799,0 -0.99633,0.59211 -0.99633,1.31579 0,0.85887 21.87277,1.31579 62.98673,1.31579 h 62.98674 z M 231.60891,471.25919 c 11.79012,-73.79843 15.9487,-98.37774 17.54696,-103.71129 1.23004,-4.10475 1.33008,-6.75641 0.3599,-9.53948 l -1.34369,-3.8545 h -57.64233 -57.64233 l -1.99227,5.59211 c -9.60141,26.95017 -14.32685,39.59604 -17.19699,46.02127 -7.16787,16.04635 -14.359257,52.63125 -16.04435,81.62281 l -0.899347,15.47304 64.957237,-0.34146 64.95724,-0.34145 z M 398.42952,428.48398 V 354.1298 l -66.77632,0.34102 -66.77631,0.341 -3.63158,11.09567 c -1.99737,6.10262 -4.18845,15.99647 -4.86907,21.98634 -0.68062,5.98987 -2.08725,12.24682 -3.12585,13.90433 -1.03861,1.65751 -2.28465,7.7505 -2.76898,13.53997 -0.48433,5.78948 -1.68602,13.48685 -2.67044,17.10527 -0.98441,3.61842 -2.1601,13.53342 -2.61262,22.03333 -0.45253,8.4999 -1.97073,22.41438 -3.37378,30.92105 -1.40307,8.50667 -2.56329,15.91075 -2.5783,16.45351 -0.015,0.54276 35.79509,0.98684 79.57798,0.98684 h 79.60527 z m 156.17748,50.341 c -0.45826,-15.22087 -1.47313,-26.90378 -2.77177,-31.9079 -1.12686,-4.3421 -2.05807,-12.15366 -2.06937,-17.359 -0.0149,-6.83763 -0.71049,-10.67195 -2.50654,-13.81579 -2.85438,-4.99635 -3.48122,-8.20738 -5.41737,-27.75064 -1.54759,-15.62137 -2.39184,-18.58223 -7.62343,-26.73599 -2.39377,-3.73083 -4.78579,-5.79151 -7.33505,-6.319 -2.0806,-0.4305 -28.87336,-0.78274 -59.53948,-0.78274 h -55.75658 v 74.34211 74.3421 h 71.87128 71.87128 z m 159.54027,18.42105 c -0.13992,-10.90846 -8.5412,-54.51923 -12.91765,-67.05502 -1.44308,-4.13355 -3.0464,-10.35065 -3.56293,-13.81578 -0.51653,-3.46515 -1.73654,-7.52266 -2.71115,-9.01672 -0.9746,-1.49405 -2.94714,-7.31119 -4.38342,-12.927 -3.28946,-12.86165 -8.10254,-21.80851 -16.48471,-30.64281 l -6.57894,-6.93382 -12.7771,-1.35047 c -7.02739,-0.74278 -33.85643,-1.35049 -59.62009,-1.35049 h -46.84301 l 0.85873,6.25 c 0.47231,3.4375 1.36877,8.32237 1.99212,10.85527 1.29004,5.24172 11.90986,75.53577 15.00007,99.28744 1.12595,8.65416 2.04717,19.46008 2.04717,24.01316 v 8.27834 h 73.02632 73.02631 l -0.0717,-5.5921 z M 269.76012,307.16746 c 15.72633,-29.26083 39.05088,-76.51488 41.61794,-84.31527 1.32372,-4.02236 1.18648,-4.41847 -1.94298,-5.60829 -4.07698,-1.55007 -11.39206,0.20208 -20.85194,4.99455 -12.64708,6.40714 -48.04836,28.07676 -48.04836,29.41107 0,0.73916 -0.58714,0.98105 -1.30476,0.53753 -0.71762,-0.44351 -2.71373,0.55773 -4.4358,2.22498 -1.72208,1.66725 -3.76136,3.16671 -4.53174,3.33213 -2.28329,0.49027 -29.06588,19.83242 -39.7277,28.69099 -12.83305,10.66257 -31.83415,30.4287 -36.84216,38.32551 -7.25322,11.43714 -10.83585,10.63187 48.35532,10.86884 l 52.30263,0.2094 z m 128.6694,-38.03916 v -66.60458 l -20.72369,0.64818 c -14.96094,0.46793 -22.46193,1.27791 -26.97468,2.91281 -3.43805,1.24555 -5.96411,2.72884 -5.61346,3.2962 0.35064,0.56735 -1.05453,1.36997 -3.12261,1.78359 -4.42756,0.88551 -13.4775,11.69696 -24.53776,29.31391 -7.89333,12.57261 -35.05325,66.75214 -40.60749,81.0052 -6.18305,15.86665 -12.88901,14.24926 59.07969,14.24926 h 62.5 z m 123.68421,61.94829 c 0,-6.14517 -4.47644,-17.51626 -15.77842,-40.08056 -20.8147,-41.55629 -46.75757,-83.95524 -49.61919,-81.09362 -0.33614,0.33614 -1.70759,-0.48526 -3.04765,-1.82533 -3.79958,-3.79958 -11.2249,-5.22365 -27.27843,-5.23161 l -14.80263,-0.007 v 66.48566 66.48565 l 55.26316,-0.11935 55.26316,-0.11934 v -4.49418 z m 120.8505,3.80136 c 11.62842,-0.82541 12.04424,-0.96487 12.04424,-4.03925 0,-5.1897 -6.43504,-13.04363 -27.81424,-33.94711 -32.93638,-32.2035 -51.25113,-45.18542 -95.21208,-67.48858 -28.4888,-14.45352 -35.52754,-17.35435 -42.10958,-17.35435 -7.75503,0 -8.13384,2.56919 -2.17732,14.76701 7.63381,15.63254 37.24202,81.11947 42.99766,95.10141 2.68112,6.51316 5.13916,12.28618 5.46229,12.82895 0.71959,1.20868 90.08454,1.31905 106.80903,0.13192 z"
       style="fill:#ffffff;fill-opacity:0.38844676;stroke-width:1.31578946" /><path
       transform="matrix(10.417019,0,0,10.417019,-247.7393,544.37931)"
       id="path65"
       d=""
       style="fill:#ffffff;fill-opacity:0.38844676;stroke-width:1.31578946" /><path
       transform="matrix(10.417019,0,0,10.417019,-247.7393,544.37931)"
       id="path67"
       d=""
       style="fill:#ffffff;fill-opacity:0.38844676;stroke-width:1.31578946" /><path
       transform="matrix(10.417019,0,0,10.417019,-247.7393,544.37931)"
       id="path69"
       d="m 238.11096,418.62761 c 0,-1.80921 0.29865,-2.54935 0.66366,-1.64474 0.36502,0.90461 0.36502,2.38487 0,3.28947 -0.36501,0.90461 -0.66366,0.16448 -0.66366,-1.64473 z"
       style="fill:#ffffff;fill-opacity:0.38844676;stroke-width:1.31578946" /><path
       transform="matrix(10.417019,0,0,10.417019,-247.7393,544.37931)"
       id="path71"
       d=""
       style="fill:#ffffff;fill-opacity:0.38844676;stroke-width:1.31578946" /><path
       transform="matrix(10.417019,0,0,10.417019,-247.7393,544.37931)"
       id="path73"
       d="m 566.35822,456.62639 c -1.19815,-5.99076 -2.64119,-26.94242 -1.80154,-26.15668 0.90555,0.84741 3.93252,29.06313 3.19681,29.79884 -0.30563,0.30563 -0.9335,-1.33334 -1.39527,-3.64216 z"
       style="fill:#ffffff;fill-opacity:0.38844676;stroke-width:1.31578946" /><path
       transform="matrix(10.417019,0,0,10.417019,-247.7393,544.37931)"
       id="path75"
       d="m 565.04131,450.20655 c 1.07008,-7.37019 1.81555,-8.42101 1.78911,-2.52193 -0.0111,2.47259 -0.61159,5.38378 -1.33446,6.4693 -0.91844,1.37921 -1.05538,0.19025 -0.45465,-3.94737 z"
       style="fill:#ffffff;fill-opacity:0.38844676;stroke-width:1.31578946" /><path
       transform="matrix(10.417019,0,0,10.417019,-247.7393,544.37931)"
       id="path77"
       d="m 573.41543,484.74603 c -0.0302,-27.51676 -5.84548,-67.36601 -15.20035,-104.16068 -3.211,-12.62958 -5.83819,-23.15119 -5.83819,-23.38136 0,-0.23017 26.09248,-0.41849 57.98328,-0.41849 h 57.98329 l 8.3329,17.43421 c 18.04643,37.757 28.14655,74.33165 30.51747,110.51009 l 0.84179,12.84518 h -67.30305 -67.30305 z"
       style="fill:#ffffff;fill-opacity:0.38844676;stroke-width:1.31578946" /><path
       transform="matrix(10.417019,0,0,10.417019,-247.7393,544.37931)"
       id="path79"
       d="m 573.42952,485.03755 c 0,-27.63709 -6.28935,-70.11317 -15.83415,-106.93828 -2.87017,-11.07347 -5.21848,-20.39913 -5.21848,-20.72368 0,-0.32455 26.09152,-0.59009 57.98116,-0.59009 h 57.98116 l 8.97793,18.75 c 10.60923,22.15689 16.81004,39.31009 22.28106,61.63589 4.20317,17.15202 8.04184,42.87667 8.04184,53.89203 v 6.51156 h -67.10526 -67.10526 z"
       style="fill:#ffffff;fill-opacity:0.38844676;stroke-width:1.31578946" /><path
       transform="matrix(10.417019,0,0,10.417019,-247.7393,544.37931)"
       id="path81"
       d="m 573.42952,485.03755 c 0,-27.63709 -6.28935,-70.11317 -15.83415,-106.93828 -2.87017,-11.07347 -5.21848,-20.39913 -5.21848,-20.72368 0,-0.32455 26.09152,-0.59009 57.98116,-0.59009 h 57.98116 l 9.01814,18.75 c 9.92505,20.6356 17.91022,42.93921 22.96519,64.14474 3.6139,15.16026 7.3175,41.16681 7.3175,51.38318 v 6.51156 h -67.10526 -67.10526 z"
       style="fill:#ffffff;fill-opacity:0.38844676;stroke-width:1.31578946" /><path
       transform="matrix(10.417019,0,0,10.417019,-247.7393,544.37931)"
       id="path83"
       d="m 397.77162,824.3639 c -2.89473,-0.22015 -15.03289,-1.05198 -26.97368,-1.84849 -47.66944,-3.17982 -60.17665,-6.52259 -101.31579,-27.0785 C 198.87719,760.15788 158.72481,722.1125 122.36546,656.04017 97.546918,610.93986 91.98668,592.06586 89.830406,545.60129 c -0.922717,-19.88321 1.425305,-106.7152 3.208202,-118.64221 2.200295,-14.71929 34.299292,-77.35463 51.185372,-99.87892 10.41674,-13.89485 52.50627,-57.21364 69.33712,-71.36214 16.6254,-13.97581 27.73271,-20.84146 57.89473,-35.78592 27.53402,-13.64235 45.5109,-20.33653 67.27727,-25.05253 16.38719,-3.55053 60.56501,-4.96108 84.15485,-2.68698 94.41979,9.10223 136.87396,27.89818 197.69019,87.52441 38.47306,37.72026 57.99675,64.36126 74.3181,101.41061 15.75221,35.7574 21.90348,65.53576 24.51729,118.68862 3.26409,66.37638 -4.79004,103.55903 -33.82189,156.14201 -19.03279,34.4725 -58.84182,78.66933 -101.63581,112.83822 -21.60113,17.24744 -54.96138,33.76838 -92.10526,45.61315 -18.95387,6.04417 -30.32605,7.98064 -55.39412,9.43262 -22.22625,1.28736 -27.65445,1.36056 -38.68483,0.52167 z m 31.82995,-8.31135 c 11.05726,-1.27148 21.45953,-5.33831 21.45953,-8.38972 0,-0.93542 1.83397,-3.43984 4.0755,-5.56537 15.85244,-15.03208 63.19231,-102.43442 66.42233,-122.63377 0.77068,-4.81965 0.50284,-5.54645 -2.85552,-7.74836 -3.41459,-2.23879 -7.77126,-2.46314 -55.41098,-2.85349 l -51.70502,-0.42365 v 73.68243 c 0,69.06733 0.14423,73.72014 2.30263,74.28418 3.69306,0.96511 4.39158,0.94944 15.71153,-0.35225 z m -31.17205,-73.74073 v -73.68421 h -59.71496 c -68.12703,0 -61.96625,-1.28571 -59.80736,12.48138 1.66916,10.6441 8.62678,27.95163 21.61412,53.76654 17.50947,34.80352 39.13692,69.27839 43.46109,69.27839 0.82973,0 1.80827,1.1459 2.17452,2.54644 0.49807,1.90467 1.41763,2.34984 3.64868,1.7664 1.90624,-0.49848 2.67516,-0.28225 2.13043,0.59912 -0.91473,1.48008 3.51254,4.89841 7.73253,5.97036 1.41721,0.35999 10.71818,0.72321 20.66884,0.80716 l 18.09211,0.15263 z m 105.58842,57.92704 c 21.16434,-7.03073 55.36003,-24.05691 68.6657,-34.18895 5.74109,-4.37174 10.89158,-7.94862 11.44554,-7.94862 1.55325,0 25.67442,-19.58974 36.26694,-29.4538 5.20663,-4.84857 10.79942,-11.01088 12.42842,-13.69404 1.629,-2.68316 6.1414,-8.42688 10.02756,-12.76382 6.78892,-7.57642 14.74754,-19.85812 15.29784,-23.60755 0.14484,-0.98684 1.12555,-2.85301 2.17935,-4.14704 1.71095,-2.10096 1.67679,-2.26318 -0.31914,-1.51571 -1.22934,0.46038 -4.18987,-0.16889 -6.57895,-1.39838 -3.85395,-1.98336 -9.68543,-2.23204 -51.71221,-2.20522 -26.05263,0.0166 -50.07208,0.48067 -53.37655,1.03119 l -6.00815,1.00098 -18.33396,36.379 c -10.08368,20.00846 -22.99886,45.00494 -28.7004,55.54776 -5.70153,10.5428 -12.99702,24.04188 -16.21219,29.99793 -3.21516,5.95607 -5.42745,11.50603 -4.91618,12.33327 1.49589,2.42042 12.19656,0.49622 29.84638,-5.367 z M 315.53478,800.1289 c 0,-0.7664 0.59211,-1.0275 1.31579,-0.58024 0.72368,0.44726 1.31579,0.18987 1.31579,-0.57199 0,-3.00148 -13.20093,-30.62401 -37.27912,-78.00533 l -25.22088,-49.62993 -5.92105,-1.02622 c -3.25658,-0.56443 -26.64474,-1.027 -51.97369,-1.02796 -49.40964,-10e-4 -51.97368,0.31751 -51.97368,6.47357 0,5.2696 10.10075,18.57003 28.78464,37.90291 31.05624,32.13502 53.07906,50.06416 73.85981,60.13049 4.48834,2.17418 8.95879,4.61547 9.93431,5.42509 0.97553,0.80962 5.84248,3.42195 10.81544,5.80517 4.97296,2.38323 11.64486,5.97642 14.82647,7.98488 3.18161,2.00846 8.7618,4.72416 12.40045,6.03491 7.28855,2.62553 19.11572,3.29662 19.11572,1.08465 z m 82.89474,-214.39603 v -69.73684 h -75.92105 c -45.43939,0 -76.4159,0.49484 -77.15356,1.2325 -2.71458,2.71458 3.21365,65.08525 8.25256,86.82488 1.43859,6.20659 3.53201,16.61367 4.65203,23.12683 3.03557,17.65229 5.71165,25.63437 9.04497,26.97891 1.55956,0.62906 31.70071,1.18129 66.98031,1.22715 l 64.14474,0.0834 z m 108.86791,68.42105 h 20.28189 l 3.6635,-3.6635 c 4.03732,-4.03731 8.62683,-20.7048 12.57795,-45.6786 1.14495,-7.23684 2.9177,-16.41448 3.93943,-20.39474 4.61458,-17.97629 8.69605,-59.33976 6.20894,-62.9241 -2.64508,-3.81199 -12.72283,-4.48318 -76.9212,-5.12295 l -65.46053,-0.65236 v 70.08783 70.08784 l 37.71407,-0.86971 c 20.74274,-0.47834 46.84092,-0.86971 57.99595,-0.86971 z M 246.0329,652.67375 c 1.21476,-0.21974 2.12514,-0.71672 2.02309,-1.10442 -0.1021,-0.38768 0.54761,-2.02671 1.4437,-3.64228 1.34016,-2.41621 1.17146,-4.75086 -0.95076,-13.15789 -6.324,-25.05212 -16.43424,-81.77604 -17.98758,-100.92011 -1.53182,-18.87873 5.23602,-17.12973 -67.99766,-17.57242 -49.76955,-0.30083 -62.701769,-0.0329 -63.826688,1.32258 -1.837181,2.21367 0.187165,36.52699 2.855218,48.39682 1.05733,4.70395 3.22092,14.47368 4.80798,21.71052 3.88669,17.72302 10.51167,36.65515 18.55559,53.02608 l 6.65902,13.55241 56.10472,-0.60588 c 30.85761,-0.33322 57.09862,-0.78566 58.31337,-1.00541 z m 434.27412,-7.40141 c 6.80031,-10.21635 10.71867,-19.58781 17.46729,-41.77631 8.87883,-29.19233 20.60034,-83.78163 18.4516,-85.93265 -0.49968,-0.50019 -34.01748,-1.0809 -74.48402,-1.29046 l -73.57553,-0.38098 v 5.81997 c 0,9.4265 -4.78604,42.58851 -11.92079,82.598 -3.66268,20.53921 -6.45995,39.56441 -6.21613,42.27822 0.24381,2.71382 -0.0513,4.93421 -0.65596,4.93421 -0.60459,0 -0.73333,0.59211 -0.28607,1.31579 0.52359,0.8472 22.98162,1.31579 63.06048,1.31579 h 62.24727 z M 226.58914,500.5355 c 0.38794,-1.26645 4.56481,-26.57895 9.2819,-56.25 4.71711,-29.67105 9.85236,-60.53033 11.41168,-68.57618 1.56655,-8.08313 2.44618,-16.17846 1.96589,-18.09211 l -0.86922,-3.46329 h -57.60511 -57.60511 l -6.38564,17.43421 c -3.5121,9.58882 -8.9135,23.94737 -12.00311,31.9079 -6.3743,16.42367 -8.83606,25.31946 -12.44969,44.98808 -2.27876,12.40302 -5.217001,40.89993 -5.217001,50.59773 v 3.75629 h 64.385011 c 60.17316,0 64.43116,-0.15063 65.0904,-2.30263 z M 398.42952,428.48398 V 354.1298 l -66.57952,0.34102 -66.57952,0.341 -2.286,6.02275 c -3.21494,8.47014 -5.24294,17.01546 -6.63688,27.96564 -0.66042,5.18796 -2.06029,11.20898 -3.11081,13.38003 -1.05052,2.17105 -2.32811,8.66137 -2.83909,14.42292 -0.51098,5.76155 -1.47485,11.9111 -2.14195,13.66568 -0.66709,1.75458 -1.80446,10.95507 -2.5275,20.44552 -1.22175,16.03669 -3.94061,37.82047 -5.9719,47.84746 l -0.86631,4.27631 h 79.76974 79.76974 z m 156.5716,59.55152 c -0.007,-14.16337 -1.46489,-23.79924 -3.82108,-25.25543 -0.60467,-0.37371 -0.79482,7.30226 -0.42257,17.05772 l 0.67682,17.73719 H 483.48453 415.53478 V 427.18024 356.7855 h 53.94737 c 35.08772,0 53.94737,-0.45999 53.94737,-1.31579 0,-0.85655 -19.51754,-1.31579 -55.92105,-1.31579 h -55.92106 v 74.34211 74.3421 h 71.71053 71.71053 l -0.008,-14.80263 z m 158.66725,4.60526 c -1.09952,-12.27281 -9.00598,-51.81784 -12.56173,-62.82894 -1.40217,-4.34211 -2.95425,-10.26316 -3.44906,-13.1579 -0.4948,-2.89473 -1.92342,-7.33552 -3.17469,-9.86842 -1.25128,-2.53289 -3.01507,-7.86184 -3.91954,-11.8421 -2.36658,-10.41446 -9.0322,-23.41025 -15.44128,-30.10548 -3.04935,-3.1855 -5.74076,-6.38126 -5.98091,-7.10169 -0.62505,-1.87516 -5.95076,-2.11835 -66.57505,-3.03999 l -54.41604,-0.82728 0.89112,5.73459 c 0.49012,3.15402 1.70439,9.87932 2.69838,14.94511 0.994,5.06579 2.20765,12.28317 2.69701,16.03863 0.50814,3.89954 1.6681,7.12679 2.7045,7.5245 0.99811,0.38301 1.88481,1.75115 1.97042,3.04032 0.0857,1.28915 0.56048,0.5676 1.05522,-1.60345 0.72821,-3.19561 1.45476,-1.06559 3.81498,11.18421 3.77427,19.58889 6.80505,42.50024 6.61415,50 -0.11711,4.60289 -0.40591,3.72413 -1.29703,-3.94737 -0.63046,-5.42763 -2.03134,-14.32274 -3.11307,-19.76691 -1.08172,-5.44415 -2.0625,-11.66126 -2.17951,-13.81579 -0.11697,-2.15451 -0.61063,0.52349 -1.09692,5.95112 -0.64417,7.1899 -0.0555,15.93975 2.16878,32.23684 1.67912,12.30264 3.06088,26.66119 3.0706,31.9079 l 0.0177,9.53947 h 73.2078 73.20781 z M 550.3301,454.88492 c -0.49537,-2.64059 -1.16385,-4.53792 -1.48548,-4.21627 -0.32164,0.32163 -0.17948,2.74527 0.3159,5.38585 0.49537,2.64059 1.16384,4.53792 1.48547,4.21628 0.32165,-0.32163 0.17949,-2.74528 -0.31589,-5.38586 z m -2.31232,-17.52266 c -0.32933,-1.25801 -0.58684,0.0812 -0.57224,2.97587 0.0146,2.89474 0.28407,3.92402 0.59879,2.28729 0.31473,-1.63672 0.30278,-4.00514 -0.0266,-5.26316 z m 0.87169,-10.22631 c 0.63247,-4.61445 0.21606,-7.23566 -1.76698,-11.12275 -1.42696,-2.79705 -2.98487,-8.40729 -3.46202,-12.4672 -0.53303,-4.53516 -1.42981,-7.18189 -2.32558,-6.86366 -1.75898,0.6249 -1.70989,1.27683 1.12863,14.98824 3.11898,15.06628 3.12138,15.08053 3.23375,19.20574 0.15188,5.57641 2.25256,3.115 3.1922,-3.74037 z m 12.25357,1.68903 c -0.36501,-0.90461 -0.66367,-0.16448 -0.66367,1.64473 0,1.80921 0.29866,2.54934 0.66367,1.64474 0.36502,-0.90461 0.36502,-2.38487 0,-3.28947 z m -1.28838,-7.8125 c -0.42002,-1.04965 -0.73181,-0.73787 -0.79494,0.79496 -0.0571,1.38705 0.25385,2.16419 0.69107,1.72697 0.43723,-0.43724 0.48396,-1.57211 0.10382,-2.52193 z m 2.63158,-9.21053 c -0.42002,-1.04965 -0.73181,-0.73787 -0.79495,0.79496 -0.0571,1.38705 0.25386,2.1642 0.69108,1.72697 0.43723,-0.43723 0.48396,-1.5721 0.10382,-2.52193 z m -1.3432,-6.66119 c -0.36501,-0.9046 -0.66367,-0.16447 -0.66367,1.64474 0,1.80921 0.29866,2.54934 0.66367,1.64474 0.36502,-0.90461 0.36502,-2.38487 0,-3.28948 z m -3.94736,-2.63157 c -0.36502,-0.90461 -0.66368,-0.16448 -0.66368,1.64473 0,1.80921 0.29866,2.54934 0.66368,1.64474 0.36501,-0.90461 0.36501,-2.38487 0,-3.28947 z m -17.52264,-9.59623 c -0.42854,-1.11673 -1.06135,-1.74823 -1.40625,-1.40333 -0.3449,0.34491 -0.23681,1.25861 0.2402,2.03044 1.29744,2.09929 2.05576,1.69146 1.16605,-0.62711 z m -1.22551,-8.16693 c -0.95913,-5.31324 -3.03225,-10.12173 -3.96271,-9.19127 -0.96957,0.96957 2.48018,14.12548 3.70399,14.12548 0.63218,0 0.7486,-2.2204 0.25872,-4.93421 z m 0.77146,-14.71782 c 0,-1.30073 -7.85434,-13.06243 -9.33338,-13.97652 -1.40787,-0.87012 -1.48097,0.28048 -0.37057,5.8325 0.45231,2.26151 1.63652,4.11184 2.63158,4.11184 0.99507,0 1.80921,1.08552 1.80921,2.41227 0,1.32677 0.35394,2.76623 0.78654,3.19882 0.96691,0.96692 4.47662,-0.27096 4.47662,-1.57891 z M 258.06873,328.88805 c 35.30684,-66.19484 53.4265,-102.99038 53.48689,-108.61571 0.0232,-2.16019 -0.76855,-2.9999 -2.92873,-3.10617 -5.84479,-0.28754 -9.62694,0.40939 -15.0241,2.76845 -7.76382,3.39352 -49.21211,27.73183 -52.03521,30.55493 -1.29172,1.29172 -2.36742,1.9045 -2.39043,1.36174 -0.023,-0.54276 -0.91118,0.16251 -1.97368,1.56728 -1.06252,1.40476 -1.95068,1.99687 -1.97369,1.31579 -0.023,-0.68108 -0.93667,-0.0541 -2.03033,1.39325 -1.09366,1.44737 -2.31458,2.40341 -2.71314,2.12454 -1.05929,-0.74116 -22.38758,14.2821 -37.2624,26.24697 -22.3501,17.97776 -44.80152,43.62367 -42.7866,48.87447 0.63145,1.64556 8.3692,1.9721 52.32715,2.20828 l 51.58611,0.27716 z m 140.36079,-59.76254 v -66.60735 l -20.06579,0.65984 c -19.99233,0.65743 -34.92126,3.49234 -33.18503,6.30163 0.426,0.68928 -0.42263,1.25324 -1.88584,1.25324 -3.70658,0 -12.10659,9.05372 -21.35151,23.01316 -8.43753,12.7403 -36.05582,66.44396 -43.7831,85.13604 -7.8048,18.87959 -14.76032,16.8508 57.77127,16.8508 h 62.5 z m 123.68421,62.70598 c 0,-5.85536 -3.23829,-14.62804 -12.52811,-33.93923 -16.15122,-33.57436 -43.14471,-79.76185 -50.48125,-86.37648 -1.52906,-1.37861 -2.78012,-2.09567 -2.78012,-1.59348 0,0.5022 -1.23381,-0.23639 -2.74181,-1.64131 -4.07554,-3.79694 -12.57419,-5.44286 -28.104,-5.44286 h -13.89103 v 66.44737 66.44737 h 55.26316 55.26316 z m 132.35918,0.59288 c 1.32386,-5.27463 -3.26859,-11.38704 -24.28275,-32.31962 -34.88581,-34.75037 -53.58031,-48.05406 -101.08787,-71.9379 -27.18213,-13.66548 -31.27011,-15.34585 -37.46447,-15.39977 -5.66797,-0.0493 -7.04046,0.37659 -7.42603,2.30454 -0.26013,1.30079 9.14832,23.50474 20.90768,49.34211 11.75935,25.83737 22.82156,50.52967 24.58269,54.87177 1.76113,4.34211 4.01271,9.84816 5.00352,12.23567 l 1.80146,4.34095 58.60804,-0.22537 58.60805,-0.22535 z"
       style="fill:#ffffff;fill-opacity:0.38844676;stroke-width:1.31578946" /><path
       transform="matrix(10.417019,0,0,10.417019,-247.7393,544.37931)"
       id="path85"
       d="m 369.48215,822.52312 c -45.72837,-3.88726 -60.41908,-7.72975 -95.32188,-24.93229 -51.10384,-25.18757 -87.6606,-52.63393 -114.81279,-86.20007 -20.24999,-25.03347 -48.50957,-73.79003 -58.49271,-100.91813 -8.476832,-23.03483 -9.27708,-29.73359 -9.959436,-83.36897 -0.347207,-27.29166 0.01391,-60.78311 0.820165,-76.06588 1.669524,-31.64619 1.49087,-31.0537 20.881781,-69.25228 21.9649,-43.26916 29.7119,-54.40738 59.8851,-86.09961 38.48478,-40.42225 56.70228,-54.45627 96.34187,-74.21785 46.9234,-23.39278 74.74698,-30.49307 119.35604,-30.45844 46.82181,0.0363 104.09386,9.44896 137.22291,22.55246 34.08778,13.4827 61.13333,32.6413 98.12409,69.50941 34.35644,34.24252 50.55569,55.83019 66.30452,88.3597 21.06101,43.50192 27.81555,75.84307 29.27167,140.15467 1.34185,59.26521 -4.39624,86.77223 -27.68179,132.69966 -15.18369,29.94769 -34.65986,55.58865 -65.97616,86.85961 -44.0953,44.03146 -73.44541,62.58363 -128.3318,81.11839 -27.55109,9.30382 -35.56155,10.44529 -76.97369,10.96855 -20.26315,0.25603 -43.05921,-0.063 -50.65789,-0.70893 z m 70.15529,-7.97968 c 13.59097,-3.5944 38.08738,-39.25465 66.11759,-96.24964 11.04129,-22.45072 16.3587,-35.88789 16.3587,-41.33872 0,-1.81199 -1.41161,-3.92922 -3.558,-5.33662 -3.22469,-2.11439 -8.402,-2.37152 -55.26316,-2.74468 l -51.70516,-0.41173 v 73.65735 c 0,57.65254 0.35738,73.81872 1.64474,74.40008 2.23543,1.00948 20.19974,-0.33487 26.40529,-1.97604 z m -41.20792,-72.23162 v -73.68421 h -59.77444 -59.77443 l -0.0137,7.56579 c -0.0196,10.83806 5.77984,27.09058 19.60255,54.93421 18.76473,37.79859 40.0336,71.78652 46.13397,73.72271 1.38065,0.43819 2.51026,1.34893 2.51026,2.02385 0,0.67491 1.33224,1.23619 2.96053,1.24727 2.11278,0.0143 2.46028,0.3373 1.21354,1.12769 -1.25499,0.79562 -0.14328,1.90137 3.94737,3.92619 5.01533,2.48252 7.9302,2.81876 24.44435,2.81967 l 18.74998,10e-4 z m 100.65789,59.76688 c 15.23631,-4.96586 30.73048,-11.54319 48.42228,-20.55542 14.50768,-7.39024 22.4347,-12.6483 48.94614,-32.46641 13.06225,-9.76443 34.33948,-29.55212 36.7729,-34.19857 0.9988,-1.90714 5.41524,-7.61227 9.8143,-12.67806 8.84563,-10.18629 15.9619,-22.3687 15.39796,-26.35995 -0.86571,-6.1272 -4.57122,-6.53737 -58.69568,-6.4971 -27.86184,0.0208 -52.2685,0.47164 -54.23703,1.00205 -3.12667,0.84245 -5.97883,5.74467 -22.56149,38.7781 -10.44029,20.79756 -22.67351,44.62295 -27.18493,52.94532 -18.73214,34.55582 -22.481,42.11603 -21.59487,43.5498 1.33169,2.15471 12.2349,0.61475 24.92042,-3.51976 z m -183.55263,-1.9498 c 0,-0.7664 0.67846,-0.97414 1.50769,-0.46164 3.72939,2.30489 -1.99136,-10.31961 -30.59686,-67.5209 l -30.41684,-60.82336 -4.78646,-1.01875 c -2.63257,-0.56031 -26.10227,-1.01875 -52.1549,-1.01875 -50.05915,0 -53.28947,0.36491 -53.28947,6.01976 0,7.72818 13.31428,23.83379 45.60365,55.16445 22.82913,22.1513 35.50203,31.94579 54.56476,42.17134 6.78238,3.63819 13.21975,7.12828 14.30527,7.75577 13.14463,7.5983 33.34433,17.99304 37.5,19.29744 6.54229,2.05354 17.76316,2.3281 17.76316,0.43464 z m 82.89474,-214.40664 v -69.74744 l -76.64474,0.33955 -76.64474,0.33955 -0.41284,6.53911 c -0.52056,8.24523 3.32034,52.06585 5.71232,65.17142 7.56504,41.44855 12.34337,61.72179 15.22739,64.60581 2.38808,2.38808 5.40153,2.49945 67.63103,2.49945 h 65.13158 z m 133.02229,64.65241 c 3.78934,-4.11002 8.59113,-21.45076 12.98108,-46.87864 1.37433,-7.96053 3.40247,-18.61842 4.50698,-23.68421 5.42298,-24.8722 7.68216,-56.89128 4.21702,-59.76709 -3.29979,-2.73857 -30.55245,-4.00543 -86.63527,-4.02729 l -54.93421,-0.0214 v 69.93933 69.93933 l 58.22369,-0.89693 58.22368,-0.8969 z m -290.66475,2.94716 c 2.67164,-0.44172 6.1403,-1.99821 7.70812,-3.45885 3.22538,-3.0049 3.2478,-2.70873 -1.91715,-25.31432 -5.70585,-24.97299 -12.58713,-63.40701 -14.69262,-82.06278 -2.70941,-24.00681 -2.52219,-23.36709 -7.32852,-25.04258 -2.78786,-0.97185 -24.15649,-1.44727 -65.05084,-1.44727 -59.12195,0 -60.922847,0.0745 -61.709609,2.55338 -1.537097,4.84296 1.961016,39.29728 5.903889,58.14975 5.02502,24.02666 11.50256,43.89495 20.42612,62.65213 l 7.04222,14.80263 52.38042,-0.0145 c 28.80924,-0.008 54.56632,-0.37588 57.23797,-0.81761 z m 439.76348,-8.21046 c 7.77718,-11.27966 15.7354,-33.40642 24.43249,-67.93113 7.28841,-28.93275 12.84078,-58.01761 11.35884,-59.50078 -0.56358,-0.56405 -34.04692,-1.19239 -74.40743,-1.39633 l -73.38274,-0.3708 -0.89843,10.89712 c -1.12998,13.70537 -5.77025,44.40399 -12.48663,82.60763 -4.38575,24.94675 -6.13183,38.74008 -5.53825,43.75 0.0643,0.54276 28.14529,0.98684 62.40218,0.98684 h 62.28526 z M 233.56666,459.41708 c 3.77024,-23.51974 9.02763,-55.30299 11.68311,-70.62945 2.70772,-15.62804 4.45516,-29.35233 3.97887,-31.25 l -0.84925,-3.38371 H 190.6532 132.92703 l -5.59301,15.46053 c -3.07615,8.50329 -8.13291,21.97368 -11.23725,29.93421 -3.10433,7.96053 -6.87751,18.7103 -8.38483,23.88838 -4.08876,14.04604 -9.069357,45.36216 -10.091761,63.45312 l -0.902708,15.973 64.997119,-0.34146 64.99711,-0.34146 z m 164.86286,-30.9331 V 354.1298 l -66.77632,0.34102 -66.77631,0.341 -3.55644,10.86075 c -1.95605,5.97341 -4.20371,15.58805 -4.9948,21.36588 -0.79109,5.77783 -2.23384,12.43654 -3.20612,14.79714 -0.97228,2.36061 -2.18242,8.1407 -2.68922,12.84465 -0.50679,4.70395 -1.46253,10.92105 -2.12384,13.81579 -0.66131,2.89473 -2.10347,15.19163 -3.20478,27.32642 -1.10132,12.1348 -2.86455,26.93743 -3.9183,32.89474 -1.05375,5.95731 -1.92682,11.5716 -1.94015,12.47621 -0.0191,1.29793 16.76107,1.64473 79.58101,1.64473 h 79.60527 z m 156.14377,50.341 c -0.4886,-14.19135 -1.63664,-27.24225 -2.80681,-31.9079 -1.08904,-4.3421 -1.98932,-11.92393 -2.00062,-16.8485 -0.014,-6.05967 -0.85583,-10.78732 -2.60472,-14.62638 -1.42129,-3.11994 -3.30424,-11.08087 -4.18431,-17.69096 -0.88008,-6.61011 -2.08561,-12.01837 -2.67898,-12.01837 -0.59337,0 -1.07886,-1.66314 -1.07886,-3.69588 0,-2.03274 -0.86933,-4.84524 -1.93184,-6.25 -1.0625,-1.40476 -1.92749,-3.73833 -1.92217,-5.1857 0.007,-1.80553 0.65983,-1.186 2.08095,1.97369 1.18055,2.62478 2.34505,3.87455 2.70786,2.90611 0.65432,-1.74656 -4.64639,-13.35121 -8.23918,-18.03769 -1.95641,-2.55198 -3.80697,-2.64344 -61.17232,-3.02348 l -59.15488,-0.39191 v 74.40507 74.40505 h 71.90632 71.90633 z m -21.7255,-111.51316 c 0,-1.80921 0.29866,-2.54934 0.66368,-1.64474 0.36501,0.90461 0.36501,2.38487 0,3.28947 -0.36502,0.90461 -0.66368,0.16448 -0.66368,-1.64473 z m 180.87925,125.09056 c -1.44738,-17.35538 -10.26948,-57.8679 -17.498,-80.35372 -1.04689,-3.25658 -3.52575,-11.29134 -5.50857,-17.85504 -1.98283,-6.5637 -5.1987,-14.6532 -7.14639,-17.97667 -4.13581,-7.05724 -9.90113,-14.16829 -11.487,-14.16829 -0.60967,0 2.35023,7.25329 6.57756,16.11842 8.75686,18.36401 16.85459,41.36333 21.6579,61.51316 3.6139,15.16026 7.3175,41.1668 7.3175,51.38318 v 6.51156 h -67.10526 -67.10526 l -0.0155,-12.82895 c -0.0161,-13.30199 -3.15517,-47.35924 -4.48809,-48.69215 -0.41778,-0.41779 -0.75961,0.55823 -0.75961,2.16892 0,1.61731 -0.58913,2.56443 -1.31579,2.11533 -0.72368,-0.44726 -1.31578,-2.85063 -1.31578,-5.34081 6e-5,-2.49019 -0.52786,-4.52761 -1.17308,-4.52761 -2.74128,0 -2.61752,8.02098 0.49721,32.22492 1.81913,14.13612 3.30751,28.95136 3.30751,32.92277 v 7.22073 h 73.2155 73.21549 z M 567.50847,426.52234 c -0.44727,-0.72368 -1.5184,-1.30672 -2.38029,-1.29564 -0.9416,0.0118 -0.77931,0.52925 0.4066,1.29564 2.52779,1.6336 2.98329,1.6336 1.97369,0 z m -1.49497,-8.54508 c -0.41496,-1.08136 -1.28453,-1.63852 -1.93238,-1.23813 -0.64785,0.4004 -1.22467,-0.34313 -1.2818,-1.65229 -0.0747,-1.71177 -0.31033,-1.85819 -0.83895,-0.52134 -0.40429,1.02242 0.34774,2.65071 1.67116,3.61842 3.04711,2.22811 3.30761,2.2055 2.38197,-0.20666 z m -4.26281,-8.91106 c -1.2995,-1.28982 -1.45063,-1.13869 -0.73658,0.73658 0.49412,1.29766 1.22986,2.02792 1.63497,1.6228 0.40512,-0.40512 8.5e-4,-1.46683 -0.89839,-2.35938 z m -0.41144,-15.43859 c -0.0574,-2.98482 -0.15622,-2.92388 -1.06763,0.65789 l -1.00443,3.94737 -0.15569,-3.61842 c -0.0856,-1.99013 -0.68815,-3.61842 -1.33897,-3.61842 -0.6508,0 -1.46217,-2.51645 -1.80304,-5.59211 -0.81129,-7.32054 -4.95038,-29.09901 -5.6665,-29.81512 -1.95701,-1.95701 -1.57334,3.23119 1.55029,20.96374 2.22666,12.64055 4.32166,20.89178 5.64971,22.25147 1.8767,1.92143 2.20991,1.93662 3.00509,0.13706 0.49191,-1.1132 0.86594,-3.50425 0.83117,-5.31346 z m -1.48459,-6.82566 c -0.42002,-1.04965 -0.73181,-0.73787 -0.79494,0.79496 -0.0571,1.38705 0.25385,2.1642 0.69107,1.72697 0.43723,-0.43723 0.48396,-1.5721 0.10382,-2.52193 z m 87.75399,-31.61321 c -8.90921,-0.74029 -28.98947,-0.74748 -51.31579,-0.0184 l -36.67913,1.19781 51.31579,0.0184 c 40.98367,0.0147 48.36879,-0.2265 36.67913,-1.19781 z m -376.413,-50.6677 c 21.17001,-39.9196 39.04742,-76.80318 39.96397,-82.45126 0.62273,-3.83737 0.30652,-4.50312 -2.46972,-5.19991 -3.94737,-0.99072 -11.52279,1.02974 -20.06062,5.35043 -23.00606,11.64255 -73.14328,44.13829 -94.15957,61.02822 -14.81547,11.90659 -36.56824,34.19285 -41.3673,42.38182 -6.09161,10.39456 -8.44649,9.91936 49.83828,10.05694 l 51.66233,0.12197 16.59263,-31.28817 z M 398.42952,269.112 v -66.62086 l -20.72369,0.71741 c -21.85398,0.75655 -28.3269,1.96158 -33.18922,6.17865 -1.63824,1.42083 -4.07399,2.93099 -5.41278,3.35591 -2.9948,0.95051 -16.26081,18.37484 -23.77773,31.23103 -7.76769,13.28506 -31.58985,60.82139 -37.22048,74.27226 -2.57185,6.14383 -4.6761,12.59165 -4.6761,14.32852 v 3.15795 h 62.5 62.5 z m 123.68421,62.04565 c 0,-6.2254 -4.43634,-17.51735 -15.77857,-40.16162 -17.25105,-34.441 -40.4715,-73.56563 -47.17151,-79.48025 -1.56167,-1.37861 -2.8394,-2.11874 -2.8394,-1.64474 0,0.47401 -1.14576,-0.28393 -2.54614,-1.68431 -3.91029,-3.9103 -11.20662,-5.33324 -27.38807,-5.34126 l -14.80263,-0.007 v 66.44737 66.44737 h 55.26316 55.26316 z m 16.37312,1.61469 c -0.57149,-1.62829 -1.08463,-6.01946 -1.14031,-9.75815 -0.0557,-3.73869 -0.50519,-7.20187 -0.99893,-7.69594 -0.49372,-0.49407 -0.6105,0.49249 -0.2595,2.19236 0.4178,2.0234 -0.34166,1.3161 -2.19929,-2.04823 -1.5606,-2.82641 -3.11018,-7.51265 -3.44349,-10.41388 -0.86775,-7.5532 -3.35093,-12.92432 -5.38177,-11.64076 -1.31694,0.83235 -1.25259,2.37433 0.31469,7.54098 1.08358,3.57207 1.93265,7.08678 1.88681,7.81047 -0.17323,2.73484 -4.96058,-9.37206 -5.05375,-12.78059 -0.0537,-1.96354 -5.72258,-15.39447 -12.59758,-29.84651 -6.875,-14.45205 -12.5,-26.73039 -12.5,-27.28521 0,-2.7146 3.77518,3.80232 15.78151,27.24288 7.20174,14.06029 13.11021,25.11312 13.12996,24.56185 0.0682,-1.90456 -20.87041,-42.47133 -30.03912,-58.19821 -5.05965,-8.67871 -9.03842,-15.94043 -8.84169,-16.13715 0.95173,-0.95174 33.4158,11.25856 46.65872,17.54917 42.19446,20.04306 80.85861,50.94834 110.1573,88.05166 8.39615,10.63272 10.46861,12.60682 10.79895,10.28642 0.78199,-5.49292 -4.08771,-11.73499 -26.52345,-33.99818 -34.27038,-34.00681 -53.3565,-47.40609 -101.72885,-71.41805 -24.65698,-12.23969 -28.99473,-13.97883 -34.98461,-14.02641 -5.58827,-0.0444 -6.92525,0.3838 -7.31693,2.34337 -0.66462,3.32509 41.89072,97.07801 43.58839,96.0288 0.80779,-0.49925 1.01991,0.0179 0.53049,1.29327 -0.70699,1.84237 3.4468,14.07728 7.13089,21.00394 1.8299,3.44046 4.28312,2.90808 3.03156,-0.6579 z m 84.61372,1.97619 c -11.39803,-0.21905 -30.04934,-0.21905 -41.44737,0 -11.39802,0.21905 -2.07237,0.39827 20.72369,0.39827 22.79605,0 32.12171,-0.17922 20.72368,-0.39827 z m -88.24591,-24.26237 c -0.42002,-1.04965 -0.73181,-0.73786 -0.79494,0.79496 -0.0571,1.38706 0.25385,2.16419 0.69107,1.72697 0.43723,-0.43723 0.48396,-1.57209 0.10382,-2.52193 z"
       style="fill:#ffffff;fill-opacity:0.38844676;stroke-width:1.31578946" /></g></svg>