<svg id="interview" xmlns="http://www.w3.org/2000/svg" width="45" height="45" viewBox="0 0 45 45">
  <g id="Group_38" data-name="Group 38" transform="translate(4.014 43.242)">
    <g id="Group_37" data-name="Group 37">
      <path id="Path_62" data-name="Path 62" d="M47.17,492.258a.878.878,0,1,0,.258.621A.885.885,0,0,0,47.17,492.258Z" transform="translate(-45.67 -492)"/>
    </g>
  </g>
  <g id="Group_40" data-name="Group 40" transform="translate(31.289 37.031)">
    <g id="Group_39" data-name="Group 39">
      <path id="Path_63" data-name="Path 63" d="M357.5,421.588a.878.878,0,1,0,.258.621A.885.885,0,0,0,357.5,421.588Z" transform="translate(-356 -421.33)"/>
    </g>
  </g>
  <g id="Group_42" data-name="Group 42" transform="translate(0 7.207)">
    <g id="Group_41" data-name="Group 41">
      <path id="Path_64" data-name="Path 64" d="M42.165,89a3.68,3.68,0,0,0,1.077-2.6v-.7a3.691,3.691,0,1,0-7.383,0v.7A3.68,3.68,0,0,0,36.937,89a5.463,5.463,0,0,0-2.764,3.9H30.146a2.636,2.636,0,0,0-2.486,3.516H17.339A2.636,2.636,0,0,0,14.854,92.9H10.828A5.463,5.463,0,0,0,8.063,89a3.68,3.68,0,0,0,1.077-2.6v-.7a3.691,3.691,0,0,0-7.383,0v.7A3.68,3.68,0,0,0,2.835,89,5.453,5.453,0,0,0,0,93.777v9.858a5,5,0,0,0,5,5h6.958v8.394a2.754,2.754,0,0,0,.192,1.011H8.672a.879.879,0,1,0,0,1.758H40.107a.879.879,0,1,0,0-1.758H32.855a2.754,2.754,0,0,0,.192-1.011v-1.011a.879.879,0,0,0-1.758,0v1.011a1.011,1.011,0,1,1-2.021,0v-11.1a2.486,2.486,0,0,1,2.483-2.483H43.242v.19A3.241,3.241,0,0,1,40,106.873H32.168a.879.879,0,0,0-.879.879v1.406a.879.879,0,0,0,1.758,0v-.527H40a5,5,0,0,0,5-5V93.777A5.453,5.453,0,0,0,42.165,89Zm-4.548-3.306a1.934,1.934,0,1,1,3.867,0v.7a1.934,1.934,0,1,1-3.867,0Zm-34.1,0a1.934,1.934,0,0,1,3.867,0v.7a1.934,1.934,0,0,1-3.867,0ZM1.758,93.777a3.691,3.691,0,0,1,7.383,0,.879.879,0,0,0,.879.879h4.834a.879.879,0,1,1,0,1.758H9.735a3.778,3.778,0,0,1-3.335-2,.879.879,0,1,0-1.549.83,5.532,5.532,0,0,0,4.339,2.9.878.878,0,0,0-.049.29v3.252H1.758Zm10.844,7.91H10.9V98.436a.877.877,0,0,0-.04-.264H12.6a3.5,3.5,0,0,0,0,3.516Zm3.13,15.337a1.011,1.011,0,1,1-2.021,0v-9.272a.879.879,0,0,0-.879-.879H5a3.241,3.241,0,0,1-3.237-3.237v-.19H13.25a2.486,2.486,0,0,1,2.483,2.483Zm4.131,1.011H17.3a2.752,2.752,0,0,0,.192-1.011v-11.1a4.216,4.216,0,0,0-.806-2.483h3.179Zm3.516,0H21.621v-14.59h1.758Zm4.323,0H25.137v-14.59h3.179a4.217,4.217,0,0,0-.806,2.483v11.1A2.754,2.754,0,0,0,27.7,118.035Zm1.654-16.348H15.645a1.758,1.758,0,1,1,0-3.516H29.355a1.758,1.758,0,0,1,0,3.516ZM34.1,98.436v3.252H32.4a3.5,3.5,0,0,0,0-3.516h1.744A.877.877,0,0,0,34.1,98.436Zm9.141,3.252H35.859V98.436a.878.878,0,0,0-.049-.29,5.532,5.532,0,0,0,4.339-2.9.879.879,0,1,0-1.549-.83,3.778,3.778,0,0,1-3.335,2H30.146a.879.879,0,0,1,0-1.758H34.98a.879.879,0,0,0,.879-.879,3.691,3.691,0,1,1,7.383,0Z" transform="translate(0 -82)"/>
    </g>
  </g>
  <g id="Group_44" data-name="Group 44" transform="translate(13.535)">
    <g id="Group_43" data-name="Group 43">
      <path id="Path_65" data-name="Path 65" d="M169.293,0H156.637A2.64,2.64,0,0,0,154,2.637V11.25a2.64,2.64,0,0,0,2.637,2.637H159.7l2.643,2.643a.879.879,0,0,0,1.243,0l2.643-2.643h3.064a2.64,2.64,0,0,0,2.637-2.637V2.637A2.64,2.64,0,0,0,169.293,0Zm.879,11.25a.88.88,0,0,1-.879.879h-3.428a.879.879,0,0,0-.621.257l-2.279,2.279-2.279-2.279a.879.879,0,0,0-.621-.257h-3.428a.88.88,0,0,1-.879-.879V2.637a.88.88,0,0,1,.879-.879h12.656a.88.88,0,0,1,.879.879Z" transform="translate(-154)"/>
    </g>
  </g>
  <g id="Group_46" data-name="Group 46" transform="translate(17.49 5.728)">
    <g id="Group_45" data-name="Group 45">
      <path id="Path_66" data-name="Path 66" d="M200.5,65.428a.878.878,0,1,0,.258.621A.881.881,0,0,0,200.5,65.428Z" transform="translate(-199 -65.17)"/>
    </g>
  </g>
  <g id="Group_48" data-name="Group 48" transform="translate(21.621 5.728)">
    <g id="Group_47" data-name="Group 47">
      <path id="Path_67" data-name="Path 67" d="M247.5,65.428a.878.878,0,1,0,.258.621A.886.886,0,0,0,247.5,65.428Z" transform="translate(-246 -65.17)"/>
    </g>
  </g>
  <g id="Group_50" data-name="Group 50" transform="translate(25.752 5.728)">
    <g id="Group_49" data-name="Group 49">
      <path id="Path_68" data-name="Path 68" d="M294.5,65.428a.878.878,0,1,0,.258.621A.881.881,0,0,0,294.5,65.428Z" transform="translate(-293 -65.17)"/>
    </g>
  </g>
</svg>
