<svg xmlns="http://www.w3.org/2000/svg" width="43.246" height="42.755" viewBox="0 0 43.246 42.755">
  <g id="linkedin-social-outline-logotype" transform="translate(0 -3.477)">
    <g id="linkedin" transform="translate(0 3.477)">
      <g id="Group_31" data-name="Group 31" transform="translate(0 0)">
        <path id="Path_14" data-name="Path 14" d="M9.439,15.42H1.246A1.015,1.015,0,0,0,.231,16.435V45.072a1.015,1.015,0,0,0,1.015,1.015H9.44a1.015,1.015,0,0,0,1.015-1.015V16.435A1.016,1.016,0,0,0,9.439,15.42ZM8.424,44.057H2.26V17.45H8.424ZM32.281,15.072a11.2,11.2,0,0,0-8.092,3.209L24,16.337a1.016,1.016,0,0,0-1.01-.918h-.02l-7.468.143a1.016,1.016,0,0,0-.995,1.061c.093,2.091.09,4.535.086,7.365V45.217a1.015,1.015,0,0,0,1.015,1.015H23.8a1.015,1.015,0,0,0,1.015-1.015V28.662a5.412,5.412,0,0,1,.218-1.821,4.631,4.631,0,0,1,4.13-2.644c2.506,0,4,1.906,4,5.1v15.92a1.015,1.015,0,0,0,1.015,1.015h8.049a1.015,1.015,0,0,0,1.015-1.015V28.258C43.246,20,39.146,15.072,32.281,15.072ZM41.216,44.2H35.2V29.3c0-4.332-2.368-7.131-6.031-7.131a6.692,6.692,0,0,0-6.017,3.927,7.008,7.008,0,0,0-.361,2.568V44.2H16.624V23.992c0-2.4.006-4.531-.05-6.419l5.5-.106.316,3.273a1.016,1.016,0,0,0,1.011.918h.172a1.014,1.014,0,0,0,.861-.477,9.05,9.05,0,0,1,7.85-4.079c5.679,0,8.935,4.066,8.935,11.156V44.2h0ZM5.686,3.477A5.366,5.366,0,0,0,0,8.877a5.307,5.307,0,0,0,5.572,5.4,5.406,5.406,0,1,0,.114-10.8Zm-.114,8.767A3.308,3.308,0,0,1,2.03,8.877a3.334,3.334,0,0,1,3.656-3.37,3.325,3.325,0,0,1,3.6,3.37C9.286,10.891,7.793,12.244,5.572,12.244Z" transform="translate(0 -3.477)" fill="#fff"/>
      </g>
    </g>
  </g>
</svg>
