<svg xmlns="http://www.w3.org/2000/svg" width="173.294" height="47.488" viewBox="0 0 173.294 47.488">
  <defs>
    <style>
      .cls-1, .cls-2 {
        fill: #296188;
      }

      .cls-2 {
        font-size: 17px;
        font-family: Helvetica-Bold, Helvetica;
        font-weight: 700;
      }
    </style>
  </defs>
  <g id="Group_213" data-name="Group 213" transform="translate(-409 -32.682)">
    <g id="Group_51" data-name="Group 51" transform="translate(409 32.682)">
      <path id="Path_69" data-name="Path 69" class="cls-1" d="M43.127,32.867q-.053,6.676-.108,13.352c-.008.976-.233,1.189-1.231,1.16-4.222-.124-8.443-.329-12.665-.356-3.508-.022-7.019.175-10.528.254q-4.926.11-9.852.175c-2.1.029-4.209.023-6.313.038C1.147,47.5.917,47.261.8,45.984.291,40.322.3,34.644.209,28.968.164,26.077.059,23.188,0,20.3A2.709,2.709,0,0,1,.92,18.15c2.374-2.091,4.806-4.116,7.141-6.248,2.682-2.448,5.274-5,7.93-7.474,1.449-1.351,2.951-2.649,4.427-3.971a1.426,1.426,0,0,1,1.857-.2,26.728,26.728,0,0,1,4.182,3.181c2.394,2.092,4.821,4.148,7.189,6.268,1.838,1.645,3.606,3.369,5.41,5.051q1.876,1.749,3.768,3.479a1.628,1.628,0,0,1,.556,1.283q-.053,6.675-.088,13.351ZM22.185,27.9c.144.19.25.336.361.479a59.408,59.408,0,0,0,7.542,7.778c.22.194.352.132.541-.006a44.419,44.419,0,0,0,7.4-6.808.439.439,0,0,0,.046-.655,74.122,74.122,0,0,0-6.826-8.3,2.4,2.4,0,0,1-.271-.443C27.765,22.426,25.144,25.314,22.185,27.9ZM11.9,19.413a2.933,2.933,0,0,1-.3.456,50.935,50.935,0,0,0-6.267,8.275c-.179.289-.1.445.1.66a47.352,47.352,0,0,0,6.1,5.7c.332.259.67.51.993.756l8.288-8.076A35.107,35.107,0,0,0,11.9,19.413Zm17.979-.371c-.089-.1-.145-.17-.211-.232a45.677,45.677,0,0,0-7.934-6.116.76.76,0,0,0-.869-.015,38.145,38.145,0,0,0-7.453,5.388c-.2.182-.411.346-.656.552.371.27.635.469.905.659A31.369,31.369,0,0,1,20.939,26.2c.492.664.363.734,1.054.1,1.961-1.8,3.895-3.638,5.847-5.45C28.494,20.241,29.175,19.665,29.881,19.042Zm-.353,17.874a51.657,51.657,0,0,1-7.856-8.6C18.8,30.76,16.221,33.391,13.6,36.028c.157.121.259.207.369.283A64.851,64.851,0,0,0,21.9,40.982a.748.748,0,0,0,.8-.005c2.136-1.258,4.278-2.5,6.416-3.758C29.243,37.144,29.356,37.044,29.529,36.916ZM1.7,45.41a103.974,103.974,0,0,0,10.137-9.372,47.768,47.768,0,0,1-7.081-6.831,1.557,1.557,0,0,0-.155.2Q2.949,32.59,1.315,35.779a1.211,1.211,0,0,0-.093.57c.06,1.83.116,3.661.206,5.49C1.485,42.986,1.6,44.13,1.7,45.41Zm40.351.26a2.016,2.016,0,0,0,.075-.288q.07-5.042.129-10.083a.994.994,0,0,0-.167-.5Q41,33.067,39.9,31.348c-.276-.431-.57-.85-.892-1.33a43.946,43.946,0,0,1-7.661,7.333ZM13.753,7.69a1.041,1.041,0,0,0,.175.105,35.66,35.66,0,0,1,6.855,2.981.716.716,0,0,0,.574-.031,38.812,38.812,0,0,1,7.8-2.942,3.484,3.484,0,0,0,.376-.152l-.345-.307Q25.794,4.357,22.4,1.37c-.85-.747-.979-.786-1.832-.017-2.225,2.006-4.416,4.052-6.618,6.083A2.038,2.038,0,0,0,13.753,7.69ZM38.7,28.475a1.493,1.493,0,0,0,.186-.181c1.179-1.738,2.364-3.472,3.52-5.225a1.947,1.947,0,0,0,.264-.9,8.54,8.54,0,0,0-.007-1.677,1.912,1.912,0,0,0-.414-1.052c-1.179-1.213-2.412-2.372-3.62-3.555a.55.55,0,0,0-.7-.078,32.537,32.537,0,0,0-6.022,3.427c-.105.076-.2.167-.334.28A77.057,77.057,0,0,1,38.7,28.475ZM2.993,46.146l.041.106h.444c1.318-.005,2.636-.053,3.952-.006a7.094,7.094,0,0,0,3.7-.645,1.536,1.536,0,0,1,.258-.086,79.661,79.661,0,0,0,8.98-3.435c.139-.065.273-.142.478-.249-.336-.184-.594-.308-.836-.46-2.23-1.4-4.469-2.782-6.675-4.216-.4-.261-.583-.266-.918.075-2.8,2.853-5.6,5.706-8.668,8.281ZM37.026,14.529a.7.7,0,0,0-.078-.13c-1.92-1.756-3.838-3.514-5.771-5.255a.638.638,0,0,0-.521-.092c-1.952.585-3.9,1.169-5.841,1.8-.752.246-1.463.619-2.252.959.146.12.22.193.3.248A46.083,46.083,0,0,1,30.3,18.21c.243.246.39.212.636.022A31.286,31.286,0,0,1,36.7,14.715C36.8,14.664,36.9,14.6,37.026,14.529ZM10.839,18.761s-.005-.021-.017-.027c-1.786-1.108-3.571-2.219-5.367-3.312a.464.464,0,0,0-.42.068q-1.946,1.7-3.869,3.437a1.431,1.431,0,0,0-.48,1.132c.006.545-.052,1.095.005,1.633a2.77,2.77,0,0,0,.358,1.229c1,1.477,2.059,2.914,3.1,4.364a3.028,3.028,0,0,0,.28.3c1.025-1.535,1.979-3.063,3.035-4.518S9.7,20.213,10.839,18.761ZM40.818,46.033c-.092-.086-.14-.137-.194-.181q-4.885-3.878-9.768-7.759c-.216-.173-.345-.122-.55.005-1.882,1.18-3.771,2.348-5.658,3.519-.174.108-.351.211-.605.363.327.156.561.287.808.383,2.787,1.085,5.571,2.178,8.369,3.232a5.568,5.568,0,0,0,1.585.288c1.207.078,2.417.112,3.627.144C39.2,46.049,39.967,46.033,40.818,46.033ZM6.209,14.5c.215.136.353.225.493.312,1.554.965,3.114,1.921,4.657,2.9a.45.45,0,0,0,.683-.086,36.434,36.434,0,0,1,6.705-5.387c.312-.194.617-.4.966-.623-.124-.08-.184-.124-.247-.158a36.2,36.2,0,0,0-6.584-2.549.6.6,0,0,0-.635.207q-2.61,2.355-5.235,4.7C6.768,14.039,6.512,14.246,6.209,14.5ZM29.335,45.662c-.109-.052-.224-.109-.341-.16-2-.867-4-1.725-5.991-2.607a.949.949,0,0,0-.849,0c-2.434,1.037-4.879,2.052-7.32,3.073-.116.049-.231.1-.347.152l.022.1ZM1.113,33.683l.143.03a.953.953,0,0,0,.1-.131c.86-1.666,1.724-3.329,2.563-5a.607.607,0,0,0-.083-.5C3,26.852,2.147,25.64,1.3,24.426c-.055-.079-.12-.15-.185-.231ZM42.548,25.03c-1.066,1.525-2.048,2.921-3.011,4.33a.511.511,0,0,0,.057.432c.814,1.309,1.644,2.61,2.465,3.916a1.339,1.339,0,0,1,.1.289l.166-.13C42.4,30.956,42.472,28.047,42.548,25.03Z" transform="translate(-0.004 -0.002)"/>
    </g>
    <text id="MyBuildingNet" class="cls-2" transform="translate(463.294 67.18)"><tspan x="0" y="0">MyBuildingNet</tspan></text>
  </g>
</svg>
