<svg xmlns="http://www.w3.org/2000/svg" width="31.73" height="32.661" viewBox="0 0 31.73 32.661">
  <g id="settings" transform="translate(-6.85)">
    <g id="Group_166" data-name="Group 166" transform="translate(6.85)">
      <path id="Path_300" data-name="Path 300" d="M177.726,15.919v-15a.918.918,0,0,0-1.836,0v15a4.662,4.662,0,0,0,0,9.139v6.678a.918.918,0,0,0,1.836,0V25.059a4.662,4.662,0,0,0,0-9.139Zm-.918,7.392a2.822,2.822,0,1,1,2.822-2.822A2.824,2.824,0,0,1,176.808,23.311Z" transform="translate(-160.909)" fill="#296188"/>
      <path id="Path_301" data-name="Path 301" d="M12.426,8.221V.918a.918.918,0,1,0-1.836,0v7.3a4.662,4.662,0,0,0,0,9.139V31.737a.918.918,0,0,0,1.836,0V17.354a4.658,4.658,0,0,0,0-9.133Zm-.918,7.392a2.822,2.822,0,1,1,2.822-2.822A2.824,2.824,0,0,1,11.508,15.613Z" transform="translate(-6.85)" fill="#296188"/>
      <path id="Path_302" data-name="Path 302" d="M342.026,8.221V.918a.918.918,0,1,0-1.836,0v7.3a4.662,4.662,0,0,0,0,9.139V31.743a.918.918,0,1,0,1.836,0V17.354a4.658,4.658,0,0,0,0-9.133Zm-.918,7.392a2.822,2.822,0,1,1,2.822-2.822A2.824,2.824,0,0,1,341.108,15.613Z" transform="translate(-314.037)" fill="#296188"/>
    </g>
  </g>
</svg>
