<?xml version="1.0" encoding="iso-8859-1"?>
<!DOCTYPE svg PUBLIC "-//W3C//DTD SVG 1.0//EN" "http://www.w3.org/TR/2001/REC-SVG-20010904/DTD/svg10.dtd">
<!-- Creator: CorelDRAW -->
<svg xmlns="http://www.w3.org/2000/svg" xmlns:odm="http://product.corel.com/CGS/11/cddns/" xml:space="preserve" width="8.26772in" height="11.6929in" style="shape-rendering:geometricPrecision; text-rendering:geometricPrecision; image-rendering:optimizeQuality; fill-rule:evenodd"
     viewBox="0 0 8268 11692">
 <defs>
  <style type="text/css">
   <![CDATA[
    .str0 {stroke:#838281;stroke-width:111}
    .fil1 {fill:none}
    .fil0 {fill:#838281}
   ]]>
  </style>
 </defs>
 <g id="Layer 1">
  <path class="fil0" d="M3141 4254c-18,0 -34,-2 -47,-6 -14,-5 -26,-11 -35,-18 -10,-8 -17,-16 -22,-26 -5,-9 -7,-19 -7,-29 0,-14 3,-26 11,-37 7,-11 17,-20 29,-28 12,-7 26,-12 40,-16 15,-4 29,-5 44,-5 17,0 32,2 46,5 14,4 25,10 35,17 10,6 18,14 23,23 5,9 8,19 8,29 0,11 -3,22 -9,33 -6,11 -15,21 -25,29 -11,9 -24,16 -40,21 -15,6 -32,8 -51,8zm66 213c-9,36 -16,71 -22,107 -6,36 -11,71 -15,104 -4,34 -6,66 -8,96 -2,30 -3,56 -3,81 0,32 1,60 2,84 2,23 4,43 8,59 4,16 8,28 13,38 6,9 12,17 20,22 8,5 17,9 27,10 11,2 22,3 36,3 24,0 50,-3 78,-7 28,-5 56,-11 85,-19l15 24c-18,9 -41,19 -69,28 -27,9 -56,18 -86,26 -31,8 -61,14 -90,19 -29,5 -54,7 -75,7 -15,0 -28,-1 -39,-2 -11,-2 -22,-5 -32,-11 -9,-5 -17,-14 -25,-25 -7,-11 -13,-25 -18,-44 -5,-19 -8,-43 -11,-71 -2,-28 -4,-62 -4,-102 0,-24 1,-50 1,-80 1,-30 2,-61 4,-96 2,-34 4,-69 6,-107 3,-38 6,-77 10,-117 1,-8 5,-16 11,-21 7,-6 15,-10 25,-13 9,-3 19,-5 30,-6 11,-1 21,-2 30,-2 34,0 66,5 96,15z"/>
  <path class="fil0" d="M3238 3252l153 12c28,-50 68,-67 146,-76l995 -3c78,12 129,63 153,153l0 734c-24,53 -70,83 -138,92l-566 0 -246 482 323 -305 535 -15c157,-3 247,-194 225,-250l4 -830c-33,-100 -94,-166 -183,-199l-1156 -1c-182,34 -204,98 -245,206z"/>
  <rect class="fil0" x="3798" y="3429" width="627" height="153"/>
  <rect class="fil0" x="3793" y="3779" width="627" height="153"/>
  <path class="fil1 str0" d="M2741 4083c-109,-866 928,-967 866,-27"/>
  <ellipse class="fil0" cx="2747" cy="4044" rx="75" ry="138"/>
  <ellipse class="fil0" cx="3605" cy="4032" rx="75" ry="138"/>
 </g>
</svg>
