<?xml version="1.0" encoding="iso-8859-1"?>
<!DOCTYPE svg PUBLIC "-//W3C//DTD SVG 1.0//EN" "http://www.w3.org/TR/2001/REC-SVG-20010904/DTD/svg10.dtd">
<!-- Creator: CorelDRAW -->
<svg xmlns="http://www.w3.org/2000/svg" xmlns:odm="http://product.corel.com/CGS/11/cddns/" xml:space="preserve" width="8.26772in" height="11.6929in" style="shape-rendering:geometricPrecision; text-rendering:geometricPrecision; image-rendering:optimizeQuality; fill-rule:evenodd"
     viewBox="0 0 8268 11692">
 <defs>
  <style type="text/css">
   <![CDATA[
    .str0 {stroke:#FFFFFF;stroke-width:14}
    .str1 {stroke:#FFFFFF;stroke-width:111}
    .fil50 {fill:none}
    .fil51 {fill:#FFFFFF}
    .fil1 {fill:#DA251D}
    .fil3 {fill:#DB291D}
    .fil5 {fill:#DB2E1C}
    .fil7 {fill:#DC321C}
    .fil9 {fill:#DC361B}
    .fil11 {fill:#DD3A1B}
    .fil13 {fill:#DD3D1A}
    .fil15 {fill:#DE411A}
    .fil17 {fill:#DE441A}
    .fil19 {fill:#DF4719}
    .fil21 {fill:#DF4A19}
    .fil23 {fill:#E04D18}
    .fil25 {fill:#E05017}
    .fil27 {fill:#E05317}
    .fil29 {fill:#E15616}
    .fil31 {fill:#E15815}
    .fil33 {fill:#E25B14}
    .fil35 {fill:#E25D14}
    .fil37 {fill:#E36013}
    .fil39 {fill:#E36212}
    .fil41 {fill:#E46413}
    .fil43 {fill:#E46713}
    .fil45 {fill:#E56A14}
    .fil47 {fill:#E56C14}
    .fil49 {fill:#E56E14}
    .fil48 {fill:#E67115}
    .fil46 {fill:#E67316}
    .fil44 {fill:#E77616}
    .fil42 {fill:#E77817}
    .fil40 {fill:#E87A17}
    .fil38 {fill:#E87D18}
    .fil36 {fill:#E87F19}
    .fil34 {fill:#E9811A}
    .fil32 {fill:#E9841B}
    .fil30 {fill:#EA861B}
    .fil28 {fill:#EB891B}
    .fil26 {fill:#EC8F1C}
    .fil24 {fill:#ED9517}
    .fil22 {fill:#EF9C0F}
    .fil20 {fill:#F0A200}
    .fil18 {fill:#F2AA00}
    .fil16 {fill:#F4B100}
    .fil14 {fill:#F6B800}
    .fil12 {fill:#F7C000}
    .fil10 {fill:#F9C800}
    .fil8 {fill:#FAD000}
    .fil6 {fill:#FCD900}
    .fil4 {fill:#FEE200}
    .fil2 {fill:#FFEB00}
    .fil0 {fill:#FFF500}
   ]]>
  </style>
 </defs>
 <g id="Layer 1">
  <g>
   <defs>
    <clipPath id="id0">
     <path d="M4145 8351c1140,0 2069,-930 2069,-2069 0,-1139 -929,-2069 -2069,-2069 -1139,0 -2068,930 -2068,2069 0,1139 929,2069 2068,2069z"/>
    </clipPath>
   </defs>
   <g style="clip-path:url(#id0)">
    <path class="fil0" d="M3856 6737l2521 -2364 -157 -157 -2364 2521z"/>
    <path class="fil1" d="M3856 6737l-2521 2364 157 157 2364 -2521z"/>
    <path class="fil2" d="M3856 6737l2364 -2521 -166 -146 -2198 2667z"/>
    <path class="fil3" d="M3856 6737l-2364 2521 166 146 2198 -2667z"/>
    <path class="fil4" d="M3856 6737l2198 -2667 -176 -135 -2022 2802z"/>
    <path class="fil5" d="M3856 6737l-2198 2667 175 136 2023 -2803z"/>
    <path class="fil6" d="M3856 6737l2022 -2802 -183 -124 -1839 2926z"/>
    <path class="fil7" d="M3856 6737l-2023 2803 184 124 1839 -2927z"/>
    <path class="fil8" d="M3856 6737l1839 -2926 -192 -112 -1647 3038z"/>
    <path class="fil9" d="M3856 6737l-1839 2927 191 111 1648 -3038z"/>
    <path class="fil10" d="M3856 6737l1647 -3038 -198 -99 -1449 3137z"/>
    <path class="fil11" d="M3856 6737l-1648 3038 198 100 1450 -3138z"/>
    <path class="fil12" d="M3856 6737l1449 -3137 -204 -87 -1245 3224z"/>
    <path class="fil13" d="M3856 6737l-1450 3138 204 86 1246 -3224z"/>
    <path class="fil14" d="M3856 6737l1245 -3224 -209 -73 -1036 3297z"/>
    <path class="fil15" d="M3856 6737l-1246 3224 210 73 1036 -3297z"/>
    <path class="fil16" d="M3856 6737l1036 -3297 -213 -59 -823 3356z"/>
    <path class="fil17" d="M3856 6737l-1036 3297 213 60 823 -3357z"/>
    <path class="fil18" d="M3856 6737l823 -3356 -217 -46 -606 3402z"/>
    <path class="fil19" d="M3856 6737l-823 3357 217 46 606 -3403z"/>
    <path class="fil20" d="M3856 6737l606 -3402 -219 -32 -387 3434z"/>
    <path class="fil21" d="M3856 6737l-606 3403 219 32 387 -3435z"/>
    <path class="fil22" d="M3856 6737l387 -3434 -221 -18 -166 3452z"/>
    <path class="fil23" d="M3856 6737l-387 3435 221 17 166 -3452z"/>
    <path class="fil24" d="M3856 6737l166 -3452 -222 -3 56 3455z"/>
    <path class="fil25" d="M3856 6737l-166 3452 221 4 -55 -3456z"/>
    <path class="fil26" d="M3856 6737l-56 -3455 -221 10 277 3445z"/>
    <path class="fil27" d="M3856 6737l55 3456 222 -11 -277 -3445z"/>
    <path class="fil28" d="M3856 6737l-277 -3445 -220 25 497 3420z"/>
    <path class="fil29" d="M3856 6737l277 3445 220 -25 -497 -3420z"/>
    <path class="fil30" d="M3856 6737l-497 -3420 -218 39 715 3381z"/>
    <path class="fil31" d="M3856 6737l497 3420 218 -38 -715 -3382z"/>
    <path class="fil32" d="M3856 6737l-715 -3381 -215 53 930 3328z"/>
    <path class="fil33" d="M3856 6737l715 3382 215 -53 -930 -3329z"/>
    <path class="fil34" d="M3856 6737l-930 -3328 -212 66 1142 3262z"/>
    <path class="fil35" d="M3856 6737l930 3329 211 -67 -1141 -3262z"/>
    <path class="fil36" d="M3856 6737l-1142 -3262 -206 80 1348 3182z"/>
    <path class="fil37" d="M3856 6737l1141 3262 207 -79 -1348 -3183z"/>
    <path class="fil38" d="M3856 6737l-1348 -3182 -201 93 1549 3089z"/>
    <path class="fil39" d="M3856 6737l1348 3183 201 -93 -1549 -3090z"/>
    <path class="fil40" d="M3856 6737l-1549 -3089 -195 105 1744 2984z"/>
    <path class="fil41" d="M3856 6737l1549 3090 195 -106 -1744 -2984z"/>
    <path class="fil42" d="M3856 6737l-1744 -2984 -188 118 1932 2866z"/>
    <path class="fil43" d="M3856 6737l1744 2984 187 -118 -1931 -2866z"/>
    <path class="fil44" d="M3856 6737l-1932 -2866 -179 130 2111 2736z"/>
    <path class="fil45" d="M3856 6737l1931 2866 180 -129 -2111 -2737z"/>
    <path class="fil46" d="M3856 6737l-2111 -2736 -171 141 2282 2595z"/>
    <path class="fil47" d="M3856 6737l2111 2737 171 -141 -2282 -2596z"/>
    <path class="fil48" d="M3856 6737l-2282 -2595 -162 151 2444 2444z"/>
    <path class="fil49" d="M3856 6737l2282 2596 162 -152 -2444 -2444z"/>
    <path class="fil49" d="M3856 6737l-2444 -2444 -152 162 2596 2282z"/>
    <path class="fil48" d="M3856 6737l2444 2444 151 -162 -2595 -2282z"/>
    <path class="fil47" d="M3856 6737l-2596 -2282 -140 171 2736 2111z"/>
    <path class="fil46" d="M3856 6737l2595 2282 141 -171 -2736 -2111z"/>
    <path class="fil45" d="M3856 6737l-2736 -2111 -130 180 2866 1931z"/>
    <path class="fil44" d="M3856 6737l2736 2111 130 -179 -2866 -1932z"/>
    <path class="fil43" d="M3856 6737l-2866 -1931 -118 187 2984 1744z"/>
    <path class="fil42" d="M3856 6737l2866 1932 118 -188 -2984 -1744z"/>
    <path class="fil41" d="M3856 6737l-2984 -1744 -106 195 3090 1549z"/>
    <path class="fil40" d="M3856 6737l2984 1744 105 -195 -3089 -1549z"/>
    <path class="fil39" d="M3856 6737l-3090 -1549 -92 201 3182 1348z"/>
    <path class="fil38" d="M3856 6737l3089 1549 93 -201 -3182 -1348z"/>
    <path class="fil37" d="M3856 6737l-3182 -1348 -80 207 3262 1141z"/>
    <path class="fil36" d="M3856 6737l3182 1348 80 -206 -3262 -1142z"/>
    <path class="fil35" d="M3856 6737l-3262 -1141 -67 211 3329 930z"/>
    <path class="fil34" d="M3856 6737l3262 1142 66 -212 -3328 -930z"/>
    <path class="fil33" d="M3856 6737l-3329 -930 -53 215 3382 715z"/>
    <path class="fil32" d="M3856 6737l3328 930 53 -215 -3381 -715z"/>
    <path class="fil31" d="M3856 6737l-3382 -715 -38 218 3420 497z"/>
    <path class="fil30" d="M3856 6737l3381 715 39 -218 -3420 -497z"/>
    <path class="fil29" d="M3856 6737l-3420 -497 -25 221 3445 276z"/>
    <path class="fil28" d="M3856 6737l3420 497 25 -220 -3445 -277z"/>
    <path class="fil27" d="M3856 6737l-3445 -276 -11 221 3456 55z"/>
    <path class="fil26" d="M3856 6737l3445 277 11 -221 -3456 -56z"/>
    <path class="fil25" d="M3856 6737l-3456 -55 4 221 3452 -166z"/>
    <path class="fil24" d="M3856 6737l3456 56 -4 -222 -3452 166z"/>
    <path class="fil23" d="M3856 6737l-3452 166 17 221 3435 -387z"/>
    <path class="fil22" d="M3856 6737l3452 -166 -18 -221 -3434 387z"/>
    <path class="fil21" d="M3856 6737l-3435 387 32 219 3403 -606z"/>
    <path class="fil20" d="M3856 6737l3434 -387 -32 -219 -3402 606z"/>
    <path class="fil19" d="M3856 6737l-3403 606 46 217 3357 -823z"/>
    <path class="fil18" d="M3856 6737l3402 -606 -45 -217 -3357 823z"/>
    <path class="fil17" d="M3856 6737l-3357 823 60 214 3297 -1037z"/>
    <path class="fil16" d="M3856 6737l3357 -823 -60 -213 -3297 1036z"/>
    <path class="fil15" d="M3856 6737l-3297 1037 73 209 3224 -1246z"/>
    <path class="fil14" d="M3856 6737l3297 -1036 -73 -209 -3224 1245z"/>
    <path class="fil13" d="M3856 6737l-3224 1246 86 204 3138 -1450z"/>
    <path class="fil12" d="M3856 6737l3224 -1245 -87 -204 -3137 1449z"/>
    <path class="fil11" d="M3856 6737l-3138 1450 100 198 3038 -1648z"/>
    <path class="fil10" d="M3856 6737l3137 -1449 -99 -198 -3038 1647z"/>
    <path class="fil9" d="M3856 6737l-3038 1648 111 191 2927 -1839z"/>
    <path class="fil8" d="M3856 6737l3038 -1647 -112 -192 -2926 1839z"/>
    <path class="fil7" d="M3856 6737l-2927 1839 124 184 2803 -2023z"/>
    <path class="fil6" d="M3856 6737l2926 -1839 -124 -183 -2802 2022z"/>
    <path class="fil5" d="M3856 6737l-2803 2023 136 175 2667 -2198z"/>
    <path class="fil4" d="M3856 6737l2802 -2022 -135 -176 -2667 2198z"/>
    <path class="fil3" d="M3856 6737l-2667 2198 146 166 2521 -2364z"/>
    <path class="fil2" d="M3856 6737l2667 -2198 -146 -166 -2521 2364z"/>
   </g>
   <path class="fil50 str0" d="M4145 8351c1140,0 2069,-930 2069,-2069 0,-1139 -929,-2069 -2069,-2069 -1139,0 -2068,930 -2068,2069 0,1139 929,2069 2068,2069z"/>
  </g>
  <g>
   <g>
    <defs>
     <clipPath id="id1">
      <path d="M2646 4792l-48 837 -528 646 528 656 64 848 834 16 637 559 615 -567 841 -8 73 -882 559 -590 -616 -670 0 -861 -841 -45 -615 -567 -694 616 -809 12z"/>
     </clipPath>
    </defs>
    <g style="clip-path:url(#id1)">
     <path class="fil0" d="M3855 6720l2542 -2384 -158 -158 -2384 2542z"/>
     <path class="fil1" d="M3855 6720l-2542 2384 158 158 2384 -2542z"/>
     <path class="fil2" d="M3855 6720l2384 -2542 -168 -148 -2216 2690z"/>
     <path class="fil3" d="M3855 6720l-2384 2542 167 148 2217 -2690z"/>
     <path class="fil4" d="M3855 6720l2216 -2690 -177 -136 -2039 2826z"/>
     <path class="fil5" d="M3855 6720l-2217 2690 177 136 2040 -2826z"/>
     <path class="fil6" d="M3855 6720l2039 -2826 -185 -125 -1854 2951z"/>
     <path class="fil7" d="M3855 6720l-2040 2826 186 125 1854 -2951z"/>
     <path class="fil8" d="M3855 6720l1854 -2951 -193 -113 -1661 3064z"/>
     <path class="fil9" d="M3855 6720l-1854 2951 192 113 1662 -3064z"/>
     <path class="fil10" d="M3855 6720l1661 -3064 -199 -100 -1462 3164z"/>
     <path class="fil11" d="M3855 6720l-1662 3064 200 100 1462 -3164z"/>
     <path class="fil12" d="M3855 6720l1462 -3164 -206 -87 -1256 3251z"/>
     <path class="fil13" d="M3855 6720l-1462 3164 206 87 1256 -3251z"/>
     <path class="fil14" d="M3855 6720l1256 -3251 -211 -74 -1045 3325z"/>
     <path class="fil15" d="M3855 6720l-1256 3251 211 74 1045 -3325z"/>
     <path class="fil16" d="M3855 6720l1045 -3325 -215 -60 -830 3385z"/>
     <path class="fil17" d="M3855 6720l-1045 3325 215 60 830 -3385z"/>
     <path class="fil18" d="M3855 6720l830 -3385 -219 -46 -611 3431z"/>
     <path class="fil19" d="M3855 6720l-830 3385 219 46 611 -3431z"/>
     <path class="fil20" d="M3855 6720l611 -3431 -221 -32 -390 3463z"/>
     <path class="fil21" d="M3855 6720l-611 3431 221 32 390 -3463z"/>
     <path class="fil22" d="M3855 6720l390 -3463 -223 -18 -167 3481z"/>
     <path class="fil23" d="M3855 6720l-390 3463 222 18 168 -3481z"/>
     <path class="fil24" d="M3855 6720l167 -3481 -223 -4 56 3485z"/>
     <path class="fil25" d="M3855 6720l-168 3481 224 4 -56 -3485z"/>
     <path class="fil26" d="M3855 6720l-56 -3485 -223 11 279 3474z"/>
     <path class="fil27" d="M3855 6720l56 3485 223 -11 -279 -3474z"/>
     <path class="fil28" d="M3855 6720l-279 -3474 -222 25 501 3449z"/>
     <path class="fil29" d="M3855 6720l279 3474 222 -25 -501 -3449z"/>
     <path class="fil30" d="M3855 6720l-501 -3449 -220 39 721 3410z"/>
     <path class="fil31" d="M3855 6720l501 3449 220 -39 -721 -3410z"/>
     <path class="fil32" d="M3855 6720l-721 -3410 -217 53 938 3357z"/>
     <path class="fil33" d="M3855 6720l721 3410 217 -53 -938 -3357z"/>
     <path class="fil34" d="M3855 6720l-938 -3357 -213 67 1151 3290z"/>
     <path class="fil35" d="M3855 6720l938 3357 213 -67 -1151 -3290z"/>
     <path class="fil36" d="M3855 6720l-1151 -3290 -209 81 1360 3209z"/>
     <path class="fil37" d="M3855 6720l1151 3290 208 -81 -1359 -3209z"/>
     <path class="fil38" d="M3855 6720l-1360 -3209 -202 93 1562 3116z"/>
     <path class="fil39" d="M3855 6720l1359 3209 203 -94 -1562 -3115z"/>
     <path class="fil40" d="M3855 6720l-1562 -3116 -197 107 1759 3009z"/>
     <path class="fil41" d="M3855 6720l1562 3115 197 -106 -1759 -3009z"/>
     <path class="fil42" d="M3855 6720l-1759 -3009 -189 119 1948 2890z"/>
     <path class="fil43" d="M3855 6720l1759 3009 189 -119 -1948 -2890z"/>
     <path class="fil44" d="M3855 6720l-1948 -2890 -181 131 2129 2759z"/>
     <path class="fil45" d="M3855 6720l1948 2890 181 -131 -2129 -2759z"/>
     <path class="fil46" d="M3855 6720l-2129 -2759 -173 142 2302 2617z"/>
     <path class="fil47" d="M3855 6720l2129 2759 172 -142 -2301 -2617z"/>
     <path class="fil48" d="M3855 6720l-2302 -2617 -163 152 2465 2465z"/>
     <path class="fil49" d="M3855 6720l2301 2617 163 -153 -2464 -2464z"/>
     <path class="fil49" d="M3855 6720l-2465 -2465 -152 163 2617 2302z"/>
     <path class="fil48" d="M3855 6720l2464 2464 153 -163 -2617 -2301z"/>
     <path class="fil47" d="M3855 6720l-2617 -2302 -142 173 2759 2129z"/>
     <path class="fil46" d="M3855 6720l2617 2301 142 -172 -2759 -2129z"/>
     <path class="fil45" d="M3855 6720l-2759 -2129 -131 181 2890 1948z"/>
     <path class="fil44" d="M3855 6720l2759 2129 131 -181 -2890 -1948z"/>
     <path class="fil43" d="M3855 6720l-2890 -1948 -119 189 3009 1759z"/>
     <path class="fil42" d="M3855 6720l2890 1948 119 -189 -3009 -1759z"/>
     <path class="fil41" d="M3855 6720l-3009 -1759 -107 197 3116 1562z"/>
     <path class="fil40" d="M3855 6720l3009 1759 106 -197 -3115 -1562z"/>
     <path class="fil39" d="M3855 6720l-3116 -1562 -93 202 3209 1360z"/>
     <path class="fil38" d="M3855 6720l3115 1562 94 -203 -3209 -1359z"/>
     <path class="fil37" d="M3855 6720l-3209 -1360 -81 209 3290 1151z"/>
     <path class="fil36" d="M3855 6720l3209 1359 81 -208 -3290 -1151z"/>
     <path class="fil35" d="M3855 6720l-3290 -1151 -67 213 3357 938z"/>
     <path class="fil34" d="M3855 6720l3290 1151 67 -213 -3357 -938z"/>
     <path class="fil33" d="M3855 6720l-3357 -938 -53 217 3410 721z"/>
     <path class="fil32" d="M3855 6720l3357 938 53 -217 -3410 -721z"/>
     <path class="fil31" d="M3855 6720l-3410 -721 -39 220 3449 501z"/>
     <path class="fil30" d="M3855 6720l3410 721 39 -220 -3449 -501z"/>
     <path class="fil29" d="M3855 6720l-3449 -501 -25 222 3474 279z"/>
     <path class="fil28" d="M3855 6720l3449 501 25 -222 -3474 -279z"/>
     <path class="fil27" d="M3855 6720l-3474 -279 -11 223 3485 56z"/>
     <path class="fil26" d="M3855 6720l3474 279 11 -223 -3485 -56z"/>
     <path class="fil25" d="M3855 6720l-3485 -56 4 223 3481 -167z"/>
     <path class="fil24" d="M3855 6720l3485 56 -4 -224 -3481 168z"/>
     <path class="fil23" d="M3855 6720l-3481 167 18 223 3463 -390z"/>
     <path class="fil22" d="M3855 6720l3481 -168 -18 -222 -3463 390z"/>
     <path class="fil21" d="M3855 6720l-3463 390 32 221 3431 -611z"/>
     <path class="fil20" d="M3855 6720l3463 -390 -32 -221 -3431 611z"/>
     <path class="fil19" d="M3855 6720l-3431 611 46 219 3385 -830z"/>
     <path class="fil18" d="M3855 6720l3431 -611 -46 -219 -3385 830z"/>
     <path class="fil17" d="M3855 6720l-3385 830 60 215 3325 -1045z"/>
     <path class="fil16" d="M3855 6720l3385 -830 -60 -215 -3325 1045z"/>
     <path class="fil15" d="M3855 6720l-3325 1045 74 211 3251 -1256z"/>
     <path class="fil14" d="M3855 6720l3325 -1045 -74 -211 -3251 1256z"/>
     <path class="fil13" d="M3855 6720l-3251 1256 87 206 3164 -1462z"/>
     <path class="fil12" d="M3855 6720l3251 -1256 -87 -206 -3164 1462z"/>
     <path class="fil11" d="M3855 6720l-3164 1462 100 199 3064 -1661z"/>
     <path class="fil10" d="M3855 6720l3164 -1462 -100 -199 -3064 1661z"/>
     <path class="fil9" d="M3855 6720l-3064 1661 113 193 2951 -1854z"/>
     <path class="fil8" d="M3855 6720l3064 -1661 -113 -193 -2951 1854z"/>
     <path class="fil7" d="M3855 6720l-2951 1854 125 186 2826 -2040z"/>
     <path class="fil6" d="M3855 6720l2951 -1854 -125 -186 -2826 2040z"/>
     <path class="fil5" d="M3855 6720l-2826 2040 136 176 2690 -2216z"/>
     <path class="fil4" d="M3855 6720l2826 -2040 -136 -176 -2690 2216z"/>
     <path class="fil3" d="M3855 6720l-2690 2216 148 168 2542 -2384z"/>
     <path class="fil2" d="M3855 6720l2690 -2216 -148 -168 -2542 2384z"/>
    </g>
    <path class="fil51" d="M2689 4794l-48 837 -87 -5 48 -836 87 4zm-48 837l-9 25 -34 -27 43 2zm-9 25l-528 647 -68 -56 528 -646 68 55zm-596 646l-22 -27 22 -28 34 28 -34 27zm68 -54l528 655 -68 55 -528 -656 68 -54zm528 655l9 25 -43 3 34 -28zm9 25l64 848 -87 6 -64 -848 87 -6zm20 894l-40 -1 -3 -39 44 -3 -1 43zm2 -87l834 16 -2 87 -834 -16 2 -87zm834 16l27 11 -28 33 1 -44zm27 11l638 560 -57 65 -638 -560 57 -65zm639 624l-29 27 -29 -26 28 -33 30 32zm-59 -64l614 -567 59 64 -614 567 -59 -64zm614 -567l29 -12 1 44 -30 -32zm29 -12l842 -8 0 87 -841 8 -1 -87zm886 39l-4 40 -40 0 0 -43 44 3zm-87 -7l72 -882 88 7 -73 882 -87 -7zm72 -882l12 -26 32 30 -44 -4zm12 -26l559 -590 63 60 -559 590 -63 -60zm623 -589l27 29 -28 30 -31 -30 32 -29zm-64 58l-616 -670 64 -59 616 671 -64 58zm-616 -670l-12 -29 44 0 -32 29zm-12 -29l1 -861 87 0 -1 861 -87 0zm46 -904l42 2 0 41 -44 0 2 -43zm-4 87l-841 -46 4 -87 841 46 -4 87zm-841 -46l-28 -11 30 -32 -2 43zm-28 -11l-614 -567 59 -64 614 567 -59 64zm-613 -632l29 -26 29 27 -30 32 -28 -33zm57 65l-694 616 -58 -65 695 -616 57 65zm-694 616l-29 11 0 -43 29 32zm-29 11l-809 13 -1 -87 809 -13 1 87zm-853 -33l3 -41 40 0 1 43 -44 -2z"/>
   </g>
   <g>
    <path class="fil51" d="M2582 6890l40 -16 32 81 -40 16 -32 -81zm32 81l-352 144 -32 -81 352 -144 32 81zm-352 144l-40 17 -33 -81 41 -17 32 81z"/>
   </g>
   <g>
    <path class="fil51" d="M3455 7781l14 -42 82 28 -14 42 -82 -28zm82 28l-146 431 -83 -27 147 -432 82 28zm-146 431l-14 42 -83 -28 14 -41 83 27z"/>
   </g>
   <g>
    <path class="fil51" d="M4707 7801l-15 -41 82 -29 15 41 -82 29zm82 -29l153 424 -82 29 -153 -424 82 -29zm153 424l15 41 -82 29 -15 -41 82 -29z"/>
   </g>
   <g>
    <path class="fil51" d="M5645 6937l-40 -18 34 -80 40 18 -34 80zm34 -80l375 162 -34 80 -375 -162 34 -80zm375 162l40 17 -34 80 -40 -17 34 -80z"/>
   </g>
   <g>
    <path class="fil51" d="M5622 5677l-40 17 -34 -80 40 -17 34 80zm-34 -80l448 -194 34 80 -448 194 -34 -80zm448 -194l40 -17 34 80 -40 17 -34 -80z"/>
   </g>
   <g>
    <path class="fil51" d="M4805 4746l-16 41 -82 -32 16 -40 82 31zm-82 -31l154 -391 81 31 -153 391 -82 -31zm154 -391l16 -41 81 32 -16 40 -81 -31z"/>
   </g>
   <g>
    <path class="fil51" d="M3496 4767l13 41 -83 26 -13 -41 83 -26zm-83 26l-137 -441 83 -25 137 440 -83 26zm-137 -441l-13 -41 83 -26 13 42 -83 25z"/>
   </g>
   <g>
    <path class="fil51" d="M2615 5588l40 18 -34 80 -40 -17 34 -81zm-34 81l-358 -154 34 -80 358 153 -34 81zm-358 -154l-41 -17 34 -80 41 17 -34 80z"/>
   </g>
   <g>
    <defs>
     <clipPath id="id2">
      <path d="M3455 4780l2150 857 -857 2150 -2150 -858 857 -2149z"/>
     </clipPath>
    </defs>
    <g style="clip-path:url(#id2)">
     <path class="fil0" d="M3891 6614l1832 -1718 -114 -114 -1718 1832z"/>
     <path class="fil1" d="M3891 6614l-1832 1718 114 114 1718 -1832z"/>
     <path class="fil2" d="M3891 6614l1718 -1832 -121 -107 -1597 1939z"/>
     <path class="fil3" d="M3891 6614l-1718 1832 120 106 1598 -1938z"/>
     <path class="fil4" d="M3891 6614l1597 -1939 -127 -98 -1470 2037z"/>
     <path class="fil5" d="M3891 6614l-1598 1938 128 99 1470 -2037z"/>
     <path class="fil6" d="M3891 6614l1470 -2037 -134 -90 -1336 2127z"/>
     <path class="fil7" d="M3891 6614l-1470 2037 133 90 1337 -2127z"/>
     <path class="fil8" d="M3891 6614l1336 -2127 -139 -81 -1197 2208z"/>
     <path class="fil9" d="M3891 6614l-1337 2127 139 81 1198 -2208z"/>
     <path class="fil10" d="M3891 6614l1197 -2208 -144 -72 -1053 2280z"/>
     <path class="fil11" d="M3891 6614l-1198 2208 144 72 1054 -2280z"/>
     <path class="fil12" d="M3891 6614l1053 -2280 -148 -63 -905 2343z"/>
     <path class="fil13" d="M3891 6614l-1054 2280 149 63 905 -2343z"/>
     <path class="fil14" d="M3891 6614l905 -2343 -152 -53 -753 2396z"/>
     <path class="fil15" d="M3891 6614l-905 2343 152 53 753 -2396z"/>
     <path class="fil16" d="M3891 6614l753 -2396 -155 -44 -598 2440z"/>
     <path class="fil17" d="M3891 6614l-753 2396 155 43 598 -2439z"/>
     <path class="fil18" d="M3891 6614l598 -2440 -158 -33 -440 2473z"/>
     <path class="fil19" d="M3891 6614l-598 2439 157 34 441 -2473z"/>
     <path class="fil20" d="M3891 6614l440 -2473 -159 -23 -281 2496z"/>
     <path class="fil21" d="M3891 6614l-441 2473 160 23 281 -2496z"/>
     <path class="fil22" d="M3891 6614l281 -2496 -160 -13 -121 2509z"/>
     <path class="fil23" d="M3891 6614l-281 2496 160 13 121 -2509z"/>
     <path class="fil24" d="M3891 6614l121 -2509 -161 -3 40 2512z"/>
     <path class="fil25" d="M3891 6614l-121 2509 161 2 -40 -2511z"/>
     <path class="fil26" d="M3891 6614l-40 -2512 -161 8 201 2504z"/>
     <path class="fil27" d="M3891 6614l40 2511 161 -7 -201 -2504z"/>
     <path class="fil28" d="M3891 6614l-201 -2504 -160 18 361 2486z"/>
     <path class="fil29" d="M3891 6614l201 2504 160 -18 -361 -2486z"/>
     <path class="fil30" d="M3891 6614l-361 -2486 -159 28 520 2458z"/>
     <path class="fil31" d="M3891 6614l361 2486 158 -29 -519 -2457z"/>
     <path class="fil32" d="M3891 6614l-520 -2458 -156 39 676 2419z"/>
     <path class="fil33" d="M3891 6614l519 2457 157 -38 -676 -2419z"/>
     <path class="fil34" d="M3891 6614l-676 -2419 -154 48 830 2371z"/>
     <path class="fil35" d="M3891 6614l676 2419 153 -48 -829 -2371z"/>
     <path class="fil36" d="M3891 6614l-830 -2371 -150 58 980 2313z"/>
     <path class="fil37" d="M3891 6614l829 2371 151 -58 -980 -2313z"/>
     <path class="fil38" d="M3891 6614l-980 -2313 -146 68 1126 2245z"/>
     <path class="fil39" d="M3891 6614l980 2313 146 -68 -1126 -2245z"/>
     <path class="fil40" d="M3891 6614l-1126 -2245 -142 76 1268 2169z"/>
     <path class="fil41" d="M3891 6614l1126 2245 141 -77 -1267 -2168z"/>
     <path class="fil42" d="M3891 6614l-1268 -2169 -136 86 1404 2083z"/>
     <path class="fil43" d="M3891 6614l1267 2168 137 -85 -1404 -2083z"/>
     <path class="fil44" d="M3891 6614l-1404 -2083 -131 94 1535 1989z"/>
     <path class="fil45" d="M3891 6614l1404 2083 130 -94 -1534 -1989z"/>
     <path class="fil46" d="M3891 6614l-1535 -1989 -124 103 1659 1886z"/>
     <path class="fil47" d="M3891 6614l1534 1989 124 -103 -1658 -1886z"/>
     <path class="fil48" d="M3891 6614l-1659 -1886 -117 110 1776 1776z"/>
     <path class="fil49" d="M3891 6614l1658 1886 118 -110 -1776 -1776z"/>
     <path class="fil49" d="M3891 6614l-1776 -1776 -110 117 1886 1659z"/>
     <path class="fil48" d="M3891 6614l1776 1776 110 -117 -1886 -1659z"/>
     <path class="fil47" d="M3891 6614l-1886 -1659 -103 125 1989 1534z"/>
     <path class="fil46" d="M3891 6614l1886 1659 102 -125 -1988 -1534z"/>
     <path class="fil45" d="M3891 6614l-1989 -1534 -94 130 2083 1404z"/>
     <path class="fil44" d="M3891 6614l1988 1534 95 -130 -2083 -1404z"/>
     <path class="fil43" d="M3891 6614l-2083 -1404 -86 136 2169 1268z"/>
     <path class="fil42" d="M3891 6614l2083 1404 85 -137 -2168 -1267z"/>
     <path class="fil41" d="M3891 6614l-2169 -1268 -76 142 2245 1126z"/>
     <path class="fil40" d="M3891 6614l2168 1267 77 -141 -2245 -1126z"/>
     <path class="fil39" d="M3891 6614l-2245 -1126 -68 146 2313 980z"/>
     <path class="fil38" d="M3891 6614l2245 1126 68 -146 -2313 -980z"/>
     <path class="fil37" d="M3891 6614l-2313 -980 -58 150 2371 830z"/>
     <path class="fil36" d="M3891 6614l2313 980 58 -150 -2371 -830z"/>
     <path class="fil35" d="M3891 6614l-2371 -830 -48 154 2419 676z"/>
     <path class="fil34" d="M3891 6614l2371 830 48 -154 -2419 -676z"/>
     <path class="fil33" d="M3891 6614l-2419 -676 -39 156 2458 520z"/>
     <path class="fil32" d="M3891 6614l2419 676 38 -156 -2457 -520z"/>
     <path class="fil31" d="M3891 6614l-2458 -520 -28 159 2486 361z"/>
     <path class="fil30" d="M3891 6614l2457 520 29 -159 -2486 -361z"/>
     <path class="fil29" d="M3891 6614l-2486 -361 -18 160 2504 201z"/>
     <path class="fil28" d="M3891 6614l2486 361 18 -160 -2504 -201z"/>
     <path class="fil27" d="M3891 6614l-2504 -201 -8 161 2512 40z"/>
     <path class="fil26" d="M3891 6614l2504 201 7 -161 -2511 -40z"/>
     <path class="fil25" d="M3891 6614l-2512 -40 3 161 2509 -121z"/>
     <path class="fil24" d="M3891 6614l2511 40 -2 -161 -2509 121z"/>
     <path class="fil23" d="M3891 6614l-2509 121 13 160 2496 -281z"/>
     <path class="fil22" d="M3891 6614l2509 -121 -13 -160 -2496 281z"/>
     <path class="fil21" d="M3891 6614l-2496 281 23 159 2473 -440z"/>
     <path class="fil20" d="M3891 6614l2496 -281 -23 -160 -2473 441z"/>
     <path class="fil19" d="M3891 6614l-2473 440 33 158 2440 -598z"/>
     <path class="fil18" d="M3891 6614l2473 -441 -34 -157 -2439 598z"/>
     <path class="fil17" d="M3891 6614l-2440 598 44 155 2396 -753z"/>
     <path class="fil16" d="M3891 6614l2439 -598 -43 -155 -2396 753z"/>
     <path class="fil15" d="M3891 6614l-2396 753 53 152 2343 -905z"/>
     <path class="fil14" d="M3891 6614l2396 -753 -53 -152 -2343 905z"/>
     <path class="fil13" d="M3891 6614l-2343 905 63 148 2280 -1053z"/>
     <path class="fil12" d="M3891 6614l2343 -905 -63 -148 -2280 1053z"/>
     <path class="fil11" d="M3891 6614l-2280 1053 72 144 2208 -1197z"/>
     <path class="fil10" d="M3891 6614l2280 -1053 -72 -144 -2208 1197z"/>
     <path class="fil9" d="M3891 6614l-2208 1197 81 139 2127 -1336z"/>
     <path class="fil8" d="M3891 6614l2208 -1197 -81 -139 -2127 1336z"/>
     <path class="fil7" d="M3891 6614l-2127 1336 90 134 2037 -1470z"/>
     <path class="fil6" d="M3891 6614l2127 -1336 -90 -134 -2037 1470z"/>
     <path class="fil5" d="M3891 6614l-2037 1470 98 127 1939 -1597z"/>
     <path class="fil4" d="M3891 6614l2037 -1470 -99 -127 -1938 1597z"/>
     <path class="fil3" d="M3891 6614l-1939 1597 107 121 1832 -1718z"/>
     <path class="fil2" d="M3891 6614l1938 -1597 -106 -121 -1832 1718z"/>
    </g>
    <path class="fil51" d="M3471 4739l2150 857 -32 81 -2150 -857 32 -81zm2150 857l40 16 -16 41 -40 -16 16 -41zm24 57l-857 2150 -81 -33 857 -2149 81 32zm-857 2150l-16 40 -41 -16 17 -40 40 16zm-57 24l-2149 -857 32 -81 2150 857 -33 81zm-2149 -857l-41 -16 16 -41 41 16 -16 41zm-25 -57l857 -2149 81 32 -857 2150 -81 -33zm857 -2149l17 -41 40 16 -16 41 -41 -16z"/>
   </g>
   <g>
    <defs>
     <clipPath id="id3">
      <path d="M5662 6897l-2166 898 -898 -2166 2166 -898 898 2166z"/>
     </clipPath>
    </defs>
    <g style="clip-path:url(#id3)">
     <path class="fil0" d="M3915 6600l1867 -1751 -116 -116 -1751 1867z"/>
     <path class="fil1" d="M3915 6600l-1867 1751 116 116 1751 -1867z"/>
     <path class="fil2" d="M3915 6600l1751 -1867 -123 -109 -1628 1976z"/>
     <path class="fil3" d="M3915 6600l-1751 1867 124 108 1627 -1975z"/>
     <path class="fil4" d="M3915 6600l1628 -1976 -130 -100 -1498 2076z"/>
     <path class="fil5" d="M3915 6600l-1627 1975 130 100 1497 -2075z"/>
     <path class="fil6" d="M3915 6600l1498 -2076 -136 -92 -1362 2168z"/>
     <path class="fil7" d="M3915 6600l-1497 2075 136 92 1361 -2167z"/>
     <path class="fil8" d="M3915 6600l1362 -2168 -141 -82 -1221 2250z"/>
     <path class="fil9" d="M3915 6600l-1361 2167 141 83 1220 -2250z"/>
     <path class="fil10" d="M3915 6600l1221 -2250 -147 -74 -1074 2324z"/>
     <path class="fil11" d="M3915 6600l-1220 2250 147 73 1073 -2323z"/>
     <path class="fil12" d="M3915 6600l1074 -2324 -151 -64 -923 2388z"/>
     <path class="fil13" d="M3915 6600l-1073 2323 151 64 922 -2387z"/>
     <path class="fil14" d="M3915 6600l923 -2388 -155 -54 -768 2442z"/>
     <path class="fil15" d="M3915 6600l-922 2387 155 54 767 -2441z"/>
     <path class="fil16" d="M3915 6600l768 -2442 -158 -44 -610 2486z"/>
     <path class="fil17" d="M3915 6600l-767 2441 158 45 609 -2486z"/>
     <path class="fil18" d="M3915 6600l610 -2486 -161 -34 -449 2520z"/>
     <path class="fil19" d="M3915 6600l-609 2486 160 33 449 -2519z"/>
     <path class="fil20" d="M3915 6600l449 -2520 -162 -24 -287 2544z"/>
     <path class="fil21" d="M3915 6600l-449 2519 163 24 286 -2543z"/>
     <path class="fil22" d="M3915 6600l287 -2544 -164 -13 -123 2557z"/>
     <path class="fil23" d="M3915 6600l-286 2543 163 13 123 -2556z"/>
     <path class="fil24" d="M3915 6600l123 -2557 -164 -3 41 2560z"/>
     <path class="fil25" d="M3915 6600l-123 2556 164 3 -41 -2559z"/>
     <path class="fil26" d="M3915 6600l-41 -2560 -163 8 204 2552z"/>
     <path class="fil27" d="M3915 6600l41 2559 164 -8 -205 -2551z"/>
     <path class="fil28" d="M3915 6600l-204 -2552 -164 19 368 2533z"/>
     <path class="fil29" d="M3915 6600l205 2551 163 -18 -368 -2533z"/>
     <path class="fil30" d="M3915 6600l-368 -2533 -161 28 529 2505z"/>
     <path class="fil31" d="M3915 6600l368 2533 162 -29 -530 -2504z"/>
     <path class="fil32" d="M3915 6600l-529 -2505 -159 39 688 2466z"/>
     <path class="fil33" d="M3915 6600l530 2504 159 -39 -689 -2465z"/>
     <path class="fil34" d="M3915 6600l-688 -2466 -157 50 845 2416z"/>
     <path class="fil35" d="M3915 6600l689 2465 157 -49 -846 -2416z"/>
     <path class="fil36" d="M3915 6600l-845 -2416 -153 59 998 2357z"/>
     <path class="fil37" d="M3915 6600l846 2416 153 -60 -999 -2356z"/>
     <path class="fil38" d="M3915 6600l-998 -2357 -149 69 1147 2288z"/>
     <path class="fil39" d="M3915 6600l999 2356 149 -68 -1148 -2288z"/>
     <path class="fil40" d="M3915 6600l-1147 -2288 -144 78 1291 2210z"/>
     <path class="fil41" d="M3915 6600l1148 2288 144 -79 -1292 -2209z"/>
     <path class="fil42" d="M3915 6600l-1291 -2210 -139 87 1430 2123z"/>
     <path class="fil43" d="M3915 6600l1292 2209 139 -87 -1431 -2122z"/>
     <path class="fil44" d="M3915 6600l-1430 -2123 -133 96 1563 2027z"/>
     <path class="fil45" d="M3915 6600l1431 2122 133 -96 -1564 -2026z"/>
     <path class="fil46" d="M3915 6600l-1563 -2027 -127 104 1690 1923z"/>
     <path class="fil47" d="M3915 6600l1564 2026 127 -104 -1691 -1922z"/>
     <path class="fil48" d="M3915 6600l-1690 -1923 -119 113 1809 1810z"/>
     <path class="fil49" d="M3915 6600l1691 1922 119 -113 -1810 -1809z"/>
     <path class="fil49" d="M3915 6600l-1809 -1810 -113 119 1922 1691z"/>
     <path class="fil48" d="M3915 6600l1810 1809 113 -119 -1923 -1690z"/>
     <path class="fil47" d="M3915 6600l-1922 -1691 -104 127 2026 1564z"/>
     <path class="fil46" d="M3915 6600l1923 1690 104 -127 -2027 -1563z"/>
     <path class="fil45" d="M3915 6600l-2026 -1564 -96 133 2122 1431z"/>
     <path class="fil44" d="M3915 6600l2027 1563 96 -133 -2123 -1430z"/>
     <path class="fil43" d="M3915 6600l-2122 -1431 -87 139 2209 1292z"/>
     <path class="fil42" d="M3915 6600l2123 1430 87 -139 -2210 -1291z"/>
     <path class="fil41" d="M3915 6600l-2209 -1292 -79 144 2288 1148z"/>
     <path class="fil40" d="M3915 6600l2210 1291 78 -144 -2288 -1147z"/>
     <path class="fil39" d="M3915 6600l-2288 -1148 -68 149 2356 999z"/>
     <path class="fil38" d="M3915 6600l2288 1147 69 -149 -2357 -998z"/>
     <path class="fil37" d="M3915 6600l-2356 -999 -60 153 2416 846z"/>
     <path class="fil36" d="M3915 6600l2357 998 59 -153 -2416 -845z"/>
     <path class="fil35" d="M3915 6600l-2416 -846 -49 157 2465 689z"/>
     <path class="fil34" d="M3915 6600l2416 845 50 -157 -2466 -688z"/>
     <path class="fil33" d="M3915 6600l-2465 -689 -39 159 2504 530z"/>
     <path class="fil32" d="M3915 6600l2466 688 39 -159 -2505 -529z"/>
     <path class="fil31" d="M3915 6600l-2504 -530 -29 162 2533 368z"/>
     <path class="fil30" d="M3915 6600l2505 529 28 -161 -2533 -368z"/>
     <path class="fil29" d="M3915 6600l-2533 -368 -18 163 2551 205z"/>
     <path class="fil28" d="M3915 6600l2533 368 19 -164 -2552 -204z"/>
     <path class="fil27" d="M3915 6600l-2551 -205 -8 164 2559 41z"/>
     <path class="fil26" d="M3915 6600l2552 204 8 -163 -2560 -41z"/>
     <path class="fil25" d="M3915 6600l-2559 -41 3 164 2556 -123z"/>
     <path class="fil24" d="M3915 6600l2560 41 -3 -164 -2557 123z"/>
     <path class="fil23" d="M3915 6600l-2556 123 13 163 2543 -286z"/>
     <path class="fil22" d="M3915 6600l2557 -123 -13 -164 -2544 287z"/>
     <path class="fil21" d="M3915 6600l-2543 286 24 163 2519 -449z"/>
     <path class="fil20" d="M3915 6600l2544 -287 -24 -162 -2520 449z"/>
     <path class="fil19" d="M3915 6600l-2519 449 33 160 2486 -609z"/>
     <path class="fil18" d="M3915 6600l2520 -449 -34 -161 -2486 610z"/>
     <path class="fil17" d="M3915 6600l-2486 609 45 158 2441 -767z"/>
     <path class="fil16" d="M3915 6600l2486 -610 -44 -158 -2442 768z"/>
     <path class="fil15" d="M3915 6600l-2441 767 54 155 2387 -922z"/>
     <path class="fil14" d="M3915 6600l2442 -768 -54 -155 -2388 923z"/>
     <path class="fil13" d="M3915 6600l-2387 922 64 151 2323 -1073z"/>
     <path class="fil12" d="M3915 6600l2388 -923 -64 -151 -2324 1074z"/>
     <path class="fil11" d="M3915 6600l-2323 1073 73 147 2250 -1220z"/>
     <path class="fil10" d="M3915 6600l2324 -1074 -74 -147 -2250 1221z"/>
     <path class="fil9" d="M3915 6600l-2250 1220 83 141 2167 -1361z"/>
     <path class="fil8" d="M3915 6600l2250 -1221 -82 -141 -2168 1362z"/>
     <path class="fil7" d="M3915 6600l-2167 1361 92 136 2075 -1497z"/>
     <path class="fil6" d="M3915 6600l2168 -1362 -92 -136 -2076 1498z"/>
     <path class="fil5" d="M3915 6600l-2075 1497 100 130 1975 -1627z"/>
     <path class="fil4" d="M3915 6600l2076 -1498 -100 -130 -1976 1628z"/>
     <path class="fil3" d="M3915 6600l-1975 1627 108 124 1867 -1751z"/>
     <path class="fil2" d="M3915 6600l1976 -1628 -109 -123 -1867 1751z"/>
    </g>
    <path class="fil51" d="M5679 6937l-2166 898 -34 -81 2166 -898 34 81zm-2166 898l-41 17 -16 -41 40 -16 17 40zm-57 -24l-898 -2166 80 -33 898 2166 -80 33zm-898 -2166l-17 -40 40 -17 17 41 -40 16zm23 -57l2166 -898 34 81 -2166 898 -34 -81zm2166 -898l41 -16 16 40 -40 17 -17 -41zm57 24l898 2166 -80 33 -898 -2166 80 -33zm898 2166l17 40 -40 17 -17 -40 40 -17z"/>
   </g>
  </g>
  <g>
   <defs>
    <clipPath id="id4">
     <path d="M2912 6265l325 -873 846 -362 949 406 302 771 -360 926 -837 389 -872 -372 -353 -885z"/>
    </clipPath>
   </defs>
   <g style="clip-path:url(#id4)">
    <path class="fil0" d="M3954 6550l1498 -1406 -93 -93 -1405 1499z"/>
    <path class="fil1" d="M3954 6550l-1499 1405 93 93 1406 -1498z"/>
    <path class="fil2" d="M3954 6550l1405 -1499 -99 -87 -1306 1586z"/>
    <path class="fil3" d="M3954 6550l-1406 1498 99 87 1307 -1585z"/>
    <path class="fil4" d="M3954 6550l1306 -1586 -104 -80 -1202 1666z"/>
    <path class="fil5" d="M3954 6550l-1307 1585 104 81 1203 -1666z"/>
    <path class="fil6" d="M3954 6550l1202 -1666 -109 -74 -1093 1740z"/>
    <path class="fil7" d="M3954 6550l-1203 1666 110 73 1093 -1739z"/>
    <path class="fil8" d="M3954 6550l1093 -1740 -114 -66 -979 1806z"/>
    <path class="fil9" d="M3954 6550l-1093 1739 113 67 980 -1806z"/>
    <path class="fil10" d="M3954 6550l979 -1806 -118 -59 -861 1865z"/>
    <path class="fil11" d="M3954 6550l-980 1806 118 59 862 -1865z"/>
    <path class="fil12" d="M3954 6550l861 -1865 -121 -52 -740 1917z"/>
    <path class="fil13" d="M3954 6550l-862 1865 121 51 741 -1916z"/>
    <path class="fil14" d="M3954 6550l740 -1917 -124 -43 -616 1960z"/>
    <path class="fil15" d="M3954 6550l-741 1916 125 44 616 -1960z"/>
    <path class="fil16" d="M3954 6550l616 -1960 -127 -36 -489 1996z"/>
    <path class="fil17" d="M3954 6550l-616 1960 127 35 489 -1995z"/>
    <path class="fil18" d="M3954 6550l489 -1996 -129 -27 -360 2023z"/>
    <path class="fil19" d="M3954 6550l-489 1995 128 27 361 -2022z"/>
    <path class="fil20" d="M3954 6550l360 -2023 -130 -19 -230 2042z"/>
    <path class="fil21" d="M3954 6550l-361 2022 131 19 230 -2041z"/>
    <path class="fil22" d="M3954 6550l230 -2042 -131 -10 -99 2052z"/>
    <path class="fil23" d="M3954 6550l-230 2041 131 11 99 -2052z"/>
    <path class="fil24" d="M3954 6550l99 -2052 -132 -2 33 2054z"/>
    <path class="fil25" d="M3954 6550l-99 2052 132 2 -33 -2054z"/>
    <path class="fil26" d="M3954 6550l-33 -2054 -132 6 165 2048z"/>
    <path class="fil27" d="M3954 6550l33 2054 131 -6 -164 -2048z"/>
    <path class="fil28" d="M3954 6550l-165 -2048 -131 15 296 2033z"/>
    <path class="fil29" d="M3954 6550l164 2048 131 -15 -295 -2033z"/>
    <path class="fil30" d="M3954 6550l-296 -2033 -129 23 425 2010z"/>
    <path class="fil31" d="M3954 6550l295 2033 130 -23 -425 -2010z"/>
    <path class="fil32" d="M3954 6550l-425 -2010 -128 31 553 1979z"/>
    <path class="fil33" d="M3954 6550l425 2010 128 -31 -553 -1979z"/>
    <path class="fil34" d="M3954 6550l-553 -1979 -126 40 679 1939z"/>
    <path class="fil35" d="M3954 6550l553 1979 125 -40 -678 -1939z"/>
    <path class="fil36" d="M3954 6550l-679 -1939 -123 47 802 1892z"/>
    <path class="fil37" d="M3954 6550l678 1939 123 -47 -801 -1892z"/>
    <path class="fil38" d="M3954 6550l-802 -1892 -119 55 921 1837z"/>
    <path class="fil39" d="M3954 6550l801 1892 120 -56 -921 -1836z"/>
    <path class="fil40" d="M3954 6550l-921 -1837 -116 63 1037 1774z"/>
    <path class="fil41" d="M3954 6550l921 1836 115 -62 -1036 -1774z"/>
    <path class="fil42" d="M3954 6550l-1037 -1774 -112 70 1149 1704z"/>
    <path class="fil43" d="M3954 6550l1036 1774 112 -70 -1148 -1704z"/>
    <path class="fil44" d="M3954 6550l-1149 -1704 -106 77 1255 1627z"/>
    <path class="fil45" d="M3954 6550l1148 1704 107 -78 -1255 -1626z"/>
    <path class="fil46" d="M3954 6550l-1255 -1627 -102 84 1357 1543z"/>
    <path class="fil47" d="M3954 6550l1255 1626 101 -83 -1356 -1543z"/>
    <path class="fil48" d="M3954 6550l-1357 -1543 -96 90 1453 1453z"/>
    <path class="fil49" d="M3954 6550l1356 1543 97 -90 -1453 -1453z"/>
    <path class="fil49" d="M3954 6550l-1453 -1453 -90 96 1543 1357z"/>
    <path class="fil48" d="M3954 6550l1453 1453 90 -96 -1543 -1357z"/>
    <path class="fil47" d="M3954 6550l-1543 -1357 -84 102 1627 1255z"/>
    <path class="fil46" d="M3954 6550l1543 1357 83 -102 -1626 -1255z"/>
    <path class="fil45" d="M3954 6550l-1627 -1255 -77 107 1704 1148z"/>
    <path class="fil44" d="M3954 6550l1626 1255 77 -107 -1703 -1148z"/>
    <path class="fil43" d="M3954 6550l-1704 -1148 -70 111 1774 1037z"/>
    <path class="fil42" d="M3954 6550l1703 1148 70 -111 -1773 -1037z"/>
    <path class="fil41" d="M3954 6550l-1774 -1037 -63 116 1837 921z"/>
    <path class="fil40" d="M3954 6550l1773 1037 63 -116 -1836 -921z"/>
    <path class="fil39" d="M3954 6550l-1837 -921 -55 119 1892 802z"/>
    <path class="fil38" d="M3954 6550l1836 921 55 -120 -1891 -801z"/>
    <path class="fil37" d="M3954 6550l-1892 -802 -47 123 1939 679z"/>
    <path class="fil36" d="M3954 6550l1891 801 48 -123 -1939 -678z"/>
    <path class="fil35" d="M3954 6550l-1939 -679 -40 126 1979 553z"/>
    <path class="fil34" d="M3954 6550l1939 678 39 -125 -1978 -553z"/>
    <path class="fil33" d="M3954 6550l-1979 -553 -31 128 2010 425z"/>
    <path class="fil32" d="M3954 6550l1978 553 32 -128 -2010 -425z"/>
    <path class="fil31" d="M3954 6550l-2010 -425 -23 130 2033 295z"/>
    <path class="fil30" d="M3954 6550l2010 425 23 -130 -2033 -295z"/>
    <path class="fil29" d="M3954 6550l-2033 -295 -15 130 2048 165z"/>
    <path class="fil28" d="M3954 6550l2033 295 15 -131 -2048 -164z"/>
    <path class="fil27" d="M3954 6550l-2048 -165 -6 132 2054 33z"/>
    <path class="fil26" d="M3954 6550l2048 164 6 -131 -2054 -33z"/>
    <path class="fil25" d="M3954 6550l-2054 -33 2 132 2052 -99z"/>
    <path class="fil24" d="M3954 6550l2054 33 -2 -132 -2052 99z"/>
    <path class="fil23" d="M3954 6550l-2052 99 10 131 2042 -230z"/>
    <path class="fil22" d="M3954 6550l2052 -99 -11 -131 -2041 230z"/>
    <path class="fil21" d="M3954 6550l-2042 230 19 130 2023 -360z"/>
    <path class="fil20" d="M3954 6550l2041 -230 -19 -131 -2022 361z"/>
    <path class="fil19" d="M3954 6550l-2023 360 27 129 1996 -489z"/>
    <path class="fil18" d="M3954 6550l2022 -361 -27 -128 -1995 489z"/>
    <path class="fil17" d="M3954 6550l-1996 489 36 127 1960 -616z"/>
    <path class="fil16" d="M3954 6550l1995 -489 -35 -127 -1960 616z"/>
    <path class="fil15" d="M3954 6550l-1960 616 43 124 1917 -740z"/>
    <path class="fil14" d="M3954 6550l1960 -616 -44 -125 -1916 741z"/>
    <path class="fil13" d="M3954 6550l-1917 740 52 121 1865 -861z"/>
    <path class="fil12" d="M3954 6550l1916 -741 -51 -121 -1865 862z"/>
    <path class="fil11" d="M3954 6550l-1865 861 59 118 1806 -979z"/>
    <path class="fil10" d="M3954 6550l1865 -862 -59 -118 -1806 980z"/>
    <path class="fil9" d="M3954 6550l-1806 979 66 114 1740 -1093z"/>
    <path class="fil8" d="M3954 6550l1806 -980 -67 -113 -1739 1093z"/>
    <path class="fil7" d="M3954 6550l-1740 1093 74 109 1666 -1202z"/>
    <path class="fil6" d="M3954 6550l1739 -1093 -73 -109 -1666 1202z"/>
    <path class="fil5" d="M3954 6550l-1666 1202 80 104 1586 -1306z"/>
    <path class="fil4" d="M3954 6550l1666 -1202 -81 -105 -1585 1307z"/>
    <path class="fil3" d="M3954 6550l-1586 1306 87 99 1499 -1405z"/>
    <path class="fil2" d="M3954 6550l1585 -1307 -87 -99 -1498 1406z"/>
   </g>
   <path class="fil50 str1" d="M2912 6265l325 -873 846 -362 949 406 302 771 -360 926 -837 389 -872 -372 -353 -885z"/>
  </g>
  <g>
   <g>
    <defs>
     <clipPath id="id5">
      <path d="M3313 5924c297,-228 757,-773 816,-739 29,17 794,687 846,724 47,34 -54,679 -46,1067 0,14 -640,23 -1109,18 -272,-3 -485,8 -484,-5 12,-269 -57,-1038 -23,-1065z"/>
     </clipPath>
    </defs>
    <g style="clip-path:url(#id5)">
     <path class="fil0" d="M4028 6289l1068 -1002 -66 -67 -1002 1069z"/>
     <path class="fil1" d="M4028 6289l-1069 1002 67 66 1002 -1068z"/>
     <path class="fil2" d="M4028 6289l1002 -1069 -71 -62 -931 1131z"/>
     <path class="fil3" d="M4028 6289l-1002 1068 70 62 932 -1130z"/>
     <path class="fil4" d="M4028 6289l931 -1131 -74 -57 -857 1188z"/>
     <path class="fil5" d="M4028 6289l-932 1130 74 58 858 -1188z"/>
     <path class="fil6" d="M4028 6289l857 -1188 -78 -53 -779 1241z"/>
     <path class="fil7" d="M4028 6289l-858 1188 78 52 780 -1240z"/>
     <path class="fil8" d="M4028 6289l779 -1241 -81 -47 -698 1288z"/>
     <path class="fil9" d="M4028 6289l-780 1240 81 48 699 -1288z"/>
     <path class="fil10" d="M4028 6289l698 -1288 -84 -42 -614 1330z"/>
     <path class="fil11" d="M4028 6289l-699 1288 84 42 615 -1330z"/>
     <path class="fil12" d="M4028 6289l614 -1330 -87 -37 -527 1367z"/>
     <path class="fil13" d="M4028 6289l-615 1330 87 36 528 -1366z"/>
     <path class="fil14" d="M4028 6289l527 -1367 -88 -31 -439 1398z"/>
     <path class="fil15" d="M4028 6289l-528 1366 88 31 440 -1397z"/>
     <path class="fil16" d="M4028 6289l439 -1398 -91 -25 -348 1423z"/>
     <path class="fil17" d="M4028 6289l-440 1397 91 26 349 -1423z"/>
     <path class="fil18" d="M4028 6289l348 -1423 -91 -19 -257 1442z"/>
     <path class="fil19" d="M4028 6289l-349 1423 92 19 257 -1442z"/>
     <path class="fil20" d="M4028 6289l257 -1442 -93 -14 -164 1456z"/>
     <path class="fil21" d="M4028 6289l-257 1442 93 13 164 -1455z"/>
     <path class="fil22" d="M4028 6289l164 -1456 -94 -7 -70 1463z"/>
     <path class="fil23" d="M4028 6289l-164 1455 93 8 71 -1463z"/>
     <path class="fil24" d="M4028 6289l70 -1463 -94 -2 24 1465z"/>
     <path class="fil25" d="M4028 6289l-71 1463 94 1 -23 -1464z"/>
     <path class="fil26" d="M4028 6289l-24 -1465 -94 5 118 1460z"/>
     <path class="fil27" d="M4028 6289l23 1464 94 -4 -117 -1460z"/>
     <path class="fil28" d="M4028 6289l-118 -1460 -93 10 211 1450z"/>
     <path class="fil29" d="M4028 6289l117 1460 93 -11 -210 -1449z"/>
     <path class="fil30" d="M4028 6289l-211 -1450 -92 17 303 1433z"/>
     <path class="fil31" d="M4028 6289l210 1449 93 -16 -303 -1433z"/>
     <path class="fil32" d="M4028 6289l-303 -1433 -92 22 395 1411z"/>
     <path class="fil33" d="M4028 6289l303 1433 91 -22 -394 -1411z"/>
     <path class="fil34" d="M4028 6289l-395 -1411 -89 28 484 1383z"/>
     <path class="fil35" d="M4028 6289l394 1411 89 -29 -483 -1382z"/>
     <path class="fil36" d="M4028 6289l-484 -1383 -88 34 572 1349z"/>
     <path class="fil37" d="M4028 6289l483 1382 88 -33 -571 -1349z"/>
     <path class="fil38" d="M4028 6289l-572 -1349 -85 39 657 1310z"/>
     <path class="fil39" d="M4028 6289l571 1349 85 -40 -656 -1309z"/>
     <path class="fil40" d="M4028 6289l-657 -1310 -83 45 740 1265z"/>
     <path class="fil41" d="M4028 6289l656 1309 83 -45 -739 -1264z"/>
     <path class="fil42" d="M4028 6289l-740 -1265 -79 50 819 1215z"/>
     <path class="fil43" d="M4028 6289l739 1264 79 -49 -818 -1215z"/>
     <path class="fil44" d="M4028 6289l-819 -1215 -76 55 895 1160z"/>
     <path class="fil45" d="M4028 6289l818 1215 76 -55 -894 -1160z"/>
     <path class="fil46" d="M4028 6289l-895 -1160 -73 60 968 1100z"/>
     <path class="fil47" d="M4028 6289l894 1160 73 -60 -967 -1100z"/>
     <path class="fil48" d="M4028 6289l-968 -1100 -68 64 1036 1036z"/>
     <path class="fil49" d="M4028 6289l967 1100 68 -64 -1035 -1036z"/>
     <path class="fil49" d="M4028 6289l-1036 -1036 -64 68 1100 968z"/>
     <path class="fil48" d="M4028 6289l1035 1036 65 -69 -1100 -967z"/>
     <path class="fil47" d="M4028 6289l-1100 -968 -60 73 1160 895z"/>
     <path class="fil46" d="M4028 6289l1100 967 59 -72 -1159 -895z"/>
     <path class="fil45" d="M4028 6289l-1160 -895 -55 76 1215 819z"/>
     <path class="fil44" d="M4028 6289l1159 895 55 -76 -1214 -819z"/>
     <path class="fil43" d="M4028 6289l-1215 -819 -50 80 1265 739z"/>
     <path class="fil42" d="M4028 6289l1214 819 50 -80 -1264 -739z"/>
     <path class="fil41" d="M4028 6289l-1265 -739 -45 82 1310 657z"/>
     <path class="fil40" d="M4028 6289l1264 739 45 -83 -1309 -656z"/>
     <path class="fil39" d="M4028 6289l-1310 -657 -39 85 1349 572z"/>
     <path class="fil38" d="M4028 6289l1309 656 39 -85 -1348 -571z"/>
     <path class="fil37" d="M4028 6289l-1349 -572 -34 88 1383 484z"/>
     <path class="fil36" d="M4028 6289l1348 571 34 -87 -1382 -484z"/>
     <path class="fil35" d="M4028 6289l-1383 -484 -28 90 1411 394z"/>
     <path class="fil34" d="M4028 6289l1382 484 28 -90 -1410 -394z"/>
     <path class="fil33" d="M4028 6289l-1411 -394 -23 91 1434 303z"/>
     <path class="fil32" d="M4028 6289l1410 394 23 -91 -1433 -303z"/>
     <path class="fil31" d="M4028 6289l-1434 -303 -16 92 1450 211z"/>
     <path class="fil30" d="M4028 6289l1433 303 16 -93 -1449 -210z"/>
     <path class="fil29" d="M4028 6289l-1450 -211 -11 94 1461 117z"/>
     <path class="fil28" d="M4028 6289l1449 210 11 -93 -1460 -117z"/>
     <path class="fil27" d="M4028 6289l-1461 -117 -4 93 1465 24z"/>
     <path class="fil26" d="M4028 6289l1460 117 4 -94 -1464 -23z"/>
     <path class="fil25" d="M4028 6289l-1465 -24 1 94 1464 -70z"/>
     <path class="fil24" d="M4028 6289l1464 23 -1 -94 -1463 71z"/>
     <path class="fil23" d="M4028 6289l-1464 70 8 94 1456 -164z"/>
     <path class="fil22" d="M4028 6289l1463 -71 -8 -93 -1455 164z"/>
     <path class="fil21" d="M4028 6289l-1456 164 13 93 1443 -257z"/>
     <path class="fil20" d="M4028 6289l1455 -164 -13 -93 -1442 257z"/>
     <path class="fil19" d="M4028 6289l-1443 257 20 92 1423 -349z"/>
     <path class="fil18" d="M4028 6289l1442 -257 -20 -92 -1422 349z"/>
     <path class="fil17" d="M4028 6289l-1423 349 25 90 1398 -439z"/>
     <path class="fil16" d="M4028 6289l1422 -349 -25 -90 -1397 439z"/>
     <path class="fil15" d="M4028 6289l-1398 439 31 89 1367 -528z"/>
     <path class="fil14" d="M4028 6289l1397 -439 -31 -89 -1366 528z"/>
     <path class="fil13" d="M4028 6289l-1367 528 37 86 1330 -614z"/>
     <path class="fil12" d="M4028 6289l1366 -528 -37 -87 -1329 615z"/>
     <path class="fil11" d="M4028 6289l-1330 614 42 84 1288 -698z"/>
     <path class="fil10" d="M4028 6289l1329 -615 -42 -83 -1287 698z"/>
     <path class="fil9" d="M4028 6289l-1288 698 47 81 1241 -779z"/>
     <path class="fil8" d="M4028 6289l1287 -698 -47 -82 -1240 780z"/>
     <path class="fil7" d="M4028 6289l-1241 779 53 78 1188 -857z"/>
     <path class="fil6" d="M4028 6289l1240 -780 -53 -77 -1187 857z"/>
     <path class="fil5" d="M4028 6289l-1188 857 57 74 1131 -931z"/>
     <path class="fil4" d="M4028 6289l1187 -857 -57 -75 -1130 932z"/>
     <path class="fil3" d="M4028 6289l-1131 931 62 71 1069 -1002z"/>
     <path class="fil2" d="M4028 6289l1130 -932 -62 -70 -1068 1002z"/>
    </g>
    <path class="fil51" d="M3282 5892l0 0 62 65 0 0 -62 -65zm0 0l0 0 31 32 -31 -32zm0 0c138,-106 311,-280 462,-433l67 61c-153,154 -328,330 -467,437l-62 -65zm462 -433c183,-185 336,-339 396,-305l-22 62c-4,-2 -142,137 -307,304l-67 -61zm396 -305l3 3 -14 28 11 -31zm3 3c3,2 -8,-5 -6,-4l-16 64c-2,-1 -4,-2 -7,-4l29 -56zm-6 -4l3 2 -11 30 8 -32zm3 2c21,12 228,191 435,370l-42 48c-203,-176 -406,-352 -416,-358l23 -60zm435 370c197,171 394,341 416,357l-33 54c-28,-20 -226,-191 -425,-363l42 -48zm385 413l-2 -2 17 -27 -15 29zm30 -57c1,1 3,2 5,4l-40 49c-1,-1 7,5 5,4l30 -57zm-32 55l-3 -2 20 -25 -17 27zm34 -53c49,36 33,232 12,473l-80 -30c19,-215 34,-390 34,-390l34 -53zm12 473c-18,207 -39,449 -35,633l-80 -25c-4,-186 17,-430 35,-638l80 30zm-35 633c0,12 -5,20 -17,24l-49 -71c9,-4 -14,34 -14,22l80 25zm-66 -47l0 0 25 36 -25 -36zm50 71c-10,4 -44,7 -95,9l-30 -75c44,-2 71,-4 75,-5l50 71zm-95 9c-47,3 -112,5 -190,6l-28 -75c76,-2 140,-4 188,-6l30 75zm-190 6c-229,5 -561,6 -835,3l-26 -75c273,3 605,1 833,-3l28 75zm-835 3c-3,0 -7,0 -10,0l-27 -75c4,0 7,0 11,0l26 75zm-10 0c-108,-1 -203,0 -280,1l-27 -75c79,-1 177,-2 280,-1l27 75zm-280 1c-74,1 -131,2 -163,0l-24 -75c33,1 88,1 160,0l27 75zm-163 0c-56,-2 -86,-19 -84,-57l80 28c-1,32 -34,-47 -20,-46l24 75zm-84 -57l0 -1 80 28 0 1 -80 -28zm0 -1c6,-122 -6,-350 -17,-563l80 22c11,215 23,444 17,569l-80 -28zm-17 -563c-13,-259 -25,-497 3,-519l62 65c-9,6 3,231 15,476l-80 -22zm65 -454l0 0 -31 -33 31 33z"/>
   </g>
   <g>
    <path class="fil51" d="M3372 6546l-25 38 -72 -55 25 -37 72 54zm-72 -54c47,-71 90,-143 133,-214l73 52c-43,73 -87,145 -134,216l-72 -54zm133 -214c87,-145 174,-290 295,-429l69 59c-119,136 -205,279 -291,422l-73 -52zm295 -429l3 -2 32 32 -35 -30zm3 -2c112,-98 221,-174 335,-238l56 69c-111,62 -218,136 -327,232l-64 -63zm335 -238c114,-63 234,-114 366,-161l48 72c-129,46 -246,95 -358,158l-56 -69zm366 -161l40 -14 48 72 -40 14 -48 -72z"/>
   </g>
   <g>
    <path class="fil51" d="M3387 7001l-36 24 -60 -66 37 -25 59 67zm-59 -67c0,0 -6,5 -4,3l67 61c-2,2 -3,2 -4,3l-59 -67zm-4 3l3 -2 31 33 -34 -31zm3 -2c174,-125 435,-387 630,-583l67 61c-197,197 -460,461 -636,587l-61 -65zm630 -583c43,-42 82,-82 116,-115l66 61c-36,35 -74,74 -115,115l-67 -61zm183 -55l-1 1 -33 -31 34 30zm-68 -59c102,-111 201,-217 310,-309l64 63c-106,90 -205,195 -306,305l-68 -59zm310 -309c109,-92 226,-168 363,-217l48 71c-130,47 -242,120 -347,209l-64 -63zm363 -217l39 -14 49 71 -40 14 -48 -71z"/>
   </g>
   <g>
    <path class="fil51" d="M3363 7020l-38 2 -29 -76 38 -1 29 75zm-29 -75l1 0 29 75 -1 0 -29 -75zm1 0c49,-1 98,-5 147,-11l35 75c-51,6 -102,10 -153,11l-29 -75zm147 -11c50,-5 99,-13 148,-22l40 74c-51,10 -102,18 -153,23l-35 -75zm148 -22c255,-50 511,-149 753,-279l56 68c-247,133 -508,234 -769,285l-40 -74zm753 -279l0 -1 28 35 -28 -34zm0 -1l0 0 55 69 0 0 -55 -69zm56 69l-1 0 -27 -34 28 34zm-56 -68c36,-20 71,-42 105,-66l61 66c-35,25 -72,47 -110,68l-56 -68zm105 -66c33,-24 66,-51 97,-79l65 62c-32,30 -66,57 -101,83l-61 -66zm97 -79c160,-148 281,-350 339,-577l78 39c-61,237 -186,447 -352,600l-65 -62zm339 -577l10 -42 78 40 -10 41 -78 -39z"/>
   </g>
   <g>
    <path class="fil51" d="M3279 5966l-4 -35 67 -35 5 35 -68 35zm68 -35c36,273 224,418 406,558l-46 77c-191,-147 -388,-299 -428,-600l68 -35zm406 558c19,14 37,28 49,38l-46 76c-20,-15 -34,-26 -49,-37l46 -77zm49 38c175,136 349,236 532,301l-34 84c-188,-67 -365,-169 -544,-309l46 -76zm532 301c183,65 377,96 593,95l-18 86c-221,2 -420,-30 -609,-97l34 -84zm593 95l43 -1 -18 87 -43 0 18 -86z"/>
   </g>
   <g>
    <path class="fil51" d="M3493 5756l-8 -37 66 -43 9 36 -67 44zm67 -44l0 0 -67 44 0 0 67 -44zm-66 44l-1 0 33 -22 -32 22zm65 -44c2,8 51,42 122,92l-44 78c-81,-57 -136,-96 -143,-126l65 -44zm122 92c131,91 332,232 492,422l-53 70c-158,-186 -355,-325 -483,-414l44 -78zm492 422c219,259 252,286 419,418l-46 76c-171,-135 -205,-161 -426,-424l53 -70zm419 418c77,60 182,143 346,281l-47 76c-163,-137 -268,-220 -345,-281l46 -76zm346 281l34 29 -47 75 -34 -28 47 -76z"/>
   </g>
   <g>
    <path class="fil51" d="M3777 5511l-33 -29 47 -75 34 29 -48 75zm48 -75l0 0 -48 75 0 0 48 -75zm0 0l0 0 -24 37 24 -37zm0 0c11,9 44,23 90,41l-35 83c-51,-20 -87,-35 -103,-49l48 -75zm90 41c138,56 387,157 596,389l-52 71c-202,-224 -445,-322 -579,-377l35 -83zm596 389c20,23 43,48 65,71l-52 71c-18,-19 -37,-39 -65,-71l52 -71zm65 71c115,126 164,179 397,558l-58 63c-230,-374 -278,-426 -391,-550l52 -71zm397 558l22 35 -58 63 -22 -35 58 -63z"/>
   </g>
  </g>
 </g>
</svg>
