<svg xmlns="http://www.w3.org/2000/svg" width="45.709" height="37.411" viewBox="0 0 45.709 37.411">
  <path id="twitter" d="M45.709,5c-2.875.133-2.813.122-3.138.149l1.7-4.863s-5.315,1.955-6.663,2.305a10.665,10.665,0,0,0-12.56-1.01,8.7,8.7,0,0,0-4.181,8.945A23.2,23.2,0,0,1,5.839,2.06L4.578.545l-.942,1.73A10.457,10.457,0,0,0,2.522,9.315a10.114,10.114,0,0,0,.98,2.748L2.42,11.644l-.128,1.807a9.644,9.644,0,0,0,1.636,5.733A10.194,10.194,0,0,0,5.2,20.755l-.559-.086.682,2.071a10.068,10.068,0,0,0,5.176,6c-2.414,1.024-4.363,1.678-7.568,2.732L0,32.433l2.708,1.481a28.426,28.426,0,0,0,8.287,3.016c8.014,1.257,17.036.233,23.111-5.237,5.116-4.608,6.795-11.162,6.446-17.983a4.262,4.262,0,0,1,.8-2.774C42.482,9.42,45.7,5.007,45.708,5Zm-6.5,4.334a6.94,6.94,0,0,0-1.327,4.515c.352,6.88-1.52,12.216-5.564,15.858-4.724,4.255-12.344,5.925-20.906,4.582A20.732,20.732,0,0,1,6.93,32.955a71.024,71.024,0,0,0,8.113-3.335l4.678-2.214-5.165-.331a7.3,7.3,0,0,1-5.8-3.3,9.263,9.263,0,0,0,1.966-.328l4.926-1.372-4.967-1.216a7.4,7.4,0,0,1-4.518-3.143,7.576,7.576,0,0,1-.979-2.161,12.4,12.4,0,0,0,2.015.322l4.6.455L8.153,13.487A7.667,7.667,0,0,1,5.248,5.408,26.645,26.645,0,0,0,24.024,13.49a15.857,15.857,0,0,0-.274-2.272,6.149,6.149,0,0,1,2.7-7.361,8,8,0,0,1,9.437.782,2.4,2.4,0,0,0,2.2.588A18.51,18.51,0,0,0,39.9,4.676l-1.155,3.3H40.22c-.278.373-.612.82-1.013,1.356Zm0,0" transform="translate(0 0)" fill="#fff"/>
</svg>
