<svg xmlns="http://www.w3.org/2000/svg" width="70.119" height="70.105" viewBox="0 0 70.119 70.105">
  <g id="worldwide" transform="translate(0 -0.05)">
    <g id="Group_32" data-name="Group 32" transform="translate(0 0.05)">
      <path id="Path_15" data-name="Path 15" d="M35.072.05A35.052,35.052,0,0,0,2.844,21.306l-.437.145.169.508A35.05,35.05,0,1,0,35.072.05ZM62.567,52.775l-1.8-1.8v-4.19a1.167,1.167,0,0,0-.117-.522l-4.557-9.1v-4.4a1.168,1.168,0,0,0-.52-.972l-3.505-2.337a1.169,1.169,0,0,0-.935-.161l-4.293,1.073-7.21-3.094-.992-6.95,2.749-2.748h5.9l1.986,2.985a1.168,1.168,0,0,0,.78.5l7.01,1.168a1.159,1.159,0,0,0,.561-.044l6.457-2.152A32.6,32.6,0,0,1,62.567,52.775ZM57.748,11.564l-1.9,1.267-5.3-1.06-3.436-1.144a1.147,1.147,0,0,0-.652-.026l-4.344,1.085-1.9-.634,1.411-2.823h3.952a1.168,1.168,0,0,0,.522-.123l4.043-2.021A32.836,32.836,0,0,1,57.748,11.564ZM22.264,5l2.8,1.869a1.167,1.167,0,0,0,.457.18l5.662.944-.553,1.653-2.95.985a1.169,1.169,0,0,0-.632.506L23.7,16.726l-5.39,3.234-7.945,1.135a1.168,1.168,0,0,0-1,1.156v3.505a1.168,1.168,0,0,0,.342.826l1.994,1.994v2.007L6.833,27.342,5.07,22.052A32.9,32.9,0,0,1,22.264,5ZM18.938,43.3l-5.281-1.057-1.963-3.915V35.586l4.354-4.354,1.611,3.224A1.169,1.169,0,0,0,18.7,35.1h7.518l3.165,5.275a1.168,1.168,0,0,0,1,.567h3.248l-.818,4.1-4.424,4.424a1.169,1.169,0,0,0-.344.826v2.921l-4.206,3.155a1.169,1.169,0,0,0-.467.935v4.22l-1.454-.481L19.872,55.91V44.45A1.168,1.168,0,0,0,18.938,43.3ZM15.425,61.266A32.707,32.707,0,0,1,3.773,25.549l.971,2.912a1.168,1.168,0,0,0,.459.6l5.825,3.883L9.7,34.276a1.168,1.168,0,0,0-.342.826v3.505a1.168,1.168,0,0,0,.123.522L11.816,43.8a1.169,1.169,0,0,0,.818.623l4.907.98V56.134a1.169,1.169,0,0,0,.083.433l2.337,5.842a1.169,1.169,0,0,0,.716.674l3.505,1.168a1.148,1.148,0,0,0,.363.061,1.168,1.168,0,0,0,1.168-1.168V57.887l4.206-3.155a1.169,1.169,0,0,0,.467-.935V50.776l4.331-4.331a1.169,1.169,0,0,0,.319-.6l1.168-5.842a1.168,1.168,0,0,0-1.145-1.4H31.049l-3.165-5.275a1.169,1.169,0,0,0-1-.567H19.426l-2.007-4.028a1.168,1.168,0,0,0-.859-.631,1.145,1.145,0,0,0-1.013.327L14.03,29.945V28.092a1.168,1.168,0,0,0-.342-.826l-1.994-1.994V23.263l7.176-1.025a1.174,1.174,0,0,0,.436-.155l5.842-3.505a1.168,1.168,0,0,0,.4-.4l3.283-5.472,3.1-1.033a1.156,1.156,0,0,0,.738-.738L33.833,7.43a1.169,1.169,0,0,0-.916-1.519L26.154,4.783l-1.188-.792a32.626,32.626,0,0,1,22.471.835L45.3,5.892H40.9a1.168,1.168,0,0,0-1.052.646l-2.337,4.674a1.169,1.169,0,0,0,.677,1.63L41.7,14.01a1.147,1.147,0,0,0,.652.026l4.344-1.085,3.183,1.06a.859.859,0,0,0,.14.037l5.842,1.168a1.16,1.16,0,0,0,.877-.173L59.4,13.269a32.962,32.962,0,0,1,3.515,4.7l-5.749,1.916-6.224-1.038-2.056-3.085a1.168,1.168,0,0,0-.966-.52H40.9a1.168,1.168,0,0,0-.826.342l-3.505,3.505a1.168,1.168,0,0,0-.331.992l1.168,8.179a1.168,1.168,0,0,0,.7.908l8.179,3.505a1.155,1.155,0,0,0,.743.06l4.172-1.043,2.551,1.7v4.049a1.167,1.167,0,0,0,.117.522l4.557,9.1v4.4a1.168,1.168,0,0,0,.342.826l2.444,2.445A32.707,32.707,0,0,1,15.425,61.266Z" transform="translate(0 -0.05)" fill="#fff"/>
    </g>
  </g>
</svg>
